if (_typeface_js && _typeface_js.loadFace) _typeface_js.loadFace({"glyphs":{"ﬕ":{"x_min":91,"x_max":1394,"ha":1486,"o":"m 546 0 l 546 60 q 502 28 525 42 q 454 5 480 14 q 397 -9 428 -4 q 330 -15 367 -15 q 153 46 215 -15 q 91 222 91 107 l 91 720 l 208 720 l 208 243 q 214 175 208 204 q 238 126 221 146 q 285 96 256 106 q 358 87 314 87 q 424 94 395 87 q 474 112 453 101 q 510 137 496 123 q 534 164 524 151 l 534 994 l 785 994 l 785 889 l 651 889 l 651 0 l 546 0 m 834 994 l 951 994 l 951 669 q 982 690 965 680 q 1030 714 1004 705 q 1087 729 1056 724 q 1154 735 1117 735 q 1331 673 1269 735 q 1394 497 1394 612 l 1394 0 l 1277 0 l 1277 476 q 1270 544 1277 515 q 1246 593 1263 574 q 1199 623 1228 613 q 1126 633 1170 633 q 1060 625 1088 633 q 1010 607 1031 618 q 974 582 988 596 q 951 555 959 568 l 951 -276 l 834 -276 l 834 994 "},"ճ":{"x_min":54,"x_max":639,"ha":724,"o":"m 57 720 l 170 720 q 244 829 203 779 q 335 916 285 879 q 444 973 385 952 q 571 994 503 994 l 639 994 l 639 889 l 560 889 q 481 876 518 889 q 410 842 444 864 q 349 788 377 819 q 296 720 320 757 l 300 720 q 430 700 369 720 q 538 643 492 681 q 611 547 584 604 q 639 415 639 490 l 639 0 l 535 0 l 535 60 q 491 28 513 42 q 442 5 469 14 q 386 -9 416 -4 q 318 -15 355 -15 q 213 0 261 -15 q 129 48 165 16 q 74 130 94 80 q 54 248 54 179 q 70 431 54 336 q 122 615 87 526 l 57 615 l 57 720 m 522 399 q 463 559 522 503 q 286 615 404 615 l 241 615 q 190 446 207 535 q 174 274 174 358 q 184 184 174 220 q 217 126 195 148 q 269 96 238 105 q 343 87 301 87 q 411 94 382 87 q 462 112 440 101 q 498 137 484 123 q 522 164 512 151 l 522 399 "},"Á":{"x_min":0,"x_max":907,"ha":908,"o":"m 779 0 q 755 97 769 44 q 723 209 741 150 q 684 332 705 268 q 640 462 663 396 l 311 462 q 315 473 311 464 q 323 495 318 483 q 333 522 327 508 q 342 549 338 536 q 350 570 346 561 q 354 580 353 579 l 596 580 q 534 734 566 658 q 470 877 502 809 l 435 877 q 371 732 403 809 q 308 576 338 656 q 250 417 278 497 q 198 262 222 337 q 157 120 175 187 q 128 0 138 53 l 0 0 q 37 153 14 69 q 89 325 60 236 q 151 506 118 414 q 219 685 184 598 q 290 851 254 772 q 360 994 326 930 l 546 994 q 616 851 580 930 q 687 685 652 772 q 755 506 722 598 q 817 325 788 414 q 869 153 846 236 q 907 0 892 69 l 779 0 m 431 1268 l 582 1268 l 455 1072 l 323 1072 l 431 1268 "},"׃":{"x_min":121,"x_max":254,"ha":386,"o":"m 121 581 l 121 720 l 254 720 l 254 581 l 121 581 m 121 0 l 121 139 l 254 139 l 254 0 l 121 0 "},"Κ":{"x_min":102,"x_max":846,"ha":900,"o":"m 102 0 l 102 994 l 228 994 l 228 580 l 240 580 q 303 589 267 580 q 380 620 339 599 q 464 674 421 641 q 546 753 506 707 q 620 859 586 799 q 677 994 653 919 l 810 994 q 749 844 785 912 q 669 719 713 775 q 577 620 626 664 q 479 545 528 576 q 560 460 519 505 q 640 368 601 415 q 712 272 678 320 q 774 176 746 223 q 819 84 801 128 q 846 0 838 39 l 714 0 q 667 109 700 48 q 589 235 635 170 q 485 365 542 300 q 365 487 428 430 q 240 462 294 462 l 228 462 l 228 0 l 102 0 "},"»":{"x_min":47.734375,"x_max":632,"ha":673,"o":"m 220 358 l 47 667 l 166 667 l 358 358 l 166 49 l 47 49 l 220 358 m 494 358 l 321 667 l 440 667 l 632 358 l 440 49 l 321 49 l 494 358 "},"დ":{"x_min":61,"x_max":1237,"ha":1298,"o":"m 182 359 q 212 189 182 260 q 296 71 243 119 q 425 -7 350 22 q 589 -54 500 -37 q 769 -98 693 -75 q 897 -147 846 -121 q 976 -206 948 -174 q 1011 -276 1004 -237 l 868 -276 q 829 -231 859 -250 q 757 -200 799 -212 q 666 -181 715 -187 q 574 -175 618 -175 q 519 -176 551 -175 q 450 -182 487 -178 q 376 -191 414 -185 q 303 -204 338 -196 q 238 -223 268 -212 q 190 -248 209 -234 l 190 -140 q 241 -120 217 -128 q 288 -107 265 -113 q 332 -99 310 -102 q 379 -92 354 -96 q 247 -28 306 -68 q 147 69 189 12 q 83 199 105 126 q 61 360 61 272 q 78 506 61 438 q 134 625 95 574 q 234 705 173 676 q 385 735 296 735 q 546 700 481 735 q 648 606 610 665 q 751 700 686 665 q 913 735 816 735 q 1062 705 1001 735 q 1163 625 1124 676 q 1219 506 1201 574 q 1237 360 1237 437 q 1219 213 1237 282 q 1163 94 1201 145 q 1062 14 1124 44 q 913 -15 1001 -15 q 762 14 824 -15 q 662 94 700 43 q 606 213 623 145 q 589 359 589 281 q 591 422 589 392 q 600 482 594 453 q 568 538 588 510 q 523 586 549 565 q 462 620 496 607 q 385 633 428 633 q 292 614 331 633 q 229 561 253 596 q 193 475 205 526 q 182 359 182 425 m 710 360 q 721 244 710 294 q 757 158 733 193 q 820 105 781 123 q 913 87 858 87 q 1005 105 967 87 q 1068 158 1044 123 q 1104 244 1093 193 q 1116 360 1116 294 q 1104 475 1116 425 q 1068 561 1093 526 q 1005 614 1044 596 q 913 633 967 633 q 820 614 858 633 q 757 561 781 596 q 721 475 733 526 q 710 360 710 425 "},"ў":{"x_min":14,"x_max":647,"ha":701,"o":"m 647 720 q 628 623 640 678 q 597 505 615 568 q 557 375 579 442 q 510 241 535 307 q 459 112 485 174 q 408 0 433 50 q 349 -109 379 -57 q 283 -202 319 -161 q 203 -266 247 -242 q 104 -290 159 -290 q 92 -289 100 -290 q 72 -287 83 -289 q 50 -283 62 -286 q 28 -276 38 -281 l 28 -170 q 51 -178 39 -176 q 72 -182 62 -181 q 90 -184 83 -184 q 101 -185 98 -185 q 149 -175 127 -185 q 194 -143 172 -165 q 238 -86 216 -121 q 286 0 260 -51 q 230 112 259 51 q 173 241 201 174 q 118 375 144 307 q 71 506 92 443 q 34 624 49 568 q 14 720 19 679 l 131 720 q 160 592 139 663 q 211 442 181 521 q 276 283 241 364 q 346 127 311 202 q 409 286 380 205 q 463 444 439 367 q 504 592 487 521 q 530 720 521 663 l 647 720 m 346 910 q 386 913 367 910 q 421 925 406 916 q 447 951 436 935 q 462 994 457 967 l 565 994 q 542 922 560 954 q 496 868 524 891 q 429 834 467 846 q 345 822 391 822 q 262 834 299 822 q 196 868 224 846 q 150 922 168 891 q 128 994 132 954 l 231 994 q 245 951 235 967 q 271 925 256 935 q 305 913 286 916 q 346 910 324 910 "},"ţ":{"x_min":34,"x_max":449.015625,"ha":476,"o":"m 449 -9 q 410 -13 430 -12 q 373 -15 390 -15 q 280 -4 323 -15 q 205 35 237 6 q 154 115 172 65 q 136 244 136 166 l 136 615 l 34 615 l 34 720 l 136 720 l 136 885 l 253 938 l 253 720 l 412 720 l 412 615 l 253 615 l 253 244 q 261 164 253 195 q 286 116 269 133 q 327 92 303 98 q 381 86 351 86 q 415 88 399 86 q 449 94 431 91 l 449 -9 m 160 -243 l 160 -104 l 294 -104 l 294 -243 q 267 -325 294 -288 q 184 -389 241 -362 l 151 -337 q 206 -298 186 -323 q 226 -243 226 -273 l 160 -243 "},"מ":{"x_min":92,"x_max":768,"ha":821,"o":"m 209 720 l 209 509 q 260 597 231 556 q 324 669 289 638 q 402 717 359 699 q 495 735 444 735 q 620 706 568 735 q 705 627 672 678 q 753 508 738 577 q 768 359 768 439 q 752 207 768 276 q 699 89 736 138 q 605 11 663 39 q 461 -16 546 -16 q 434 -14 450 -16 q 399 -10 417 -13 q 362 -4 381 -8 q 329 3 343 -1 l 329 108 q 363 98 344 102 q 400 91 382 94 q 434 87 419 88 q 460 86 450 86 q 600 157 554 86 q 647 359 647 229 q 634 483 647 431 q 599 568 621 535 q 548 617 577 601 q 486 633 519 633 q 398 599 441 633 q 318 507 355 565 q 253 375 282 450 q 209 218 225 300 l 209 0 l 92 0 l 92 720 l 209 720 "},"«":{"x_min":41,"x_max":625.265625,"ha":672,"o":"m 351 49 l 232 49 l 41 358 l 232 667 l 351 667 l 179 358 l 351 49 m 625 49 l 506 49 l 315 358 l 506 667 l 625 667 l 453 358 l 625 49 "},"í":{"x_min":20.84375,"x_max":279,"ha":300,"o":"m 92 0 l 92 720 l 209 720 l 209 0 l 92 0 m 128 994 l 279 994 l 152 798 l 20 798 l 128 994 "},"ņ":{"x_min":92,"x_max":652,"ha":744,"o":"m 196 720 l 196 659 q 239 690 217 676 q 288 714 261 705 q 344 729 314 724 q 412 735 375 735 q 589 673 527 735 q 652 497 652 612 l 652 0 l 535 0 l 535 476 q 528 544 535 515 q 504 593 521 574 q 457 623 486 613 q 384 633 428 633 q 318 625 346 633 q 268 607 289 618 q 232 582 246 596 q 209 555 217 568 l 209 0 l 92 0 l 92 720 l 196 720 m 309 -243 l 309 -104 l 443 -104 l 443 -243 q 416 -325 443 -288 q 333 -389 390 -362 l 300 -337 q 355 -298 335 -323 q 375 -243 375 -273 l 309 -243 "},"µ":{"x_min":0.4375,"x_max":652,"ha":743,"o":"m 547 0 l 547 60 q 503 28 526 42 q 455 5 481 14 q 398 -9 429 -4 q 331 -15 368 -15 q 194 16 251 -15 l 194 -113 q 186 -186 194 -153 q 162 -241 179 -218 q 119 -277 145 -264 q 56 -290 93 -290 q 23 -287 38 -290 q 0 -283 9 -285 l 0 -192 q 20 -195 7 -193 q 47 -198 34 -198 q 70 -191 61 -198 q 83 -172 79 -184 q 90 -145 88 -160 q 92 -113 92 -130 l 92 720 l 209 720 l 209 243 q 215 175 209 204 q 239 126 222 145 q 286 96 257 106 q 359 87 315 87 q 425 94 396 87 q 475 112 454 101 q 511 137 497 123 q 535 164 525 151 l 535 720 l 652 720 l 652 0 l 547 0 "},"Ι":{"x_min":102,"x_max":228,"ha":330,"o":"m 102 0 l 102 994 l 228 994 l 228 0 l 102 0 "},"Ύ":{"x_min":-260.15625,"x_max":893.890625,"ha":894,"o":"m 378 0 l 378 444 q 259 585 317 513 q 153 727 202 657 q 64 865 104 798 q 0 994 24 932 l 138 994 q 189 891 158 945 q 261 781 221 837 q 347 665 300 724 q 446 549 393 606 q 545 665 498 606 q 632 781 592 724 q 703 891 672 837 q 755 994 734 945 l 893 994 q 828 863 868 931 q 736 723 787 795 q 627 578 686 651 q 507 434 568 505 l 507 0 l 378 0 m -153 995 l -2 995 l -128 799 l -260 799 l -153 995 "},"ѕ":{"x_min":55,"x_max":558,"ha":611,"o":"m 320 735 q 425 727 381 735 q 504 708 469 719 l 504 605 q 416 625 459 618 q 321 633 373 633 q 255 628 283 633 q 207 611 226 623 q 179 580 188 599 q 172 530 170 560 q 190 484 173 502 q 235 455 207 467 q 296 435 262 444 q 367 416 331 427 q 437 389 403 405 q 498 348 471 374 q 541 284 525 322 q 558 189 558 246 q 538 100 558 138 q 484 37 519 62 q 399 -1 448 11 q 291 -15 351 -15 q 228 -12 260 -15 q 165 -5 195 -9 q 110 5 135 0 q 67 19 84 11 l 67 124 q 163 98 107 110 q 291 87 218 87 q 358 91 329 87 q 404 108 386 96 q 432 139 423 120 q 441 189 441 159 q 424 251 441 227 q 380 291 407 276 q 318 316 353 306 q 248 335 284 326 q 177 358 211 345 q 115 392 142 370 q 71 447 88 414 q 55 530 55 480 q 74 618 55 580 q 128 682 93 657 q 212 721 163 708 q 320 735 261 735 "},"Ш":{"x_min":102,"x_max":1188,"ha":1290,"o":"m 102 0 l 102 994 l 228 994 l 228 119 l 582 119 l 582 994 l 708 994 l 708 119 l 1062 119 l 1062 994 l 1188 994 l 1188 0 l 102 0 "},"M":{"x_min":102,"x_max":1043,"ha":1145,"o":"m 572 452 q 581 482 575 467 q 592 511 586 497 q 625 581 604 540 q 673 669 647 623 q 730 765 699 716 q 790 858 760 814 q 849 938 820 902 q 900 994 877 973 l 1043 994 l 1043 0 l 917 0 l 917 806 q 917 821 917 814 q 918 833 917 829 q 868 764 895 805 q 812 674 841 722 q 755 573 784 626 q 702 470 727 521 q 656 374 676 420 q 624 294 636 328 l 520 294 q 488 374 508 328 q 442 470 468 420 q 389 573 417 521 q 332 674 360 626 q 276 764 303 722 q 226 833 249 805 q 227 821 227 829 q 228 806 228 814 l 228 0 l 102 0 l 102 994 l 249 994 q 300 938 272 973 q 358 858 328 902 q 418 765 388 814 q 474 669 448 716 q 521 581 500 623 q 554 511 542 540 q 572 452 566 483 "},"Ψ":{"x_min":102,"x_max":1010,"ha":1109,"o":"m 1010 994 l 1010 612 q 981 462 1010 530 q 902 344 953 393 q 778 266 851 294 q 619 239 706 239 l 619 0 l 493 0 l 493 239 q 337 266 408 239 q 213 342 265 293 q 131 461 161 392 q 102 612 102 530 l 102 994 l 228 994 l 228 612 q 246 505 228 553 q 300 423 265 458 q 383 371 334 389 q 493 353 432 353 l 493 994 l 619 994 l 619 352 q 728 369 679 352 q 811 421 777 387 q 865 503 846 454 q 884 612 884 551 l 884 994 l 1010 994 "},"ב":{"x_min":34,"x_max":675,"ha":729,"o":"m 287 633 q 221 630 257 633 q 150 623 185 627 q 84 613 115 618 q 34 603 53 607 l 34 715 q 77 721 48 718 q 140 727 105 724 q 213 732 175 730 q 287 735 251 735 q 466 712 392 735 q 586 646 539 690 q 653 538 632 602 q 675 388 675 473 l 675 0 l 34 0 l 34 105 l 558 105 l 558 367 q 542 497 558 445 q 493 578 526 548 q 409 620 460 608 q 287 633 358 633 "},"֎":{"x_min":5.421875,"x_max":1250.640625,"ha":1194,"o":"m 1250 356 q 1166 135 1250 229 q 1141 18 1166 73 q 1069 -82 1116 -35 q 967 -155 1022 -130 q 851 -180 913 -180 q 628 -266 756 -266 q 406 -181 501 -266 q 290 -156 344 -181 q 188 -84 236 -131 q 115 16 141 -37 q 90 132 90 71 q 5 356 5 227 q 89 577 5 483 q 114 694 89 639 q 186 795 139 748 q 288 868 233 843 q 404 893 342 893 q 628 979 499 979 q 849 894 754 979 q 965 869 911 894 q 1067 797 1020 844 q 1140 696 1115 750 q 1165 580 1165 641 q 1250 356 1250 485 m 1080 563 q 1008 737 1080 665 q 927 791 972 773 q 960 647 960 722 q 899 455 960 543 q 739 332 838 366 q 832 314 784 314 q 1007 386 935 314 q 1080 563 1080 459 m 874 643 q 807 815 874 743 q 628 893 735 893 q 533 875 579 893 l 541 872 q 657 796 607 847 q 756 561 756 697 q 723 419 756 486 q 788 459 760 436 q 874 643 874 533 m 1165 356 q 1146 451 1165 404 l 1144 443 q 1068 327 1119 377 q 833 228 969 228 q 690 261 757 228 q 730 196 707 223 q 915 110 805 110 q 1087 177 1015 110 q 1165 356 1165 248 m 670 561 q 598 737 670 665 q 423 809 526 809 q 247 737 320 809 q 193 655 212 701 q 338 689 262 689 q 531 627 445 689 q 652 467 617 565 q 670 561 670 512 m 1062 56 q 917 23 994 23 q 727 84 814 23 q 603 244 640 145 q 585 151 585 200 q 658 -23 585 48 q 834 -95 731 -95 q 1008 -23 936 -95 q 1062 56 1044 12 m 565 452 q 525 517 548 489 q 339 604 451 604 q 168 537 240 604 q 90 356 90 463 q 109 262 90 308 l 111 269 q 187 385 137 336 q 422 484 286 484 q 565 452 498 484 m 722 -162 l 714 -159 q 598 -83 649 -134 q 499 151 499 15 q 532 294 499 227 q 467 254 495 277 q 381 69 381 180 q 447 -102 381 -29 q 628 -180 519 -180 q 722 -162 675 -180 m 516 381 q 423 398 472 398 q 247 326 320 398 q 175 149 175 253 q 247 -23 175 48 q 328 -78 283 -59 q 294 67 294 -9 q 355 257 294 170 q 516 381 415 344 "},"―":{"x_min":68,"x_max":965,"ha":1038,"o":"m 68 329 l 68 429 l 965 429 l 965 329 l 68 329 "},"{":{"x_min":54,"x_max":431,"ha":451,"o":"m 54 414 q 119 430 93 414 q 161 479 145 445 q 182 568 176 513 q 189 699 189 622 q 192 820 189 766 q 216 913 196 874 q 277 972 235 951 q 394 994 319 994 l 431 994 l 431 889 l 397 889 q 336 876 356 889 q 307 836 315 863 q 299 767 299 809 q 299 665 299 724 q 291 539 299 590 q 266 452 283 487 q 223 396 249 418 q 162 360 197 374 q 223 323 197 344 q 266 266 249 301 q 291 180 283 231 q 299 54 299 128 q 299 -48 299 -5 q 307 -118 299 -90 q 336 -158 315 -145 q 397 -171 356 -171 l 431 -171 l 431 -276 l 394 -276 q 277 -254 319 -276 q 216 -194 235 -233 q 192 -101 196 -155 q 189 19 189 -46 q 182 151 189 96 q 161 239 176 205 q 119 289 145 273 q 54 304 93 304 l 54 414 "},"¼":{"x_min":91,"x_max":1061.75,"ha":1153,"o":"m 161 -15 l 889 1009 l 987 1009 l 259 -15 l 161 -15 m 922 0 l 922 107 l 697 107 l 697 177 q 806 343 742 262 q 940 498 870 424 l 1012 498 l 1012 188 l 1061 188 l 1061 107 l 1012 107 l 1012 0 l 922 0 m 922 188 l 922 364 q 850 277 884 322 q 792 188 817 232 l 922 188 m 253 496 l 164 496 l 164 917 l 91 917 l 91 994 l 253 994 l 253 496 "},"ι":{"x_min":92,"x_max":210,"ha":300,"o":"m 92 0 l 92 720 l 210 720 l 210 0 l 92 0 "},"Շ":{"x_min":55.734375,"x_max":854,"ha":895,"o":"m 148 877 l 111 877 l 111 994 l 148 994 q 291 982 220 994 q 438 944 362 970 q 534 908 491 925 q 615 875 576 892 q 692 839 653 858 q 776 798 730 821 l 776 663 q 688 705 731 685 q 602 743 644 725 q 499 739 550 745 q 401 715 448 732 q 314 669 354 698 q 246 600 274 641 q 201 506 217 560 q 188 384 185 452 q 202 274 189 327 q 246 181 215 222 q 327 117 276 141 q 457 94 379 94 q 582 115 530 94 q 664 173 633 137 q 710 259 696 210 q 724 362 724 308 l 724 392 l 854 392 l 854 372 q 829 221 854 292 q 756 98 805 151 q 632 15 707 46 q 457 -15 558 -15 q 279 16 354 -15 q 156 102 205 48 q 82 229 106 157 q 56 384 58 302 q 67 503 53 447 q 107 605 81 558 q 168 689 132 652 q 245 752 203 726 q 332 795 286 779 q 426 814 379 810 q 272 860 345 843 q 148 877 199 877 "},"Ê":{"x_min":102,"x_max":781,"ha":863,"o":"m 102 0 l 102 994 l 766 994 l 766 877 l 228 877 l 228 580 l 703 580 l 703 462 l 228 462 l 228 119 l 781 119 l 781 0 l 102 0 m 311 1269 l 438 1269 l 574 1085 l 455 1085 l 374 1207 l 294 1085 l 176 1085 l 311 1269 "},"Ά":{"x_min":0,"x_max":907,"ha":908,"o":"m 779 0 q 755 97 769 44 q 723 209 741 150 q 684 332 705 268 q 640 462 663 396 l 311 462 q 315 473 311 464 q 323 495 318 483 q 333 522 327 508 q 342 549 338 536 q 350 570 346 561 q 354 580 353 579 l 596 580 q 534 734 566 658 q 470 877 502 809 l 435 877 q 371 732 403 809 q 308 576 338 656 q 250 417 278 497 q 198 262 222 337 q 157 120 175 187 q 128 0 138 53 l 0 0 q 37 153 14 69 q 89 325 60 236 q 151 506 118 414 q 219 685 184 598 q 290 851 254 772 q 360 994 326 930 l 546 994 q 616 851 580 930 q 687 685 652 772 q 755 506 722 598 q 817 325 788 414 q 869 153 846 236 q 907 0 892 69 l 779 0 m 109 995 l 260 995 l 133 799 l 1 799 l 109 995 "},")":{"x_min":20.734375,"x_max":344,"ha":412,"o":"m 344 366 q 291 28 344 192 q 136 -276 238 -135 l 20 -276 q 93 -152 59 -220 q 155 -4 128 -84 q 196 167 181 75 q 212 366 212 260 q 196 562 212 471 q 155 729 181 652 q 93 872 128 806 q 20 994 59 937 l 136 994 q 291 696 238 853 q 344 366 344 539 "},"ײ":{"x_min":92,"x_max":509,"ha":600,"o":"m 509 720 l 509 294 l 392 294 l 392 720 l 509 720 m 209 720 l 209 294 l 92 294 l 92 720 l 209 720 "},"ε":{"x_min":47,"x_max":562,"ha":603,"o":"m 351 735 q 441 730 403 735 q 507 720 479 725 l 507 611 q 433 626 471 620 q 344 633 395 633 q 289 628 314 633 q 245 612 263 623 q 215 580 226 600 q 205 532 205 561 q 212 488 205 508 q 236 453 219 467 q 281 430 253 438 q 348 422 308 422 l 409 422 l 409 317 l 318 317 q 205 289 242 317 q 168 215 168 261 q 182 158 168 183 q 219 118 196 134 q 273 94 243 102 q 337 87 304 87 q 465 98 409 87 q 562 124 521 110 l 562 15 q 520 4 545 9 q 464 -5 494 -1 q 401 -12 434 -9 q 337 -15 368 -15 q 215 4 269 -15 q 124 54 162 23 q 67 128 87 86 q 47 215 47 170 q 54 265 47 240 q 75 313 61 291 q 111 354 89 335 q 162 386 132 373 q 129 411 143 396 q 104 445 114 426 q 89 485 94 464 q 84 527 84 506 q 98 607 84 570 q 146 673 113 645 q 228 718 178 701 q 351 735 279 735 "},"э":{"x_min":61,"x_max":582,"ha":650,"o":"m 144 422 l 458 422 q 435 518 452 478 q 391 583 418 558 q 325 621 363 609 q 238 633 286 633 q 141 627 185 633 q 61 612 97 622 l 61 720 q 145 730 104 726 q 238 735 186 735 q 392 709 327 735 q 499 634 457 683 q 561 516 541 586 q 582 360 582 447 q 495 76 582 168 q 231 -15 409 -15 q 183 -13 205 -15 q 141 -10 161 -12 q 102 -5 122 -8 q 61 1 82 -2 l 61 103 q 135 91 94 96 q 231 87 177 87 q 322 97 282 87 q 392 133 363 108 q 439 204 421 159 q 461 317 456 248 l 144 317 l 144 422 "},"ш":{"x_min":92,"x_max":941,"ha":1033,"o":"m 209 105 l 458 105 l 458 720 l 575 720 l 575 105 l 824 105 l 824 720 l 941 720 l 941 0 l 92 0 l 92 720 l 209 720 l 209 105 "},"Я":{"x_min":27.5625,"x_max":793,"ha":895,"o":"m 613 443 q 514 398 562 428 q 421 331 466 369 q 337 249 376 293 q 264 162 297 206 q 205 75 231 118 q 164 0 180 33 l 27 0 q 80 110 49 54 q 152 219 111 165 q 242 324 192 273 q 351 422 292 375 q 235 450 286 430 q 147 505 183 471 q 92 585 111 539 q 73 693 73 632 q 92 815 73 760 q 156 910 112 870 q 270 971 199 949 q 442 994 340 994 l 793 994 l 793 0 l 667 0 l 667 877 l 426 877 q 319 862 361 877 q 253 821 277 847 q 218 763 228 796 q 209 692 209 730 q 224 623 209 654 q 269 570 240 592 q 337 535 297 548 q 425 523 377 523 q 464 526 441 523 q 514 535 488 529 q 566 547 540 540 q 613 563 591 554 l 613 443 "},"a":{"x_min":47,"x_max":642,"ha":734,"o":"m 538 60 q 483 22 510 37 q 428 0 456 8 q 369 -11 399 -8 q 304 -15 338 -15 q 194 0 242 -15 q 113 43 146 15 q 63 111 80 71 q 47 199 47 151 q 68 299 47 255 q 127 372 89 342 q 218 419 166 403 q 332 435 270 435 l 525 435 l 525 496 q 513 553 525 527 q 479 596 502 578 q 419 623 455 614 q 332 633 382 633 q 278 631 303 633 q 232 627 254 630 q 190 620 210 624 q 148 610 169 616 l 148 715 q 190 723 169 719 q 233 729 211 726 q 279 733 255 732 q 332 735 303 735 q 472 718 414 735 q 569 669 531 701 q 624 595 606 638 q 642 499 642 551 l 642 0 l 538 0 l 538 60 m 525 333 l 332 333 q 256 322 288 333 q 205 294 225 312 q 177 253 186 276 q 168 205 168 230 q 179 151 168 173 q 212 114 191 128 q 263 93 234 100 q 326 87 292 87 q 443 104 396 87 q 525 164 490 121 l 525 333 "},"Ę":{"x_min":102,"x_max":781,"ha":863,"o":"m 102 0 l 102 994 l 766 994 l 766 877 l 228 877 l 228 580 l 703 580 l 703 462 l 228 462 l 228 119 l 781 119 l 781 0 l 102 0 m 442 15 l 526 15 q 511 -42 516 -15 q 507 -95 507 -70 q 532 -172 507 -146 q 600 -199 557 -199 q 654 -194 626 -199 q 714 -174 683 -190 l 714 -255 q 677 -271 696 -264 q 637 -281 657 -277 q 599 -287 618 -285 q 565 -290 580 -290 q 504 -279 531 -290 q 457 -249 477 -268 q 427 -201 438 -229 q 417 -140 417 -173 q 422 -72 417 -110 q 442 15 428 -33 "},"Z":{"x_min":61,"x_max":796,"ha":857,"o":"m 61 0 l 61 120 q 108 215 75 159 q 185 337 141 271 q 283 475 229 403 q 395 618 337 547 q 511 756 453 689 q 622 877 569 822 l 69 877 l 69 994 l 787 994 l 787 876 q 666 752 730 821 q 541 608 603 683 q 421 459 479 534 q 317 319 363 384 q 239 200 271 253 q 198 119 207 148 l 796 119 l 796 0 l 61 0 "},"Գ":{"x_min":54,"x_max":978,"ha":978,"o":"m 978 412 l 978 294 l 811 294 l 811 0 l 685 0 l 685 294 l 436 294 q 287 317 357 294 q 165 386 217 340 q 83 498 113 431 q 54 652 54 566 q 83 806 54 739 q 165 917 113 872 q 287 985 217 962 q 436 1009 357 1009 q 584 987 515 1009 q 703 922 652 965 q 782 814 754 878 q 811 664 811 749 l 811 412 l 978 412 m 186 652 q 204 541 186 586 q 257 466 223 495 q 336 424 291 437 q 436 412 382 412 l 685 412 l 685 670 q 666 772 685 729 q 615 844 648 815 q 536 886 581 872 q 436 900 491 900 q 336 886 382 900 q 257 842 291 872 q 204 765 223 811 q 186 652 186 718 "},"k":{"x_min":92,"x_max":664.421875,"ha":678,"o":"m 209 0 l 92 0 l 92 994 l 209 994 l 209 435 q 312 458 263 435 q 403 520 361 481 q 477 610 445 559 q 529 720 509 662 l 650 720 q 617 633 639 677 q 567 547 596 588 q 500 467 537 505 q 419 401 462 430 q 502 307 464 352 q 571 213 540 261 q 625 113 602 165 q 664 0 648 60 l 543 0 q 501 106 523 60 q 452 192 479 152 q 392 270 426 232 q 318 351 359 308 q 209 333 265 333 l 209 0 "},"":{"x_min":101.859375,"x_max":244,"ha":348,"o":"m 110 -243 l 110 -104 l 244 -104 l 244 -243 q 217 -325 244 -288 q 134 -389 191 -362 l 101 -337 q 156 -298 136 -323 q 176 -243 176 -273 l 110 -243 "},"Ù":{"x_min":102,"x_max":851,"ha":952,"o":"m 851 343 q 822 190 851 257 q 743 78 793 124 q 624 8 692 32 q 476 -15 555 -15 q 328 8 397 -15 q 209 78 260 32 q 130 190 159 124 q 102 343 102 257 l 102 994 l 228 994 l 228 336 q 246 232 228 277 q 297 156 264 186 q 376 109 331 125 q 476 94 422 94 q 576 109 530 94 q 655 156 621 125 q 706 232 688 186 q 725 336 725 277 l 725 994 l 851 994 l 851 343 m 604 1072 l 472 1072 l 346 1268 l 497 1268 l 604 1072 "},"լ":{"x_min":92,"x_max":395,"ha":301,"o":"m 395 -276 l 92 -276 l 92 720 l 209 720 l 209 -171 l 395 -171 l 395 -276 "},"Ղ":{"x_min":34,"x_max":950,"ha":956,"o":"m 34 650 q 62 802 34 736 q 141 915 91 869 q 260 984 192 960 q 408 1009 329 1009 q 556 984 487 1009 q 675 915 624 960 q 754 802 725 869 q 783 650 783 736 l 783 119 l 950 119 l 950 0 l 657 0 l 657 657 q 638 761 657 716 q 587 837 620 807 q 508 884 553 868 q 408 900 462 900 q 308 884 354 900 q 229 837 263 868 q 178 761 196 807 q 160 657 160 716 l 160 602 l 34 602 l 34 650 "},"Ů":{"x_min":102,"x_max":851,"ha":952,"o":"m 851 343 q 822 190 851 257 q 743 78 793 124 q 624 8 692 32 q 476 -15 555 -15 q 328 8 397 -15 q 209 78 260 32 q 130 190 159 124 q 102 343 102 257 l 102 994 l 228 994 l 228 336 q 246 232 228 277 q 297 156 264 186 q 376 109 331 125 q 476 94 422 94 q 576 109 530 94 q 655 156 621 125 q 706 232 688 186 q 725 336 725 277 l 725 994 l 851 994 l 851 343 m 354 1181 q 390 1267 354 1231 q 476 1303 426 1303 q 562 1266 526 1303 q 598 1179 598 1230 q 562 1090 598 1126 q 476 1055 526 1055 q 389 1091 425 1055 q 354 1181 354 1127 m 404 1180 q 425 1126 404 1148 q 476 1105 446 1105 q 526 1126 505 1105 q 548 1179 548 1148 q 526 1231 548 1209 q 476 1253 505 1253 q 425 1231 446 1253 q 404 1180 404 1210 "},"¢":{"x_min":61,"x_max":589.453125,"ha":603,"o":"m 261 -276 l 170 -276 l 244 12 q 147 76 187 35 q 61 360 61 168 q 83 516 61 447 q 149 634 105 586 q 257 709 192 683 q 405 735 321 735 q 431 734 418 735 l 498 994 l 589 994 l 519 724 q 583 708 552 718 l 583 605 q 502 624 546 617 l 494 626 l 355 90 q 412 87 381 87 q 507 95 466 87 q 583 114 548 103 l 583 11 q 505 -7 551 0 q 412 -15 460 -15 q 329 -8 368 -15 l 261 -276 m 182 360 q 197 225 182 278 q 242 141 213 173 q 271 118 255 128 l 404 633 q 314 618 356 633 q 243 570 273 603 q 198 486 214 538 q 182 360 182 433 "},"ჳ":{"x_min":92,"x_max":650.859375,"ha":713,"o":"m 312 -188 q 395 -179 356 -188 q 465 -149 435 -171 q 512 -88 494 -127 q 529 11 529 -49 q 512 111 529 72 q 467 172 494 150 q 407 202 440 194 q 344 211 374 211 l 319 211 l 319 314 l 342 314 q 406 323 377 314 q 456 352 435 332 q 490 403 478 372 q 502 476 502 434 l 502 615 l 209 615 l 209 496 l 92 496 l 92 720 l 622 720 l 622 476 q 612 397 622 431 q 585 337 602 362 q 548 294 569 311 q 506 265 528 276 q 561 237 534 257 q 607 184 587 216 q 638 108 627 151 q 650 12 650 64 q 623 -127 650 -69 q 550 -220 596 -184 q 442 -273 504 -256 q 312 -290 381 -290 q 205 -281 259 -290 q 107 -259 152 -272 l 107 -154 q 148 -166 124 -160 q 199 -177 172 -172 q 256 -184 227 -181 q 312 -188 285 -188 "},"В":{"x_min":102,"x_max":850,"ha":918,"o":"m 102 994 q 197 996 150 994 q 290 1001 244 998 q 383 1006 336 1004 q 477 1009 429 1009 q 727 936 645 1009 q 810 728 810 863 q 777 610 810 661 q 681 531 745 559 q 808 433 767 498 q 850 284 850 369 q 822 158 850 212 q 744 69 794 105 q 627 17 695 34 q 481 0 560 0 l 102 0 l 102 994 m 481 119 q 657 158 595 119 q 720 284 720 197 q 657 418 720 374 q 480 462 595 462 l 282 462 l 282 580 l 481 580 q 564 588 526 580 q 626 614 601 596 q 666 660 652 632 q 680 727 680 688 q 665 804 680 773 q 624 857 650 836 q 560 886 597 877 q 477 894 522 894 q 387 891 425 893 q 320 887 349 889 q 269 884 291 885 q 228 883 247 883 l 228 119 l 481 119 "},"І":{"x_min":102,"x_max":228,"ha":330,"o":"m 102 0 l 102 994 l 228 994 l 228 0 l 102 0 "},"ē":{"x_min":62,"x_max":712,"ha":773,"o":"m 671 23 q 611 7 640 14 q 551 -4 581 0 q 486 -12 520 -9 q 414 -15 453 -15 q 254 10 320 -15 q 144 82 187 35 q 81 198 101 130 q 62 353 62 267 q 83 513 62 443 q 147 633 105 584 q 249 708 188 682 q 387 735 309 735 q 528 708 467 735 q 629 634 589 682 q 691 516 670 585 q 712 360 712 447 l 712 333 l 185 333 q 239 147 185 207 q 414 87 294 87 q 487 89 454 87 q 549 96 520 91 q 607 110 578 101 q 671 129 636 118 l 671 23 m 587 435 q 526 583 576 534 q 387 633 475 633 q 311 620 346 633 q 251 582 277 607 q 209 520 225 557 q 187 435 192 483 l 587 435 m 174 839 l 174 939 l 597 939 l 597 839 l 174 839 "},"β":{"x_min":92,"x_max":712,"ha":772,"o":"m 92 751 q 112 871 92 821 q 167 950 132 920 q 246 995 201 981 q 341 1009 291 1009 q 445 991 401 1009 q 518 946 489 974 q 562 884 547 918 q 577 815 577 849 q 564 745 577 775 q 535 695 552 715 q 497 663 517 675 q 462 649 477 652 q 513 637 485 645 q 569 613 541 628 q 622 575 597 598 q 668 519 648 552 q 700 442 688 486 q 712 339 712 397 q 687 186 712 252 q 620 75 663 120 q 518 7 577 30 q 390 -15 460 -15 q 357 -13 377 -15 q 314 -6 337 -11 q 263 8 290 -1 q 209 35 236 18 l 209 -276 l 92 -276 l 92 751 m 393 87 q 472 102 436 87 q 535 148 508 117 q 576 226 561 179 q 591 339 591 274 q 576 440 591 396 q 530 514 561 484 q 448 559 498 543 q 327 575 398 575 l 327 680 q 379 687 355 680 q 421 711 403 695 q 448 751 438 727 q 459 809 459 776 q 449 852 459 833 q 424 886 439 872 q 386 907 408 900 q 341 915 365 915 q 294 908 318 915 q 251 886 270 902 q 220 845 232 870 q 209 780 209 819 l 209 152 q 263 114 235 127 q 316 95 291 101 q 362 88 341 89 q 393 87 382 87 "},"¥":{"x_min":-9.453125,"x_max":884.59375,"ha":867,"o":"m 369 0 l 369 151 l 155 151 l 155 245 l 369 245 l 369 319 l 155 319 l 155 413 l 369 413 l 369 444 q 250 586 307 514 q 143 728 193 658 q 54 865 94 798 q -9 994 15 933 l 125 994 q 179 892 146 945 q 253 781 212 838 q 341 666 294 724 q 437 550 388 607 q 533 666 486 607 q 620 781 579 724 q 694 892 661 838 q 749 994 727 945 l 884 994 q 819 864 858 931 q 729 726 779 796 q 620 585 679 656 q 498 444 561 513 l 498 413 l 697 413 l 697 319 l 498 319 l 498 245 l 697 245 l 697 151 l 498 151 l 498 0 l 369 0 "},"U":{"x_min":102,"x_max":851,"ha":952,"o":"m 851 343 q 822 190 851 257 q 743 78 793 124 q 624 8 692 32 q 476 -15 555 -15 q 328 8 397 -15 q 209 78 260 32 q 130 190 159 124 q 102 343 102 257 l 102 994 l 228 994 l 228 336 q 246 232 228 277 q 297 156 264 186 q 376 109 331 125 q 476 94 422 94 q 576 109 530 94 q 655 156 621 125 q 706 232 688 186 q 725 336 725 277 l 725 994 l 851 994 l 851 343 "},"ץ":{"x_min":66,"x_max":641,"ha":709,"o":"m 183 720 l 183 351 l 444 351 q 473 357 459 351 q 499 375 488 363 q 517 408 510 388 q 524 456 524 428 l 524 720 l 641 720 l 641 456 q 629 369 641 408 q 591 303 617 330 q 522 260 565 275 q 417 246 479 246 l 183 246 l 183 -276 l 66 -276 l 66 720 l 183 720 "},"Ձ":{"x_min":68,"x_max":856,"ha":937,"o":"m 461 900 q 335 878 386 900 q 253 820 284 856 q 207 734 221 783 q 194 631 194 685 l 194 602 l 68 602 l 68 621 q 91 772 68 701 q 163 895 115 842 q 286 978 212 947 q 461 1009 360 1009 q 639 977 564 1009 q 761 890 713 945 q 832 763 809 836 q 856 608 856 690 q 821 396 856 495 q 727 216 786 296 q 786 170 757 194 q 842 123 815 147 l 842 -34 q 745 49 794 8 q 645 126 695 90 q 482 22 571 59 q 298 -15 393 -15 q 213 -2 254 -15 q 139 33 171 9 q 87 95 107 58 q 68 183 68 132 q 87 270 68 233 q 137 332 106 307 q 211 369 169 356 q 298 382 253 381 q 469 354 387 382 q 629 281 552 326 q 703 432 676 347 q 730 617 730 516 q 660 829 730 758 q 461 900 590 900 m 298 274 q 259 267 278 272 q 226 250 240 261 q 202 222 211 239 q 194 183 194 206 q 203 143 194 160 q 228 115 213 126 q 261 99 243 104 q 298 94 280 94 q 428 118 364 94 q 547 190 492 143 q 415 253 478 231 q 298 274 351 276 "},"Ñ":{"x_min":102,"x_max":868,"ha":969,"o":"m 102 0 l 102 994 l 236 994 q 310 927 269 968 q 396 833 351 886 q 486 720 440 781 q 575 594 532 659 q 656 464 619 530 q 722 338 694 399 q 733 309 726 330 q 744 262 740 288 q 742 309 742 288 q 742 341 742 331 l 742 994 l 868 994 l 868 0 l 744 0 q 668 185 712 93 q 576 362 625 277 q 477 524 528 448 q 379 662 426 600 q 293 769 332 724 q 228 838 253 814 l 228 0 l 102 0 m 255 1199 q 382 1259 302 1259 q 443 1248 413 1259 q 501 1225 473 1238 q 556 1202 530 1212 q 605 1192 583 1192 q 666 1211 634 1192 q 725 1260 698 1230 l 725 1163 q 666 1120 696 1134 q 598 1107 636 1107 q 542 1117 571 1107 q 484 1140 513 1127 q 427 1163 455 1153 q 375 1174 399 1174 q 346 1170 359 1174 q 319 1160 333 1167 q 290 1139 305 1153 q 255 1105 275 1126 l 255 1199 "},"F":{"x_min":102,"x_max":766,"ha":800,"o":"m 102 0 l 102 994 l 766 994 l 766 877 l 228 877 l 228 580 l 703 580 l 703 462 l 228 462 l 228 0 l 102 0 "},"ჩ":{"x_min":92,"x_max":684,"ha":751,"o":"m 684 343 q 680 273 684 315 q 671 185 677 232 q 654 90 664 138 q 630 0 644 42 l 506 0 q 530 86 519 39 q 548 179 540 132 q 559 269 555 226 q 563 343 563 311 q 550 475 563 423 q 513 560 537 528 q 455 605 489 591 q 376 618 420 618 q 328 613 352 618 q 281 599 303 608 q 240 575 259 589 q 209 541 221 560 l 209 0 l 92 0 l 92 843 q 105 913 92 882 q 142 965 118 944 q 200 997 166 986 q 273 1009 233 1009 q 345 998 312 1009 q 403 966 378 987 q 441 913 427 945 q 456 841 456 882 q 445 772 456 805 q 413 713 435 738 q 505 697 465 713 q 575 654 545 681 q 626 591 605 627 q 659 514 646 555 q 678 429 672 473 q 684 343 684 385 m 352 827 q 331 892 352 873 q 279 912 310 912 q 228 893 248 912 q 209 847 209 874 l 209 654 q 264 680 238 664 q 309 718 290 696 q 340 768 329 740 q 352 827 352 795 "},"ϑ":{"x_min":70,"x_max":763.125,"ha":746,"o":"m 763 422 l 763 324 l 669 324 q 637 171 659 235 q 578 65 615 107 q 489 4 542 24 q 367 -15 437 -15 q 274 -2 312 -15 q 212 29 237 10 q 170 72 187 48 q 141 119 154 96 q 113 162 127 143 q 80 192 100 181 l 80 326 q 142 289 118 312 q 185 239 167 265 q 217 185 202 212 q 252 135 232 157 q 298 98 271 112 q 367 85 325 85 q 447 96 414 85 q 502 137 480 108 q 535 210 524 165 q 553 324 547 256 l 368 324 q 227 352 284 324 q 136 426 170 380 q 85 528 101 472 q 70 641 70 585 q 85 777 70 711 q 135 895 100 843 q 227 977 170 946 q 368 1009 284 1009 q 511 978 452 1009 q 607 883 569 947 q 661 724 644 820 q 678 497 678 628 q 678 458 678 478 q 677 422 677 439 l 763 422 m 558 497 q 551 687 558 609 q 523 814 544 765 q 466 886 503 864 q 368 909 428 909 q 272 885 308 909 q 218 824 236 862 q 193 740 199 787 q 188 646 188 693 q 201 540 188 583 q 239 471 215 497 q 296 433 263 445 q 368 422 329 422 l 558 422 q 558 458 558 439 q 558 497 558 476 "},"Ќ":{"x_min":102,"x_max":846,"ha":900,"o":"m 102 0 l 102 994 l 228 994 l 228 580 l 240 580 q 303 589 267 580 q 380 620 339 599 q 464 674 421 641 q 546 753 506 707 q 620 859 586 799 q 677 994 653 919 l 810 994 q 749 844 785 912 q 669 719 713 775 q 577 620 626 664 q 479 545 528 576 q 560 460 519 505 q 640 368 601 415 q 712 272 678 320 q 774 176 746 223 q 819 84 801 128 q 846 0 838 39 l 714 0 q 667 109 700 48 q 589 235 635 170 q 485 365 542 300 q 365 487 428 430 q 240 462 294 462 l 228 462 l 228 0 l 102 0 m 415 1268 l 566 1268 l 439 1072 l 307 1072 l 415 1268 "},"å":{"x_min":54,"x_max":649,"ha":741,"o":"m 545 60 q 490 22 517 37 q 435 0 463 8 q 376 -11 406 -8 q 311 -15 345 -15 q 201 0 249 -15 q 120 43 153 15 q 70 111 87 71 q 54 199 54 151 q 75 299 54 255 q 134 372 96 342 q 225 419 173 403 q 339 435 277 435 l 532 435 l 532 496 q 520 553 532 527 q 486 596 509 578 q 426 623 462 614 q 339 633 389 633 q 285 631 310 633 q 239 627 261 630 q 197 620 217 624 q 155 610 176 616 l 155 715 q 197 723 176 719 q 240 729 218 726 q 286 733 262 732 q 339 735 310 735 q 479 718 421 735 q 576 669 538 701 q 631 595 613 638 q 649 499 649 551 l 649 0 l 545 0 l 545 60 m 532 333 l 339 333 q 263 322 295 333 q 212 294 232 312 q 184 253 193 276 q 175 205 175 230 q 186 151 175 173 q 219 114 198 128 q 270 93 241 100 q 333 87 299 87 q 450 104 403 87 q 532 164 497 121 l 532 333 m 243 907 q 279 993 243 957 q 365 1029 315 1029 q 451 992 415 1029 q 487 905 487 956 q 451 816 487 852 q 365 781 415 781 q 278 817 314 781 q 243 907 243 853 m 293 906 q 314 852 293 874 q 365 831 335 831 q 415 852 394 831 q 437 905 437 874 q 415 957 437 935 q 365 979 394 979 q 314 957 335 979 q 293 906 293 936 "},"Ϋ":{"x_min":0,"x_max":893.890625,"ha":894,"o":"m 378 0 l 378 444 q 259 585 317 513 q 153 727 202 657 q 64 865 104 798 q 0 994 24 932 l 138 994 q 189 891 158 945 q 261 781 221 837 q 347 665 300 724 q 446 549 393 606 q 545 665 498 606 q 632 781 592 724 q 703 891 672 837 q 755 994 734 945 l 893 994 q 828 863 868 931 q 736 723 787 795 q 627 578 686 651 q 507 434 568 505 l 507 0 l 378 0 m 270 1134 l 270 1268 l 393 1268 l 393 1134 l 270 1134 m 492 1134 l 492 1268 l 615 1268 l 615 1134 l 492 1134 "},"0":{"x_min":76,"x_max":757,"ha":834,"o":"m 76 489 q 80 610 76 548 q 99 729 85 671 q 136 838 112 787 q 197 926 159 888 q 288 986 235 964 q 415 1009 342 1009 q 543 986 489 1009 q 634 925 596 963 q 696 835 672 886 q 733 726 720 783 q 752 607 747 668 q 757 489 757 546 q 752 372 757 431 q 733 256 747 313 q 696 151 720 200 q 634 64 672 101 q 543 6 596 27 q 415 -15 489 -15 q 288 5 342 -15 q 197 62 235 26 q 136 147 159 98 q 99 252 112 196 q 80 369 85 308 q 76 489 76 429 m 201 489 q 203 396 201 444 q 213 304 205 349 q 235 220 221 259 q 274 151 250 180 q 332 104 298 121 q 415 87 367 87 q 498 104 463 87 q 557 151 533 121 q 596 220 581 180 q 618 304 610 259 q 629 396 626 349 q 632 489 632 444 q 629 583 632 534 q 618 678 626 631 q 596 766 610 724 q 557 838 581 807 q 498 888 533 870 q 414 907 463 907 q 331 888 365 907 q 272 838 296 870 q 234 766 249 807 q 213 678 220 724 q 203 583 205 631 q 201 489 201 534 "},"ō":{"x_min":61,"x_max":709,"ha":770,"o":"m 61 360 q 78 506 61 437 q 134 625 95 574 q 234 705 172 676 q 385 735 296 735 q 534 705 473 735 q 635 625 596 676 q 691 506 673 574 q 709 360 709 437 q 691 213 709 282 q 635 94 673 145 q 534 14 596 44 q 385 -15 473 -15 q 234 14 296 -15 q 134 94 172 44 q 78 213 95 145 q 61 360 61 282 m 182 360 q 193 244 182 294 q 229 158 205 193 q 292 105 253 123 q 385 87 330 87 q 477 105 439 87 q 540 158 516 123 q 576 244 565 193 q 588 360 588 294 q 576 475 588 425 q 540 561 565 526 q 477 614 516 596 q 385 633 439 633 q 292 614 330 633 q 229 561 253 596 q 193 475 205 526 q 182 360 182 425 m 170 839 l 170 939 l 593 939 l 593 839 l 170 839 "},"”":{"x_min":91.859375,"x_max":471.375,"ha":562,"o":"m 100 855 l 100 994 l 234 994 l 234 855 q 208 738 234 786 q 124 658 180 684 l 91 710 q 148 760 129 727 q 166 855 166 793 l 100 855 m 337 855 l 337 994 l 471 994 l 471 855 q 446 738 471 786 q 361 658 418 684 l 329 710 q 385 760 367 727 q 404 855 404 793 l 337 855 "},"ö":{"x_min":61,"x_max":709,"ha":770,"o":"m 61 360 q 78 506 61 437 q 134 625 95 574 q 234 705 172 676 q 385 735 296 735 q 534 705 473 735 q 635 625 596 676 q 691 506 673 574 q 709 360 709 437 q 691 213 709 282 q 635 94 673 145 q 534 14 596 44 q 385 -15 473 -15 q 234 14 296 -15 q 134 94 172 44 q 78 213 95 145 q 61 360 61 282 m 182 360 q 193 244 182 294 q 229 158 205 193 q 292 105 253 123 q 385 87 330 87 q 477 105 439 87 q 540 158 516 123 q 576 244 565 193 q 588 360 588 294 q 576 475 588 425 q 540 561 565 526 q 477 614 516 596 q 385 633 439 633 q 292 614 330 633 q 229 561 253 596 q 193 475 205 526 q 182 360 182 425 m 212 860 l 212 994 l 335 994 l 335 860 l 212 860 m 434 860 l 434 994 l 557 994 l 557 860 l 434 860 "},"ć":{"x_min":61,"x_max":583,"ha":604,"o":"m 182 360 q 197 225 182 278 q 242 142 213 173 q 315 99 272 111 q 412 87 358 87 q 507 95 466 87 q 583 114 548 103 l 583 11 q 505 -7 551 0 q 412 -15 460 -15 q 147 76 234 -15 q 61 360 61 168 q 83 516 61 447 q 149 634 105 586 q 256 709 192 683 q 405 735 321 735 q 499 728 456 735 q 583 708 542 721 l 583 605 q 502 625 546 617 q 405 633 458 633 q 314 618 356 633 q 243 570 273 603 q 198 486 214 538 q 182 360 182 433 m 406 994 l 557 994 l 430 798 l 298 798 l 406 994 "},"þ":{"x_min":92,"x_max":711.5,"ha":732,"o":"m 209 994 l 209 670 q 291 718 243 702 q 396 735 339 735 q 513 715 457 735 q 614 652 570 695 q 685 539 658 608 q 711 372 711 470 q 694 230 711 290 q 650 127 678 170 q 585 56 621 84 q 507 13 548 29 q 423 -8 466 -2 q 343 -15 381 -15 q 268 -9 302 -15 q 209 1 234 -4 l 209 -276 l 92 -276 l 92 994 l 209 994 m 209 110 q 264 94 230 101 q 346 87 299 87 q 401 90 372 87 q 457 103 429 93 q 508 133 484 114 q 550 183 532 152 q 579 260 568 215 q 590 368 590 305 q 573 498 590 447 q 528 580 557 549 q 461 622 499 610 q 379 634 422 634 q 319 625 346 634 q 271 604 292 617 q 234 575 249 591 q 209 542 218 559 l 209 110 "},"]":{"x_min":20.25,"x_max":280,"ha":382,"o":"m 280 -276 l 20 -276 l 20 -175 l 162 -175 l 162 893 l 20 893 l 20 994 l 280 994 l 280 -276 "},"ց":{"x_min":61,"x_max":681,"ha":773,"o":"m 564 48 q 529 24 547 35 q 488 3 511 12 q 438 -9 466 -4 q 375 -15 410 -15 q 260 4 316 -15 q 159 67 203 23 q 88 179 115 110 q 61 347 61 248 q 74 475 61 419 q 113 575 88 532 q 172 648 138 618 q 247 698 207 678 q 334 726 288 717 q 429 735 380 735 q 489 732 456 735 q 554 723 521 729 q 619 709 587 718 q 681 688 652 700 l 681 16 q 656 -120 681 -62 q 587 -216 632 -178 q 479 -272 542 -254 q 340 -290 416 -290 q 263 -284 304 -290 q 186 -270 221 -279 l 186 -165 q 218 -173 200 -170 q 255 -179 236 -177 q 294 -183 274 -182 q 332 -185 314 -185 q 426 -175 384 -185 q 500 -143 469 -166 q 547 -83 530 -120 q 564 10 564 -46 l 564 48 m 564 608 q 504 626 538 620 q 426 633 470 633 q 320 616 365 633 q 243 566 274 600 q 197 478 213 532 q 182 351 182 425 q 196 227 182 277 q 239 145 211 176 q 305 99 266 113 q 393 86 344 86 q 454 94 426 86 q 503 115 482 102 q 540 145 525 128 q 564 178 555 161 l 564 608 "},"А":{"x_min":0,"x_max":907,"ha":908,"o":"m 779 0 q 755 97 769 44 q 723 209 741 150 q 684 332 705 268 q 640 462 663 396 l 311 462 q 315 473 311 464 q 323 495 318 483 q 333 522 327 508 q 342 549 338 536 q 350 570 346 561 q 354 580 353 579 l 596 580 q 534 734 566 658 q 470 877 502 809 l 435 877 q 371 732 403 809 q 308 576 338 656 q 250 417 278 497 q 198 262 222 337 q 157 120 175 187 q 128 0 138 53 l 0 0 q 37 153 14 69 q 89 325 60 236 q 151 506 118 414 q 219 685 184 598 q 290 851 254 772 q 360 994 326 930 l 546 994 q 616 851 580 930 q 687 685 652 772 q 755 506 722 598 q 817 325 788 414 q 869 153 846 236 q 907 0 892 69 l 779 0 "},"ט":{"x_min":92,"x_max":740,"ha":794,"o":"m 446 633 q 422 631 436 633 q 393 627 409 630 q 361 620 377 624 q 329 610 344 616 l 329 715 q 360 723 343 720 q 392 729 377 727 q 422 733 408 732 q 447 735 436 735 q 589 707 532 735 q 678 629 645 679 q 726 511 712 580 q 740 360 740 442 q 722 213 740 282 q 666 94 704 145 q 565 14 627 44 q 416 -15 504 -15 q 265 14 327 -15 q 165 94 203 43 q 109 213 126 145 q 92 359 92 281 l 92 720 l 209 720 l 209 360 q 221 244 209 295 q 258 158 233 193 q 323 105 284 123 q 416 87 361 87 q 508 105 470 87 q 571 158 547 123 q 607 244 596 193 q 619 360 619 294 q 609 475 619 425 q 579 561 600 526 q 526 614 558 596 q 446 633 493 633 "},"ի":{"x_min":92,"x_max":652,"ha":744,"o":"m 92 994 l 209 994 l 209 669 q 240 690 223 680 q 288 714 262 705 q 345 729 314 724 q 412 735 375 735 q 589 673 527 735 q 652 497 652 612 l 652 0 l 535 0 l 535 476 q 528 544 535 515 q 504 593 521 574 q 457 623 486 613 q 384 633 428 633 q 318 625 346 633 q 268 607 289 618 q 232 582 246 596 q 209 555 217 568 l 209 -276 l 92 -276 l 92 994 "},"Ո":{"x_min":102,"x_max":851,"ha":953,"o":"m 851 0 l 725 0 l 725 657 q 706 761 725 716 q 655 837 688 807 q 576 884 621 868 q 476 900 530 900 q 376 884 422 900 q 297 837 331 868 q 246 761 264 807 q 228 657 228 716 l 228 0 l 102 0 l 102 650 q 130 803 102 736 q 209 915 159 869 q 328 985 260 961 q 476 1009 397 1009 q 624 985 555 1009 q 743 915 692 961 q 822 803 793 869 q 851 650 851 736 l 851 0 "},"Ы":{"x_min":102,"x_max":1030,"ha":1132,"o":"m 282 577 q 370 599 327 591 q 465 608 412 608 q 600 588 538 608 q 708 529 662 568 q 779 434 753 490 q 805 305 805 378 q 783 182 805 238 q 716 85 761 126 q 603 22 672 44 q 440 0 534 0 l 102 0 l 102 994 l 228 994 l 228 119 l 450 119 q 554 132 512 119 q 621 170 596 145 q 658 230 647 195 q 669 309 669 265 q 654 390 669 356 q 611 447 639 425 q 544 481 583 470 q 457 493 505 493 q 367 480 410 493 q 282 452 324 468 l 282 577 m 904 0 l 904 994 l 1030 994 l 1030 0 l 904 0 "},"8":{"x_min":73,"x_max":761,"ha":834,"o":"m 73 286 q 116 448 73 385 q 235 541 160 511 q 140 623 174 571 q 106 749 106 676 q 131 860 106 811 q 198 941 156 908 q 296 991 241 974 q 415 1009 352 1009 q 534 991 478 1009 q 632 941 590 974 q 700 860 675 908 q 724 749 724 811 q 691 623 724 676 q 600 540 657 570 q 661 503 632 526 q 712 449 690 480 q 748 376 735 417 q 761 286 761 336 q 733 152 761 208 q 658 58 705 95 q 548 2 611 20 q 416 -15 486 -15 q 284 2 346 -15 q 175 58 222 20 q 100 152 127 95 q 73 286 73 208 m 193 285 q 208 194 193 232 q 254 133 224 156 q 325 98 283 109 q 416 87 366 87 q 507 98 466 87 q 578 133 549 109 q 624 194 608 156 q 640 285 640 232 q 623 376 640 338 q 576 438 606 414 q 505 473 546 462 q 416 485 464 485 q 330 473 371 485 q 259 438 289 462 q 210 376 228 414 q 193 285 193 338 m 226 750 q 240 678 226 709 q 278 627 253 647 q 338 596 302 606 q 416 587 373 587 q 495 596 460 587 q 555 627 530 606 q 593 678 580 647 q 606 750 606 709 q 593 821 606 791 q 555 870 580 851 q 495 898 530 889 q 416 907 460 907 q 338 898 373 907 q 278 870 302 889 q 240 821 253 851 q 226 750 226 791 "},"R":{"x_min":102,"x_max":867,"ha":935,"o":"m 282 576 q 328 560 303 567 q 380 548 354 553 q 430 539 406 542 q 469 536 453 536 q 563 547 523 536 q 630 579 603 559 q 670 631 656 600 q 686 699 684 661 q 677 770 687 736 q 643 832 668 805 q 576 877 618 860 q 468 894 533 894 q 401 892 432 894 q 342 889 370 891 q 285 886 313 888 q 228 885 257 885 l 228 0 l 102 0 l 102 994 q 202 996 153 994 q 295 1001 251 998 q 379 1006 340 1004 q 452 1009 419 1009 q 625 985 554 1009 q 740 921 695 962 q 804 823 784 880 q 822 699 823 766 q 744 514 818 579 q 542 435 671 448 q 651 334 601 387 q 741 224 701 280 q 813 111 782 168 q 867 0 844 54 l 730 0 q 688 76 713 33 q 630 165 662 119 q 557 256 597 210 q 473 340 517 301 q 380 410 428 380 q 282 456 332 441 l 282 576 "},"":{"x_min":61,"x_max":628,"ha":676,"o":"m 265 -187 q 357 -178 314 -187 q 432 -149 400 -170 q 484 -88 465 -127 q 503 11 503 -49 q 483 111 503 72 q 433 172 463 150 q 368 202 403 194 q 303 211 333 211 l 272 211 l 272 314 l 301 314 q 366 323 336 314 q 419 352 397 332 q 454 403 441 372 q 467 476 467 433 q 454 549 467 519 q 417 597 441 578 q 361 624 393 616 q 290 633 328 633 q 236 630 263 633 q 183 625 209 628 q 133 616 157 621 q 92 605 110 611 l 92 713 q 186 729 136 724 q 289 735 237 735 q 405 717 350 735 q 499 666 459 699 q 563 585 539 633 q 587 476 587 537 q 577 397 587 431 q 551 337 567 362 q 514 294 535 311 q 472 265 493 276 q 528 237 500 257 q 578 184 556 216 q 614 108 600 151 q 628 12 628 65 q 598 -126 628 -69 q 519 -220 569 -183 q 404 -272 470 -256 q 265 -289 338 -289 q 158 -280 212 -289 q 61 -259 105 -272 l 61 -153 q 101 -165 77 -159 q 152 -176 125 -172 q 209 -183 180 -180 q 265 -187 238 -187 "},"Ż":{"x_min":61,"x_max":796,"ha":857,"o":"m 61 0 l 61 120 q 108 215 75 159 q 185 337 141 271 q 283 475 229 403 q 395 618 337 547 q 511 756 453 689 q 622 877 569 822 l 69 877 l 69 994 l 787 994 l 787 876 q 666 752 730 821 q 541 608 603 683 q 421 459 479 534 q 317 319 363 384 q 239 200 271 253 q 198 119 207 148 l 796 119 l 796 0 l 61 0 m 356 1117 l 356 1268 l 507 1268 l 507 1117 l 356 1117 "},"õ":{"x_min":61,"x_max":709,"ha":770,"o":"m 61 360 q 78 506 61 437 q 134 625 95 574 q 234 705 172 676 q 385 735 296 735 q 534 705 473 735 q 635 625 596 676 q 691 506 673 574 q 709 360 709 437 q 691 213 709 282 q 635 94 673 145 q 534 14 596 44 q 385 -15 473 -15 q 234 14 296 -15 q 134 94 172 44 q 78 213 95 145 q 61 360 61 282 m 182 360 q 193 244 182 294 q 229 158 205 193 q 292 105 253 123 q 385 87 330 87 q 477 105 439 87 q 540 158 516 123 q 576 244 565 193 q 588 360 588 294 q 576 475 588 425 q 540 561 565 526 q 477 614 516 596 q 385 633 439 633 q 292 614 330 633 q 229 561 253 596 q 193 475 205 526 q 182 360 182 425 m 150 925 q 277 985 197 985 q 338 974 308 985 q 396 951 368 964 q 451 928 425 938 q 500 918 478 918 q 561 937 529 918 q 620 986 593 956 l 620 889 q 561 846 591 860 q 493 833 531 833 q 437 843 466 833 q 379 866 408 853 q 322 889 350 879 q 270 900 294 900 q 241 896 254 900 q 214 886 228 893 q 185 865 200 879 q 150 831 170 852 l 150 925 "},"Հ":{"x_min":34,"x_max":707,"ha":802,"o":"m 707 0 l 581 0 l 581 274 q 568 344 581 311 q 527 404 555 378 q 457 446 500 430 q 354 462 414 462 l 34 462 l 34 580 l 355 580 q 448 590 410 580 q 511 621 486 601 q 546 669 535 641 q 558 732 558 697 q 546 793 558 766 q 511 838 535 820 q 448 866 486 857 q 355 876 410 876 l 140 876 l 140 994 l 355 994 q 496 975 434 994 q 601 922 558 956 q 667 839 644 887 q 690 732 690 791 q 679 661 690 693 q 650 604 669 630 q 604 559 631 579 q 544 526 578 539 q 619 481 588 508 q 670 422 650 454 q 698 356 690 391 q 707 289 707 322 l 707 0 "},"ֹ":{"x_min":179,"x_max":296,"ha":475,"o":"m 179 834 l 179 939 l 296 939 l 296 834 l 179 834 "},"ჯ":{"x_min":33.328125,"x_max":986.71875,"ha":1007,"o":"m 952 599 q 882 502 924 549 q 790 411 841 455 q 682 326 739 368 q 563 245 624 285 q 625 129 594 186 q 687 19 656 72 q 748 -80 718 -33 q 810 -164 779 -126 q 831 -181 819 -175 q 851 -188 842 -186 q 921 -182 890 -191 q 986 -155 952 -173 l 986 -258 q 917 -282 950 -275 q 847 -290 884 -290 q 773 -273 809 -290 q 707 -218 737 -256 q 647 -131 677 -178 q 587 -33 616 -85 q 527 72 557 17 q 467 183 497 127 q 346 104 405 143 q 232 26 286 66 q 288 -53 270 -11 q 306 -134 306 -95 q 294 -195 306 -166 q 259 -244 282 -223 q 204 -277 237 -265 q 131 -290 172 -290 q 103 -288 115 -290 q 79 -284 90 -287 q 57 -279 68 -282 q 34 -273 46 -276 l 34 -168 q 84 -188 59 -180 q 129 -197 109 -197 q 179 -178 159 -196 q 199 -129 199 -160 q 189 -82 199 -104 q 163 -39 180 -60 q 125 2 146 -18 q 78 45 103 22 q 242 165 155 108 q 416 279 329 223 q 312 461 363 375 q 210 609 261 546 q 189 626 200 620 q 168 633 177 633 q 98 625 129 633 q 33 600 67 618 l 33 703 q 102 727 69 720 q 172 735 135 735 q 246 718 210 735 q 312 663 282 701 q 413 514 363 597 q 511 341 462 431 q 616 413 566 377 q 710 485 667 448 q 787 558 753 521 q 844 634 822 595 q 861 668 854 650 q 868 704 868 687 q 868 712 868 708 q 866 720 868 717 l 981 720 q 984 699 984 710 q 980 670 984 685 q 973 643 977 656 q 962 618 968 630 q 952 599 957 607 "},"˙":{"x_min":152,"x_max":303,"ha":447,"o":"m 152 843 l 152 994 l 303 994 l 303 843 l 152 843 "},"ê":{"x_min":62,"x_max":712,"ha":773,"o":"m 671 23 q 611 7 640 14 q 551 -4 581 0 q 486 -12 520 -9 q 414 -15 453 -15 q 254 10 320 -15 q 144 82 187 35 q 81 198 101 130 q 62 353 62 267 q 83 513 62 443 q 147 633 105 584 q 249 708 188 682 q 387 735 309 735 q 528 708 467 735 q 629 634 589 682 q 691 516 670 585 q 712 360 712 447 l 712 333 l 185 333 q 239 147 185 207 q 414 87 294 87 q 487 89 454 87 q 549 96 520 91 q 607 110 578 101 q 671 129 636 118 l 671 23 m 587 435 q 526 583 576 534 q 387 633 475 633 q 311 620 346 633 q 251 582 277 607 q 209 520 225 557 q 187 435 192 483 l 587 435 m 316 995 l 443 995 l 579 811 l 460 811 l 379 933 l 299 811 l 181 811 l 316 995 "},"„":{"x_min":91.859375,"x_max":471.375,"ha":562,"o":"m 100 0 l 100 139 l 234 139 l 234 0 q 208 -116 234 -68 q 124 -196 180 -170 l 91 -144 q 148 -94 129 -127 q 166 0 166 -61 l 100 0 m 337 0 l 337 139 l 471 139 l 471 0 q 446 -116 471 -68 q 361 -196 418 -170 l 329 -144 q 385 -94 367 -127 q 404 0 404 -61 l 337 0 "},"ч":{"x_min":81,"x_max":641,"ha":732,"o":"m 641 0 l 524 0 l 524 290 q 434 241 482 258 q 320 225 386 225 q 143 285 206 225 q 81 462 81 345 l 81 720 l 198 720 l 198 483 q 204 414 198 444 q 228 365 211 385 q 275 336 246 346 q 348 327 304 327 q 403 332 376 327 q 452 346 429 337 q 493 371 475 356 q 524 404 511 385 l 524 720 l 641 720 l 641 0 "},"․":{"x_min":92,"x_max":225,"ha":316,"o":"m 92 0 l 92 139 l 225 139 l 225 0 l 92 0 "},"՟":{"x_min":44.765625,"x_max":701.28125,"ha":713,"o":"m 701 1062 l 44 1062 l 44 1325 l 140 1325 l 140 1153 l 701 1153 l 701 1062 "},"δ":{"x_min":61,"x_max":710.0625,"ha":771,"o":"m 511 682 q 593 615 556 651 q 656 536 630 578 q 696 443 682 493 q 710 336 710 394 q 691 198 710 262 q 632 86 672 134 q 531 12 592 39 q 385 -15 469 -15 q 234 14 296 -15 q 134 94 172 44 q 78 213 95 145 q 61 360 61 282 q 73 474 61 419 q 112 576 85 529 q 181 656 139 622 q 282 706 223 690 l 180 776 q 149 800 164 787 q 124 827 135 813 q 107 858 113 842 q 100 893 100 875 q 113 941 100 916 q 155 994 125 966 l 684 994 l 684 889 l 240 889 q 235 884 236 886 q 234 880 234 881 q 240 869 234 874 q 256 857 246 864 l 511 682 m 411 618 l 389 618 q 294 599 333 618 q 230 547 255 581 q 193 465 205 512 q 182 360 182 417 q 193 244 182 295 q 229 158 205 193 q 292 105 253 123 q 385 87 331 87 q 538 150 487 87 q 589 330 589 213 q 578 421 589 381 q 545 494 567 461 q 489 558 522 528 q 411 618 456 588 "},"Â":{"x_min":0,"x_max":907,"ha":908,"o":"m 779 0 q 755 97 769 44 q 723 209 741 150 q 684 332 705 268 q 640 462 663 396 l 311 462 q 315 473 311 464 q 323 495 318 483 q 333 522 327 508 q 342 549 338 536 q 350 570 346 561 q 354 580 353 579 l 596 580 q 534 734 566 658 q 470 877 502 809 l 435 877 q 371 732 403 809 q 308 576 338 656 q 250 417 278 497 q 198 262 222 337 q 157 120 175 187 q 128 0 138 53 l 0 0 q 37 153 14 69 q 89 325 60 236 q 151 506 118 414 q 219 685 184 598 q 290 851 254 772 q 360 994 326 930 l 546 994 q 616 851 580 930 q 687 685 652 772 q 755 506 722 598 q 817 325 788 414 q 869 153 846 236 q 907 0 892 69 l 779 0 m 383 1269 l 510 1269 l 646 1085 l 527 1085 l 446 1207 l 366 1085 l 248 1085 l 383 1269 "},"Į":{"x_min":87,"x_max":384.53125,"ha":330,"o":"m 102 0 l 102 994 l 228 994 l 228 0 l 102 0 m 112 15 l 196 15 q 181 -42 186 -15 q 177 -95 177 -70 q 202 -172 177 -146 q 270 -199 227 -199 q 324 -194 296 -199 q 384 -174 353 -190 l 384 -255 q 347 -271 366 -264 q 307 -281 327 -277 q 269 -287 288 -285 q 235 -290 250 -290 q 174 -279 201 -290 q 127 -249 147 -268 q 97 -201 108 -229 q 87 -140 87 -173 q 92 -72 87 -110 q 112 15 98 -33 "},"׳":{"x_min":32.84375,"x_max":291,"ha":328,"o":"m 140 720 l 291 720 l 164 524 l 32 524 l 140 720 "},"ω":{"x_min":68,"x_max":974,"ha":1042,"o":"m 580 290 q 590 192 580 231 q 619 130 600 153 q 661 96 637 106 q 713 86 686 86 q 779 103 752 86 q 824 155 807 121 q 848 236 841 189 q 856 342 856 284 q 851 424 856 381 q 834 513 846 466 q 803 611 822 559 q 754 720 784 663 l 863 720 q 945 532 916 624 q 974 350 974 440 q 958 198 974 265 q 911 83 942 130 q 833 10 879 35 q 727 -15 788 -15 q 600 15 650 -15 q 521 119 550 46 q 442 15 492 46 q 315 -15 392 -15 q 208 10 254 -15 q 131 83 162 35 q 83 198 99 130 q 68 350 68 265 q 96 532 68 440 q 179 720 125 624 l 287 720 q 238 611 258 663 q 207 513 219 559 q 190 424 195 466 q 186 342 186 381 q 193 236 186 284 q 217 155 200 189 q 262 103 234 121 q 329 86 289 86 q 380 96 355 86 q 422 130 404 106 q 452 192 441 153 q 463 290 463 231 l 463 432 l 580 432 l 580 290 "},"Ţ":{"x_min":7,"x_max":764,"ha":771,"o":"m 322 0 l 322 877 l 7 877 l 7 994 l 764 994 l 764 877 l 448 877 l 448 0 l 322 0 m 316 -243 l 316 -104 l 450 -104 l 450 -243 q 423 -325 450 -288 q 340 -389 397 -362 l 307 -337 q 362 -298 342 -323 q 382 -243 382 -273 l 316 -243 "},"´":{"x_min":6.84375,"x_max":265,"ha":272,"o":"m 114 994 l 265 994 l 138 798 l 6 798 l 114 994 "},"ֵ":{"x_min":82,"x_max":393,"ha":475,"o":"m 276 -303 l 276 -198 l 393 -198 l 393 -303 l 276 -303 m 82 -303 l 82 -198 l 199 -198 l 199 -303 l 82 -303 "},"ﬖ":{"x_min":91,"x_max":1394,"ha":1486,"o":"m 784 -276 l 534 -276 l 534 50 q 446 2 493 19 q 330 -15 398 -15 q 153 46 215 -15 q 91 222 91 107 l 91 720 l 208 720 l 208 243 q 214 175 208 204 q 238 126 221 146 q 285 96 256 106 q 358 87 314 87 q 424 94 395 87 q 474 112 453 101 q 510 137 496 123 q 534 164 524 151 l 534 995 l 651 995 l 651 -171 l 784 -171 l 784 -276 m 1289 0 l 1289 60 q 1245 28 1268 42 q 1197 5 1223 14 q 1140 -9 1171 -4 q 1073 -15 1110 -15 q 896 46 958 -15 q 834 222 834 107 l 834 889 l 695 889 l 695 994 l 951 994 l 951 243 q 957 175 951 204 q 981 126 964 145 q 1028 96 999 106 q 1101 87 1057 87 q 1167 94 1138 87 q 1217 112 1196 101 q 1253 137 1239 123 q 1277 164 1267 151 l 1277 720 l 1394 720 l 1394 0 l 1289 0 "},"შ":{"x_min":61,"x_max":710,"ha":802,"o":"m 710 360 q 692 213 710 282 q 636 94 674 145 q 535 14 597 44 q 385 -15 474 -15 q 235 13 297 -15 q 134 91 173 41 q 78 208 96 141 q 61 353 61 275 q 76 495 61 428 q 129 612 92 562 q 224 691 166 662 q 368 721 283 721 q 495 700 439 721 q 593 636 550 680 l 593 791 q 589 844 593 822 q 577 881 586 867 q 553 901 568 895 q 516 908 539 908 q 484 904 499 908 q 455 893 468 901 q 436 871 443 885 q 429 832 429 856 l 339 832 q 332 868 339 854 q 314 892 325 883 q 288 904 302 900 q 256 908 273 908 q 229 904 242 908 q 207 893 216 901 q 191 870 197 885 q 186 832 186 855 l 83 832 q 96 911 83 878 q 133 966 110 944 q 184 998 155 987 q 242 1009 212 1009 q 327 990 292 1009 q 384 922 362 971 q 442 990 409 971 q 520 1009 475 1009 q 559 1006 538 1009 q 601 995 580 1003 q 642 972 622 987 q 676 932 661 957 q 700 871 691 907 q 710 783 710 834 l 710 360 m 593 490 q 563 539 582 515 q 518 580 544 562 q 459 608 492 597 q 390 619 427 619 q 293 602 333 619 q 228 551 253 585 q 192 469 203 518 q 182 353 182 419 q 193 238 182 288 q 229 155 205 188 q 292 104 253 121 q 385 87 330 87 q 543 155 493 87 q 593 353 593 223 l 593 490 "},"И":{"x_min":102,"x_max":868,"ha":969,"o":"m 742 0 l 742 838 q 676 769 716 814 q 590 662 637 724 q 492 524 543 600 q 393 362 442 448 q 301 185 344 277 q 226 0 258 93 l 102 0 l 102 994 l 228 994 l 228 341 q 228 309 228 331 q 225 262 228 288 q 236 309 229 288 q 247 338 243 330 q 313 464 275 399 q 393 594 350 530 q 483 720 437 659 q 573 833 529 781 q 659 927 618 886 q 733 994 700 968 l 868 994 l 868 0 l 742 0 "},"Љ":{"x_min":0,"x_max":1419,"ha":1487,"o":"m 868 577 q 963 599 914 591 q 1065 608 1012 608 q 1202 588 1138 608 q 1315 529 1266 568 q 1391 434 1363 490 q 1419 305 1419 378 q 1395 182 1419 238 q 1323 85 1371 126 q 1205 22 1276 44 q 1040 0 1134 0 l 688 0 l 688 877 l 356 877 q 338 562 352 698 q 300 327 323 426 q 244 162 276 228 q 174 56 212 96 q 92 1 136 17 q 0 -15 48 -15 l 0 104 q 61 123 31 105 q 116 181 90 141 q 162 288 141 222 q 198 453 183 354 q 221 685 213 551 q 230 994 230 818 l 814 994 l 814 119 l 1050 119 q 1156 132 1112 119 q 1229 170 1200 145 q 1270 230 1257 195 q 1283 309 1283 265 q 1265 390 1283 356 q 1218 447 1248 425 q 1146 481 1187 470 q 1057 493 1105 493 q 1009 489 1034 493 q 960 480 984 486 q 912 468 935 475 q 868 452 889 461 l 868 577 "},"ւ":{"x_min":94,"x_max":513,"ha":513,"o":"m 513 0 l 94 0 l 94 720 l 211 720 l 211 105 l 513 105 l 513 0 "},"р":{"x_min":92,"x_max":711,"ha":772,"o":"m 209 110 q 264 94 230 101 q 346 87 299 87 q 401 91 372 87 q 456 107 429 95 q 507 138 483 118 q 550 190 531 158 q 579 265 568 221 q 590 368 590 309 q 573 498 590 447 q 528 580 556 549 q 460 622 499 610 q 378 634 422 634 q 322 627 348 634 q 273 610 295 621 q 235 585 252 600 q 209 554 219 570 l 209 110 m 196 720 l 196 669 q 284 718 236 701 q 396 735 333 735 q 513 715 456 735 q 613 652 569 695 q 684 539 658 608 q 711 372 711 470 q 694 233 711 292 q 649 131 677 174 q 584 59 621 88 q 506 15 547 31 q 423 -8 465 -1 q 343 -15 381 -15 q 268 -9 302 -15 q 209 1 234 -4 l 209 -276 l 92 -276 l 92 720 l 196 720 "},"Ω":{"x_min":88.109375,"x_max":995.8125,"ha":1084,"o":"m 101 496 q 111 633 101 567 q 144 755 122 699 q 201 859 166 812 q 285 939 236 905 q 399 990 335 972 q 544 1009 463 1009 q 688 990 624 1009 q 802 939 752 972 q 886 859 851 905 q 943 755 921 812 q 976 633 965 699 q 987 496 987 567 q 982 396 987 447 q 962 296 977 345 q 920 201 948 246 q 846 117 892 155 l 995 117 l 995 0 l 656 0 l 656 114 q 755 172 717 135 q 814 259 793 209 q 843 369 836 309 q 851 497 851 429 q 833 669 851 595 q 779 793 816 744 q 683 868 741 843 q 544 894 626 894 q 403 868 462 894 q 308 793 345 843 q 254 669 271 744 q 237 497 237 595 q 244 369 237 429 q 273 259 252 309 q 332 172 295 209 q 427 114 369 135 l 427 0 l 88 0 l 88 117 l 237 117 q 164 199 191 154 q 123 292 137 243 q 105 392 109 340 q 101 496 101 443 "},"т":{"x_min":20,"x_max":584,"ha":604,"o":"m 243 0 l 243 615 l 20 615 l 20 720 l 584 720 l 584 615 l 360 615 l 360 0 l 243 0 "},"П":{"x_min":102,"x_max":830,"ha":931,"o":"m 102 0 l 102 994 l 830 994 l 830 0 l 704 0 l 704 877 l 228 877 l 228 0 l 102 0 "},"Ö":{"x_min":61,"x_max":936,"ha":997,"o":"m 61 497 q 84 696 61 603 q 159 859 107 789 q 294 968 210 928 q 498 1009 377 1009 q 702 968 619 1009 q 837 859 786 928 q 912 696 889 789 q 936 497 936 603 q 912 297 936 390 q 837 134 889 204 q 702 25 786 65 q 498 -15 619 -15 q 294 25 377 -15 q 159 134 210 65 q 84 297 107 204 q 61 497 61 390 m 191 497 q 208 323 191 398 q 262 197 225 248 q 357 120 299 146 q 498 94 416 94 q 638 120 580 94 q 734 197 696 146 q 788 323 771 248 q 806 497 806 398 q 788 670 806 595 q 734 796 771 745 q 638 873 696 847 q 498 900 580 900 q 357 873 416 900 q 262 796 299 847 q 208 670 225 745 q 191 497 191 595 m 331 1134 l 331 1268 l 454 1268 l 454 1134 l 331 1134 m 553 1134 l 553 1268 l 676 1268 l 676 1134 l 553 1134 "},"z":{"x_min":47,"x_max":616,"ha":657,"o":"m 603 720 l 603 627 q 528 558 569 599 q 444 469 487 517 q 359 370 401 421 q 280 270 316 319 q 215 178 244 221 q 172 105 186 135 l 616 105 l 616 0 l 47 0 l 47 98 q 94 189 63 139 q 161 289 124 238 q 237 391 197 340 q 314 485 278 441 q 382 562 351 528 q 432 615 413 596 l 65 615 l 65 720 l 603 720 "},"™":{"x_min":50,"x_max":932,"ha":1014,"o":"m 200 496 l 200 915 l 50 915 l 50 994 l 434 994 l 434 915 l 283 915 l 283 496 l 200 496 m 473 496 l 473 994 l 555 994 q 638 860 602 928 q 700 720 675 792 q 764 860 727 793 q 848 994 801 928 l 932 994 l 932 496 l 850 496 l 850 853 q 788 731 814 796 q 736 595 761 666 l 665 595 q 617 730 642 666 q 554 853 591 793 l 554 496 l 473 496 "},"Θ":{"x_min":68,"x_max":942.90625,"ha":1011,"o":"m 285 580 l 731 580 l 731 462 l 285 462 l 285 580 m 68 497 q 91 696 68 603 q 166 859 114 789 q 301 968 217 928 q 505 1009 384 1009 q 709 968 626 1009 q 844 859 793 928 q 919 696 896 789 q 942 497 942 603 q 919 297 942 390 q 844 134 896 204 q 709 25 793 65 q 505 -15 626 -15 q 301 25 384 -15 q 166 134 217 65 q 91 297 114 204 q 68 497 68 390 m 198 497 q 215 323 198 398 q 269 197 232 248 q 364 120 306 146 q 505 94 423 94 q 645 120 587 94 q 740 197 703 146 q 795 323 778 248 q 812 497 812 398 q 795 670 812 595 q 740 796 778 745 q 645 873 703 847 q 505 900 587 900 q 364 873 423 900 q 269 796 306 847 q 215 670 232 745 q 198 497 198 595 "},"Ř":{"x_min":102,"x_max":867,"ha":935,"o":"m 282 576 q 328 560 303 567 q 380 548 354 553 q 430 539 406 542 q 469 536 453 536 q 563 547 523 536 q 630 579 603 559 q 670 631 656 600 q 686 699 684 661 q 677 770 687 736 q 643 832 668 805 q 576 877 618 860 q 468 894 533 894 q 401 892 432 894 q 342 889 370 891 q 285 886 313 888 q 228 885 257 885 l 228 0 l 102 0 l 102 994 q 202 996 153 994 q 295 1001 251 998 q 379 1006 340 1004 q 452 1009 419 1009 q 625 985 554 1009 q 740 921 695 962 q 804 823 784 880 q 822 699 823 766 q 744 514 818 579 q 542 435 671 448 q 651 334 601 387 q 741 224 701 280 q 813 111 782 168 q 867 0 844 54 l 730 0 q 688 76 713 33 q 630 165 662 119 q 557 256 597 210 q 473 340 517 301 q 380 410 428 380 q 282 456 332 441 l 282 576 m 462 1158 l 543 1268 l 674 1268 l 522 1083 l 392 1083 l 245 1268 l 378 1268 l 462 1158 "},"Ռ":{"x_min":102,"x_max":1018,"ha":1017,"o":"m 851 0 l 725 0 l 725 657 q 706 761 725 716 q 655 837 688 807 q 576 884 621 868 q 476 900 530 900 q 376 884 422 900 q 297 837 331 868 q 246 761 264 807 q 228 657 228 716 l 228 0 l 102 0 l 102 650 q 130 802 102 736 q 209 915 159 869 q 328 984 260 960 q 476 1009 397 1009 q 624 984 555 1009 q 743 915 692 960 q 822 802 793 869 q 851 650 851 736 l 851 412 l 1018 412 l 1018 294 l 851 294 l 851 0 "},"Ň":{"x_min":102,"x_max":868,"ha":969,"o":"m 102 0 l 102 994 l 236 994 q 310 927 269 968 q 396 833 351 886 q 486 720 440 781 q 575 594 532 659 q 656 464 619 530 q 722 338 694 399 q 733 309 726 330 q 744 262 740 288 q 742 309 742 288 q 742 341 742 331 l 742 994 l 868 994 l 868 0 l 744 0 q 668 185 712 93 q 576 362 625 277 q 477 524 528 448 q 379 662 426 600 q 293 769 332 724 q 228 838 253 814 l 228 0 l 102 0 m 505 1158 l 586 1268 l 717 1268 l 565 1083 l 435 1083 l 288 1268 l 421 1268 l 505 1158 "},"É":{"x_min":102,"x_max":781,"ha":863,"o":"m 102 0 l 102 994 l 766 994 l 766 877 l 228 877 l 228 580 l 703 580 l 703 462 l 228 462 l 228 119 l 781 119 l 781 0 l 102 0 m 360 1268 l 511 1268 l 384 1072 l 252 1072 l 360 1268 "},"и":{"x_min":92,"x_max":657,"ha":748,"o":"m 210 720 l 210 248 q 209 220 210 235 q 207 190 208 206 q 265 313 230 248 q 345 447 301 379 q 437 585 388 515 q 536 720 486 654 l 657 720 l 657 0 l 539 0 l 539 477 q 539 524 539 505 q 541 562 540 543 q 457 445 501 511 q 370 305 413 379 q 287 153 327 231 q 211 0 246 75 l 92 0 l 92 720 l 210 720 "},"א":{"x_min":73,"x_max":723,"ha":832,"o":"m 190 0 l 73 0 l 73 263 q 84 328 73 299 q 118 377 96 356 q 169 410 139 398 q 236 428 199 423 l 73 581 l 73 735 l 496 340 q 500 391 494 363 q 515 448 506 418 l 602 720 l 723 720 l 600 330 q 592 285 592 306 q 595 247 591 264 l 712 139 l 712 -14 l 319 351 q 278 351 300 353 q 236 341 255 349 q 203 314 216 332 q 190 263 190 295 l 190 0 "},"³":{"x_min":47.359375,"x_max":355,"ha":402,"o":"m 159 564 q 198 567 180 564 q 230 579 216 570 q 252 605 244 589 q 261 647 261 621 q 252 688 261 672 q 232 714 244 704 q 205 726 219 723 q 178 730 190 730 l 149 730 l 149 806 l 176 806 q 203 808 191 806 q 224 818 214 811 q 238 836 233 825 q 243 864 243 847 q 223 912 243 898 q 171 927 202 927 q 117 921 147 927 q 62 908 87 916 l 62 987 q 171 1002 117 1002 q 233 992 203 1002 q 285 965 262 983 q 321 921 308 947 q 335 863 335 896 q 330 831 335 845 q 319 806 326 817 q 303 786 312 795 q 286 771 294 778 q 310 752 298 763 q 332 724 323 740 q 348 689 342 708 q 355 647 355 669 q 338 574 355 604 q 295 525 322 544 q 232 497 268 506 q 159 489 197 489 q 103 494 133 489 q 47 506 73 499 l 47 586 q 72 578 58 582 q 102 571 87 574 q 132 566 117 568 q 159 564 147 564 "},"Ն":{"x_min":0,"x_max":921,"ha":954,"o":"m 921 342 q 892 190 921 257 q 813 78 863 123 q 694 8 762 32 q 546 -15 625 -15 q 398 8 467 -15 q 279 78 330 32 q 200 190 229 123 q 172 342 172 257 l 172 877 l 0 877 l 0 994 l 298 994 l 298 336 q 316 232 298 277 q 367 156 334 186 q 446 109 401 125 q 546 94 492 94 q 646 109 600 94 q 725 156 691 125 q 776 232 758 186 q 795 336 795 277 l 795 412 l 921 412 l 921 342 "},"[":{"x_min":102,"x_max":362,"ha":382,"o":"m 102 -276 l 102 994 l 361 994 l 361 893 l 220 893 l 220 -175 l 362 -175 l 362 -276 l 102 -276 "},"ζ":{"x_min":54,"x_max":615,"ha":574,"o":"m 83 889 l 83 994 l 562 994 q 601 977 587 994 q 615 938 615 960 q 609 911 615 924 q 592 889 604 899 q 499 806 547 852 q 404 707 450 760 q 315 595 357 654 q 240 476 272 536 q 189 355 208 416 q 171 235 171 294 q 207 135 171 166 q 327 105 244 105 q 430 95 385 105 q 505 66 475 86 q 552 12 536 45 q 568 -67 568 -20 q 560 -129 568 -99 q 539 -185 552 -158 q 510 -234 526 -211 q 477 -276 493 -257 l 346 -276 q 382 -238 363 -260 q 416 -190 400 -217 q 441 -135 431 -164 q 451 -75 451 -105 q 441 -37 451 -52 q 415 -14 432 -23 q 373 -3 398 -6 q 317 0 348 0 q 117 58 180 0 q 54 234 54 117 q 70 351 54 291 q 116 470 87 410 q 184 587 145 529 q 265 699 222 645 q 354 801 309 753 q 444 889 400 848 l 83 889 "},"Έ":{"x_min":-184.15625,"x_max":781,"ha":863,"o":"m 102 0 l 102 994 l 766 994 l 766 877 l 228 877 l 228 580 l 703 580 l 703 462 l 228 462 l 228 119 l 781 119 l 781 0 l 102 0 m -77 995 l 74 995 l -52 799 l -184 799 l -77 995 "},"⇒":{"x_min":55.609375,"x_max":1090.578125,"ha":1146,"o":"m 1090 338 q 931 271 1013 313 q 769 170 848 228 l 738 209 q 770 236 752 223 q 806 261 787 248 l 55 261 l 55 321 l 907 321 q 950 341 928 331 q 984 355 971 350 q 970 361 978 357 q 951 369 961 364 q 929 379 940 374 q 908 390 918 385 l 55 390 l 55 450 l 806 450 q 770 474 787 461 q 738 501 752 487 l 769 541 q 931 439 848 482 q 1090 372 1013 397 l 1090 338 "},"Ρ":{"x_min":102,"x_max":832,"ha":900,"o":"m 282 568 q 329 552 303 559 q 381 540 355 545 q 431 531 407 534 q 471 528 454 528 q 560 537 519 528 q 631 566 601 546 q 678 618 661 586 q 696 697 696 650 q 687 776 696 740 q 654 838 679 812 q 583 879 628 864 q 463 894 537 894 q 330 889 387 894 q 228 885 273 885 l 228 0 l 102 0 l 102 994 q 207 996 158 994 q 299 1001 256 998 q 380 1006 342 1004 q 453 1009 418 1009 q 627 987 555 1009 q 744 926 699 966 q 810 830 789 886 q 832 701 832 773 q 804 575 832 629 q 728 484 776 520 q 616 430 680 448 q 479 413 551 413 q 435 415 460 413 q 384 421 411 417 q 331 430 357 425 q 282 443 305 436 l 282 568 "},"ğ":{"x_min":61,"x_max":681,"ha":773,"o":"m 564 48 q 529 24 547 35 q 488 3 511 12 q 438 -9 466 -4 q 375 -15 410 -15 q 260 4 316 -15 q 159 67 203 23 q 88 179 115 110 q 61 347 61 248 q 74 475 61 419 q 113 575 88 532 q 172 648 138 618 q 247 698 207 678 q 334 726 288 717 q 429 735 380 735 q 489 732 456 735 q 554 723 521 729 q 619 709 587 718 q 681 688 652 700 l 681 16 q 656 -120 681 -62 q 587 -216 632 -178 q 479 -272 542 -254 q 340 -290 416 -290 q 263 -284 304 -290 q 186 -270 221 -279 l 186 -165 q 218 -173 200 -170 q 255 -179 236 -177 q 294 -183 274 -182 q 332 -185 314 -185 q 426 -175 384 -185 q 500 -143 469 -166 q 547 -83 530 -120 q 564 10 564 -46 l 564 48 m 564 608 q 504 626 538 620 q 426 633 470 633 q 320 616 365 633 q 243 566 274 600 q 197 478 213 532 q 182 351 182 425 q 196 227 182 277 q 239 145 211 176 q 305 99 266 113 q 393 86 344 86 q 454 94 426 86 q 503 115 482 102 q 540 145 525 128 q 564 178 555 161 l 564 608 m 402 910 q 442 913 423 910 q 477 925 462 916 q 503 951 492 935 q 518 994 513 967 l 621 994 q 598 922 616 954 q 552 868 580 891 q 485 834 523 846 q 401 822 447 822 q 318 834 355 822 q 252 868 280 846 q 206 922 224 891 q 184 994 188 954 l 287 994 q 301 951 291 967 q 327 925 312 935 q 361 913 342 916 q 402 910 380 910 "},"ª":{"x_min":47,"x_max":453,"ha":500,"o":"m 372 534 q 301 499 339 508 q 214 490 262 490 q 141 501 172 490 q 89 533 110 513 q 57 582 68 553 q 47 644 47 610 q 62 710 47 681 q 103 761 77 740 q 165 795 130 783 q 242 807 201 807 l 364 807 l 364 827 q 358 867 364 848 q 338 898 352 885 q 300 918 324 911 q 242 926 277 926 q 174 922 202 926 q 116 910 145 918 l 116 988 q 174 998 146 994 q 242 1002 202 1002 q 338 988 298 1002 q 403 951 378 974 q 441 896 429 928 q 453 831 453 865 l 453 500 l 372 500 l 372 534 m 364 730 l 241 730 q 191 723 212 730 q 156 705 170 717 q 136 678 142 694 q 130 643 130 662 q 137 606 130 621 q 157 582 144 591 q 190 569 171 573 q 233 565 209 565 q 281 569 260 565 q 318 580 302 573 q 345 595 334 587 q 364 613 355 604 l 364 730 "},"":{"x_min":71.96875,"x_max":584,"ha":705,"o":"m 294 735 q 413 718 360 735 q 503 670 466 702 q 561 590 541 638 q 582 480 582 543 q 566 390 582 433 q 524 311 550 348 q 463 241 498 273 q 392 183 429 209 q 317 137 355 157 q 246 105 279 117 l 584 105 l 573 0 l 71 0 l 71 105 q 256 205 182 159 q 376 293 331 250 q 441 378 422 335 q 461 469 461 421 q 451 544 461 512 q 419 595 441 575 q 363 626 397 616 q 281 636 329 636 q 219 630 248 636 q 165 613 191 624 q 117 588 140 603 q 74 557 95 574 l 74 667 q 107 689 86 678 q 154 711 127 701 q 217 728 182 722 q 294 735 252 735 "},"ї":{"x_min":-22,"x_max":323,"ha":300,"o":"m 92 0 l 92 720 l 209 720 l 209 0 l 92 0 m -22 860 l -22 994 l 101 994 l 101 860 l -22 860 m 200 860 l 200 994 l 323 994 l 323 860 l 200 860 "},"T":{"x_min":7,"x_max":764,"ha":771,"o":"m 322 0 l 322 877 l 7 877 l 7 994 l 764 994 l 764 877 l 448 877 l 448 0 l 322 0 "},"š":{"x_min":55,"x_max":558,"ha":611,"o":"m 320 735 q 425 727 381 735 q 504 708 469 719 l 504 605 q 416 625 459 618 q 321 633 373 633 q 255 628 283 633 q 207 611 226 623 q 179 580 188 599 q 172 530 170 560 q 190 484 173 502 q 235 455 207 467 q 296 435 262 444 q 367 416 331 427 q 437 389 403 405 q 498 348 471 374 q 541 284 525 322 q 558 189 558 246 q 538 100 558 138 q 484 37 519 62 q 399 -1 448 11 q 291 -15 351 -15 q 228 -12 260 -15 q 165 -5 195 -9 q 110 5 135 0 q 67 19 84 11 l 67 124 q 163 98 107 110 q 291 87 218 87 q 358 91 329 87 q 404 108 386 96 q 432 139 423 120 q 441 189 441 159 q 424 251 441 227 q 380 291 407 276 q 318 316 353 306 q 248 335 284 326 q 177 358 211 345 q 115 392 142 370 q 71 447 88 414 q 55 530 55 480 q 74 618 55 580 q 128 682 93 657 q 212 721 163 708 q 320 735 261 735 m 320 884 l 401 994 l 532 994 l 380 809 l 250 809 l 103 994 l 236 994 l 320 884 "},"є":{"x_min":68.03125,"x_max":589,"ha":650,"o":"m 506 422 l 191 422 q 214 518 197 478 q 258 583 231 558 q 324 621 286 609 q 411 633 363 633 q 508 627 464 633 q 589 612 552 622 l 589 720 q 504 730 545 726 q 411 735 463 735 q 257 709 322 735 q 150 634 192 683 q 88 516 108 586 q 68 360 68 447 q 154 76 68 168 q 418 -15 240 -15 q 466 -13 444 -15 q 508 -10 488 -12 q 547 -5 527 -8 q 589 1 567 -2 l 589 103 q 514 91 555 96 q 418 87 472 87 q 327 97 368 87 q 257 133 286 108 q 210 204 228 159 q 189 317 193 248 l 506 317 l 506 422 "},"ჟ":{"x_min":49.203125,"x_max":737,"ha":827,"o":"m 620 563 q 591 531 607 547 q 555 499 574 515 q 515 470 535 483 q 475 447 494 456 q 490 404 486 427 q 495 356 495 382 q 476 249 495 294 q 428 174 458 203 q 357 130 397 144 q 273 116 317 116 q 194 128 234 116 q 122 170 154 141 q 69 251 90 200 q 49 378 49 302 l 49 414 l 167 414 l 167 380 q 175 302 167 333 q 198 252 184 271 q 233 225 213 233 q 277 218 254 218 q 314 223 295 218 q 347 243 332 228 q 372 283 363 258 q 382 348 382 308 q 377 391 382 371 q 364 429 372 412 q 347 459 357 446 q 327 480 337 473 q 414 525 372 499 q 492 581 455 551 q 562 647 530 612 q 621 720 594 682 l 737 720 l 737 -3 q 708 -133 737 -79 q 629 -222 679 -188 q 514 -273 580 -257 q 374 -290 448 -290 q 249 -283 304 -290 q 157 -268 195 -277 l 157 -160 q 248 -179 189 -171 q 380 -188 308 -188 q 558 -143 497 -188 q 620 -7 620 -99 l 620 563 "},"Þ":{"x_min":96,"x_max":750,"ha":850,"o":"m 222 109 l 222 0 l 96 0 l 96 994 l 222 994 l 222 900 l 301 900 q 496 873 412 900 q 636 794 580 846 q 721 668 693 743 q 750 497 750 594 q 637 206 750 304 q 301 109 524 109 l 222 109 m 222 795 l 222 214 l 301 214 q 457 234 396 214 q 555 291 519 254 q 605 380 591 328 q 620 497 620 432 q 605 617 620 562 q 555 711 591 671 q 457 772 519 750 q 301 795 396 795 l 222 795 "},"ნ":{"x_min":92,"x_max":741,"ha":802,"o":"m 482 854 q 419 862 448 854 q 363 880 389 870 q 314 898 337 890 q 269 907 291 907 q 226 887 244 907 q 209 833 209 867 l 209 636 q 306 700 251 680 q 433 721 362 721 q 577 691 518 721 q 672 612 635 662 q 724 495 708 562 q 741 353 741 428 q 723 208 741 275 q 667 91 705 141 q 566 13 628 41 q 416 -15 505 -15 q 266 14 328 -15 q 165 94 204 44 q 109 213 127 145 q 92 360 92 282 l 92 805 q 106 899 92 861 q 146 962 121 938 q 203 998 171 987 q 269 1009 235 1009 q 325 1000 300 1009 q 375 982 351 992 q 425 964 399 973 q 483 956 451 956 q 518 960 503 956 q 549 971 534 964 q 582 987 565 978 q 625 1009 600 997 l 625 904 q 591 884 607 893 q 557 869 574 875 q 522 858 540 862 q 482 854 503 854 m 416 619 q 345 608 378 619 q 285 581 311 598 q 238 540 258 563 q 209 491 219 517 l 209 353 q 258 155 209 223 q 416 87 308 87 q 509 104 471 87 q 572 155 548 121 q 608 238 596 188 q 620 353 620 288 q 609 467 620 418 q 574 550 598 517 q 511 601 550 584 q 416 619 472 619 "},"j":{"x_min":-104.015625,"x_max":209,"ha":300,"o":"m 92 852 l 92 994 l 209 994 l 209 852 l 92 852 m -104 -179 q -70 -185 -86 -182 q -36 -188 -54 -188 q 17 -181 -6 -188 q 58 -157 41 -175 q 83 -109 75 -140 q 92 -29 92 -78 l 92 720 l 209 720 l 209 -29 q 190 -158 209 -107 q 139 -238 171 -208 q 64 -278 107 -267 q -28 -289 21 -289 q -65 -287 -45 -289 q -104 -283 -85 -286 l -104 -179 "},"Σ":{"x_min":54,"x_max":779,"ha":833,"o":"m 564 460 q 462 385 513 425 q 365 301 411 344 q 278 215 319 258 q 208 134 238 172 q 199 125 205 130 q 188 117 193 121 q 197 118 191 118 q 208 119 202 119 l 779 119 l 779 0 l 54 0 l 54 121 q 96 180 70 148 q 153 247 121 212 q 220 319 184 283 q 295 391 256 356 q 373 458 333 426 q 450 516 412 490 q 336 601 393 555 q 227 695 278 647 q 134 789 176 742 q 67 874 92 835 l 67 994 l 765 994 l 765 877 l 222 877 q 210 877 216 877 q 201 878 205 877 q 213 870 207 874 q 222 861 218 865 q 374 715 287 791 q 564 569 460 638 l 564 460 "},"1":{"x_min":283,"x_max":550,"ha":834,"o":"m 550 0 l 433 0 l 433 889 l 283 889 l 283 994 l 550 994 l 550 0 "},"խ":{"x_min":92,"x_max":1057,"ha":1148,"o":"m 209 -276 l 92 -276 l 92 994 l 209 994 l 209 669 q 244 692 224 681 q 288 713 263 704 q 341 729 312 723 q 405 735 371 735 q 489 723 448 735 q 562 686 530 712 q 614 618 594 660 q 633 515 633 576 l 631 250 q 636 189 631 218 q 654 137 640 160 q 696 100 669 114 q 768 87 723 87 q 826 93 799 87 q 874 110 853 99 q 913 134 896 120 q 940 164 929 148 l 940 720 l 1057 720 l 1057 0 l 953 0 l 953 60 q 917 33 937 47 q 871 9 897 20 q 813 -8 844 -1 q 743 -15 781 -15 q 670 -3 710 -15 q 595 33 629 7 q 537 101 560 59 q 514 204 514 143 l 517 476 q 512 536 517 507 q 493 586 508 564 q 452 620 479 607 q 380 633 425 633 q 322 626 349 633 q 274 609 295 620 q 235 585 252 599 q 209 555 219 571 l 209 -276 "},"ϒ":{"x_min":10.21875,"x_max":856.78125,"ha":908,"o":"m 369 0 l 369 461 q 353 527 369 488 q 312 612 338 566 q 250 709 286 659 q 176 810 215 760 q 93 908 136 861 q 10 994 50 955 l 170 994 q 240 916 203 959 q 313 825 277 873 q 380 723 348 776 q 433 616 411 670 q 488 723 456 670 q 554 825 519 776 q 626 916 590 873 q 696 994 663 959 l 856 994 q 773 908 815 955 q 690 810 730 861 q 616 709 651 760 q 554 612 580 659 q 513 527 528 566 q 498 461 498 488 l 498 0 l 369 0 "},"ﬓ":{"x_min":91,"x_max":1394,"ha":1486,"o":"m 546 0 l 546 60 q 502 28 525 42 q 454 5 480 14 q 397 -9 428 -4 q 330 -15 367 -15 q 153 46 215 -15 q 91 222 91 107 l 91 720 l 208 720 l 208 243 q 214 175 208 204 q 238 126 221 146 q 285 96 256 106 q 358 87 314 87 q 424 94 395 87 q 474 112 453 101 q 510 137 496 123 q 534 164 524 151 l 534 994 l 785 994 l 785 889 l 651 889 l 651 0 l 546 0 m 1289 0 l 1289 60 q 1245 28 1268 42 q 1197 5 1223 14 q 1140 -9 1171 -4 q 1073 -15 1110 -15 q 896 46 958 -15 q 834 222 834 107 l 834 889 l 694 889 l 694 994 l 951 994 l 951 243 q 957 175 951 204 q 981 126 964 145 q 1028 96 999 106 q 1101 87 1057 87 q 1167 94 1138 87 q 1217 112 1196 101 q 1253 137 1239 123 q 1277 164 1267 151 l 1277 720 l 1394 720 l 1394 0 l 1289 0 "},"צ":{"x_min":7,"x_max":702.375,"ha":794,"o":"m 55 720 l 191 720 l 452 352 q 484 347 463 348 q 525 355 505 346 q 561 387 546 364 q 577 456 577 411 l 577 720 l 694 720 l 694 456 q 649 310 694 359 q 516 260 605 260 l 702 0 l 7 0 l 7 105 l 491 105 l 55 720 "},"ī":{"x_min":-66.328125,"x_max":356.875,"ha":300,"o":"m 92 0 l 92 720 l 209 720 l 209 0 l 92 0 m -66 839 l -66 939 l 356 939 l 356 839 l -66 839 "},"О":{"x_min":61,"x_max":936,"ha":997,"o":"m 61 497 q 84 696 61 603 q 159 859 107 789 q 294 968 210 928 q 498 1009 377 1009 q 702 968 619 1009 q 837 859 786 928 q 912 696 889 789 q 936 497 936 603 q 912 297 936 390 q 837 134 889 204 q 702 25 786 65 q 498 -15 619 -15 q 294 25 377 -15 q 159 134 210 65 q 84 297 107 204 q 61 497 61 390 m 191 497 q 208 323 191 398 q 262 197 225 248 q 357 120 299 146 q 498 94 416 94 q 638 120 580 94 q 734 197 696 146 q 788 323 771 248 q 806 497 806 398 q 788 670 806 595 q 734 796 771 745 q 638 873 696 847 q 498 900 580 900 q 357 873 416 900 q 262 796 299 847 q 208 670 225 745 q 191 497 191 595 "},"ξ":{"x_min":61,"x_max":574.765625,"ha":561,"o":"m 334 105 q 432 96 388 105 q 508 68 477 88 q 557 14 540 48 q 574 -67 574 -18 q 566 -129 574 -99 q 546 -185 559 -158 q 517 -234 533 -211 q 483 -276 500 -257 l 352 -276 q 388 -238 370 -260 q 422 -190 407 -217 q 447 -135 438 -164 q 457 -75 457 -105 q 448 -37 457 -52 q 423 -14 440 -23 q 381 -3 406 -6 q 324 0 356 0 q 187 20 238 0 q 107 73 135 40 q 70 149 79 107 q 61 234 61 191 q 76 340 61 286 q 122 444 91 395 q 199 536 153 494 q 307 605 246 578 q 211 625 250 607 q 148 669 172 643 q 113 728 124 696 q 103 790 103 759 q 123 880 103 842 q 176 944 143 919 q 250 981 209 969 q 332 994 291 994 l 469 994 l 469 895 l 350 895 q 298 889 323 895 q 257 870 274 883 q 230 838 240 858 q 220 790 220 818 q 230 741 220 761 q 258 707 241 720 q 300 686 276 693 q 353 680 325 680 l 469 680 l 469 575 q 402 563 436 575 q 336 531 369 552 q 275 479 304 509 q 224 412 246 450 q 190 330 203 374 q 178 236 178 285 q 184 183 178 207 q 208 142 191 159 q 256 114 226 124 q 334 105 287 105 "},"Ď":{"x_min":102,"x_max":914,"ha":988,"o":"m 102 994 q 198 997 156 994 q 279 1002 240 999 q 360 1006 318 1004 q 456 1009 401 1009 q 663 972 576 1009 q 806 870 750 936 q 887 714 861 804 q 914 514 914 623 q 888 294 914 389 q 806 133 862 198 q 663 33 751 67 q 452 0 576 0 l 102 0 l 102 994 m 784 497 q 702 797 784 701 q 456 894 621 894 q 324 889 380 894 q 228 884 268 884 l 228 119 l 452 119 q 600 140 537 119 q 702 206 662 161 q 762 323 743 252 q 784 497 782 395 m 450 1158 l 531 1268 l 662 1268 l 510 1083 l 380 1083 l 233 1268 l 366 1268 l 450 1158 "},"&":{"x_min":88,"x_max":985,"ha":1019,"o":"m 573 580 l 985 580 l 985 462 l 850 462 l 850 281 q 821 153 850 208 q 741 60 792 98 q 620 4 690 23 q 468 -15 550 -15 q 316 4 385 -15 q 195 60 246 23 q 116 153 144 98 q 88 281 88 208 q 128 434 88 372 q 243 526 169 496 q 189 560 213 539 q 148 611 165 582 q 121 674 130 639 q 112 750 112 710 q 137 866 112 817 q 208 946 162 915 q 320 993 254 978 q 468 1009 386 1009 q 615 1002 554 1009 q 718 988 676 996 l 718 863 q 663 876 691 870 q 607 887 636 883 q 543 895 577 892 q 468 898 510 898 q 378 892 419 898 q 307 870 337 886 q 261 825 278 853 q 245 750 245 796 q 259 672 245 704 q 299 619 273 640 q 359 589 324 598 q 434 580 394 580 l 444 580 l 444 462 l 434 462 q 275 416 330 462 q 221 281 221 371 q 283 144 221 194 q 468 94 345 94 q 653 144 590 94 q 717 281 717 194 l 717 462 l 573 462 l 573 580 "},"G":{"x_min":61,"x_max":893,"ha":994,"o":"m 516 100 q 601 102 560 100 q 674 107 642 104 q 732 111 707 109 q 767 114 756 114 l 767 462 l 492 462 l 492 580 l 893 580 l 893 0 q 782 -2 829 0 q 692 -7 734 -4 q 609 -12 650 -10 q 516 -15 567 -15 q 309 18 395 -15 q 167 116 223 52 q 86 277 112 181 q 61 497 61 372 q 88 703 61 609 q 173 865 115 797 q 319 971 230 933 q 532 1009 408 1009 q 620 1005 576 1009 q 702 996 663 1002 q 772 985 741 991 q 824 973 804 979 l 824 847 q 763 863 796 855 q 692 878 729 871 q 614 889 654 885 q 532 894 573 894 q 277 797 363 894 q 191 497 191 701 q 211 314 191 389 q 271 191 231 239 q 373 121 311 143 q 516 100 434 100 "},"Բ":{"x_min":102,"x_max":861,"ha":952,"o":"m 851 602 l 725 602 l 725 657 q 706 761 725 716 q 655 837 688 807 q 576 884 621 868 q 476 900 530 900 q 376 884 422 900 q 297 837 331 868 q 246 761 264 807 q 228 657 228 716 l 228 412 l 861 412 l 861 294 l 228 294 l 228 0 l 102 0 l 102 650 q 130 802 102 736 q 209 915 159 869 q 328 984 260 960 q 476 1009 397 1009 q 624 984 555 1009 q 743 915 692 960 q 822 802 793 869 q 851 650 851 736 l 851 602 "},"ΰ":{"x_min":92,"x_max":673,"ha":713,"o":"m 371 -15 q 256 2 308 -15 q 168 53 205 19 q 112 135 132 86 q 92 246 92 183 l 92 720 l 209 720 l 209 240 q 250 124 209 162 q 371 87 291 87 q 452 100 418 87 q 508 146 486 114 q 541 231 530 178 q 552 360 552 283 q 548 432 552 388 q 538 526 545 476 q 520 626 530 576 q 495 720 509 677 l 619 720 q 644 621 634 673 q 661 519 655 569 q 670 427 667 469 q 673 359 673 385 q 649 182 673 254 q 584 66 625 110 q 488 3 543 22 q 371 -15 433 -15 m 164 854 l 164 994 l 281 994 l 281 854 l 164 854 m 380 854 l 380 994 l 497 994 l 497 854 l 380 854 m 348 1284 l 498 1284 l 372 1088 l 240 1088 l 348 1284 "},"`":{"x_min":20,"x_max":278.15625,"ha":299,"o":"m 278 798 l 146 798 l 20 994 l 171 994 l 278 798 "},"ý":{"x_min":14,"x_max":647,"ha":701,"o":"m 647 720 q 628 623 640 678 q 597 505 615 568 q 557 375 579 442 q 510 241 535 307 q 459 112 485 174 q 408 0 433 50 q 349 -109 379 -57 q 283 -202 319 -161 q 203 -266 247 -242 q 104 -290 159 -290 q 92 -289 100 -290 q 72 -287 83 -289 q 50 -283 62 -286 q 28 -276 38 -281 l 28 -170 q 51 -178 39 -176 q 72 -182 62 -181 q 90 -184 83 -184 q 101 -185 98 -185 q 149 -175 127 -185 q 194 -143 172 -165 q 238 -86 216 -121 q 286 0 260 -51 q 230 112 259 51 q 173 241 201 174 q 118 375 144 307 q 71 506 92 443 q 34 624 49 568 q 14 720 19 679 l 131 720 q 160 592 139 663 q 211 442 181 521 q 276 283 241 364 q 346 127 311 202 q 409 286 380 205 q 463 444 439 367 q 504 592 487 521 q 530 720 521 663 l 647 720 m 343 994 l 494 994 l 367 798 l 235 798 l 343 994 "},"Ֆ":{"x_min":47,"x_max":1040,"ha":1087,"o":"m 467 0 q 289 21 368 0 q 157 88 211 43 q 75 198 103 133 q 47 359 47 263 l 47 412 l 183 412 l 183 359 q 195 250 183 295 q 241 173 208 206 q 329 125 274 141 q 467 109 384 109 l 482 109 l 482 609 l 416 609 q 304 618 353 609 q 223 651 255 628 q 172 709 190 673 q 155 798 155 745 q 172 888 155 851 q 223 948 190 925 q 304 983 255 972 q 416 994 352 994 l 608 994 l 608 720 l 619 720 q 797 697 719 720 q 929 630 876 675 q 1011 515 983 585 q 1040 357 1040 446 q 1011 202 1040 267 q 930 90 983 137 q 798 21 876 42 q 619 0 719 0 l 467 0 m 619 109 q 758 124 703 109 q 846 175 813 140 q 893 254 879 209 q 907 357 907 298 q 893 463 907 415 q 846 544 879 512 q 758 592 813 576 q 619 609 703 609 l 608 609 l 608 109 l 619 109 m 288 798 q 294 759 288 774 q 316 735 301 744 q 355 723 331 726 q 416 720 380 720 l 482 720 l 482 885 l 416 885 q 355 880 380 885 q 316 865 331 875 q 294 838 301 855 q 288 798 288 822 "},"º":{"x_min":41,"x_max":493,"ha":534,"o":"m 41 750 q 53 849 41 803 q 92 929 65 896 q 161 982 118 963 q 267 1002 205 1002 q 372 982 329 1002 q 441 929 415 963 q 480 849 468 896 q 493 750 493 803 q 480 648 493 695 q 441 566 468 601 q 372 510 415 530 q 267 490 329 490 q 161 510 205 490 q 92 566 118 530 q 53 648 65 601 q 41 750 41 695 m 139 750 q 145 672 139 705 q 166 616 151 639 q 206 583 181 594 q 267 572 231 572 q 327 583 302 572 q 367 616 352 594 q 388 672 382 639 q 395 750 395 705 q 388 826 395 794 q 367 879 382 858 q 327 910 352 900 q 267 921 302 921 q 206 910 231 921 q 166 879 181 900 q 145 826 151 858 q 139 750 139 794 "},"ź":{"x_min":74,"x_max":643,"ha":711,"o":"m 630 720 l 630 627 q 555 558 596 599 q 471 469 514 517 q 386 370 428 421 q 307 270 343 319 q 242 178 271 221 q 199 105 213 135 l 643 105 l 643 0 l 74 0 l 74 98 q 121 189 90 139 q 188 289 151 238 q 264 391 224 340 q 341 485 305 441 q 409 562 378 528 q 459 615 440 596 l 92 615 l 92 720 l 630 720 m 338 994 l 489 994 l 362 798 l 230 798 l 338 994 "},"י":{"x_min":92,"x_max":209,"ha":300,"o":"m 209 720 l 209 294 l 92 294 l 92 720 l 209 720 "},"ח":{"x_min":92,"x_max":732,"ha":813,"o":"m 209 0 l 92 0 l 92 715 q 138 721 106 718 q 207 727 169 724 q 286 732 245 730 q 362 735 327 735 q 528 712 458 735 q 643 646 598 690 q 710 538 688 602 q 732 388 732 473 l 732 0 l 615 0 l 615 367 q 598 497 615 445 q 550 578 582 548 q 471 620 518 608 q 362 633 424 633 q 315 631 338 633 q 271 629 292 630 q 235 625 251 627 q 209 622 219 624 l 209 0 "},"я":{"x_min":34.203125,"x_max":628,"ha":719,"o":"m 155 0 l 34 0 q 81 95 54 51 q 138 176 108 139 q 202 241 169 212 q 270 289 236 270 q 191 314 227 297 q 130 359 156 332 q 90 421 104 386 q 76 499 76 456 q 98 601 76 559 q 157 670 120 644 q 245 708 195 696 q 351 720 295 720 l 628 720 l 628 0 l 511 0 l 511 296 q 411 263 459 284 q 319 206 363 241 q 234 120 275 171 q 155 0 193 69 m 511 615 l 342 615 q 275 605 303 615 q 230 580 247 596 q 205 542 213 564 q 197 496 197 520 q 209 441 197 464 q 242 403 221 418 q 293 381 264 388 q 358 373 323 373 q 397 375 378 373 q 434 379 416 376 q 471 387 452 382 q 511 401 489 392 l 511 615 "},"Ё":{"x_min":102,"x_max":781,"ha":863,"o":"m 102 0 l 102 994 l 766 994 l 766 877 l 228 877 l 228 580 l 703 580 l 703 462 l 228 462 l 228 119 l 781 119 l 781 0 l 102 0 m 259 1054 l 259 1188 l 382 1188 l 382 1054 l 259 1054 m 481 1054 l 481 1188 l 604 1188 l 604 1054 l 481 1054 "},"՜":{"x_min":-43,"x_max":286.625,"ha":340,"o":"m -36 798 q -41 826 -40 812 q -43 854 -43 841 q -28 919 -43 892 q 10 964 -13 945 q 61 996 33 983 q 116 1022 89 1010 q 149 1038 132 1029 q 178 1059 165 1047 q 199 1086 191 1071 q 207 1121 207 1101 q 206 1136 207 1130 q 203 1146 205 1143 l 280 1146 q 285 1117 283 1132 q 286 1090 286 1103 q 271 1025 286 1051 q 233 979 256 998 q 181 947 209 960 q 127 922 153 934 q 94 905 110 914 q 64 885 77 896 q 43 857 51 873 q 35 823 35 842 q 37 807 35 813 q 39 798 38 801 l -36 798 "},"ń":{"x_min":92,"x_max":652,"ha":744,"o":"m 196 720 l 196 659 q 239 690 217 676 q 288 714 261 705 q 344 729 314 724 q 412 735 375 735 q 589 673 527 735 q 652 497 652 612 l 652 0 l 535 0 l 535 476 q 528 544 535 515 q 504 593 521 574 q 457 623 486 613 q 384 633 428 633 q 318 625 346 633 q 268 607 289 618 q 232 582 246 596 q 209 555 217 568 l 209 0 l 92 0 l 92 720 l 196 720 m 349 994 l 500 994 l 373 798 l 241 798 l 349 994 "},"Г":{"x_min":102,"x_max":712,"ha":712,"o":"m 102 994 l 712 994 l 712 877 l 228 877 l 228 0 l 102 0 l 102 994 "},"Ь":{"x_min":102,"x_max":832,"ha":900,"o":"m 282 577 q 377 599 328 591 q 479 608 426 608 q 616 588 551 608 q 728 529 680 568 q 804 434 776 490 q 832 305 832 378 q 808 182 832 238 q 737 85 784 126 q 618 22 689 44 q 453 0 548 0 l 102 0 l 102 994 l 228 994 l 228 119 l 463 119 q 570 132 526 119 q 642 170 614 145 q 683 230 670 195 q 696 309 696 265 q 678 390 696 356 q 631 447 661 425 q 560 481 601 470 q 471 493 519 493 q 423 489 448 493 q 374 480 398 486 q 326 468 349 475 q 282 452 303 461 l 282 577 "},"ֶ":{"x_min":102,"x_max":373,"ha":475,"o":"m 256 -156 l 256 -51 l 373 -51 l 373 -156 l 256 -156 m 179 -303 l 179 -198 l 296 -198 l 296 -303 l 179 -303 m 102 -156 l 102 -51 l 219 -51 l 219 -156 l 102 -156 "},"¤":{"x_min":53.8125,"x_max":700.1875,"ha":755,"o":"m 149 643 l 53 737 l 127 814 l 224 718 q 296 753 259 741 q 376 765 334 765 q 457 753 419 765 q 529 718 494 741 l 625 814 l 700 737 l 603 643 q 638 570 626 607 q 650 491 650 532 q 638 414 650 451 q 603 340 626 376 l 700 246 l 625 169 l 529 265 q 457 230 494 242 q 376 219 419 219 q 296 230 334 219 q 224 265 259 242 l 127 169 l 53 246 l 149 340 q 115 414 127 376 q 104 491 104 451 q 115 570 104 532 q 149 643 127 607 m 197 492 q 210 422 197 455 q 249 365 224 390 q 306 327 273 341 q 376 313 338 313 q 446 327 413 313 q 503 365 478 341 q 541 422 527 390 q 555 492 555 455 q 541 561 555 528 q 503 618 527 593 q 446 656 478 642 q 376 671 413 671 q 307 656 339 671 q 249 618 274 642 q 211 561 225 593 q 197 492 197 528 "},"p":{"x_min":92,"x_max":711,"ha":779,"o":"m 209 110 q 264 94 230 101 q 346 87 299 87 q 401 91 372 87 q 456 107 429 95 q 507 138 483 118 q 550 190 531 158 q 579 265 568 221 q 590 368 590 309 q 573 498 590 447 q 528 580 556 549 q 460 622 499 610 q 378 634 422 634 q 322 627 348 634 q 273 610 295 621 q 235 585 252 600 q 209 554 219 570 l 209 110 m 196 720 l 196 669 q 284 718 236 701 q 396 735 333 735 q 513 715 456 735 q 613 652 569 695 q 684 539 658 608 q 711 372 711 470 q 694 233 711 292 q 649 131 677 174 q 584 59 621 88 q 506 15 547 31 q 423 -8 465 -1 q 343 -15 381 -15 q 268 -9 302 -15 q 209 1 234 -4 l 209 -276 l 92 -276 l 92 720 l 196 720 "},"֏":{"x_min":60,"x_max":976,"ha":1010,"o":"m 433 245 l 683 245 l 683 319 l 433 319 l 433 413 l 683 413 l 683 671 q 664 773 683 730 q 613 844 646 816 q 534 886 579 872 q 434 900 488 900 q 334 886 380 900 q 255 844 289 872 q 204 773 222 816 q 186 671 186 730 l 186 602 l 60 602 l 60 664 q 88 814 60 749 q 167 922 117 878 q 286 987 218 965 q 434 1009 355 1009 q 582 987 513 1009 q 701 922 650 965 q 780 814 751 878 q 809 664 809 750 l 809 413 l 976 413 l 976 319 l 809 319 l 809 245 l 976 245 l 976 151 l 809 151 l 809 0 l 682 0 l 682 151 l 433 151 l 433 245 "},"Ю":{"x_min":102,"x_max":1269,"ha":1344,"o":"m 102 0 l 102 994 l 228 994 l 228 573 l 427 573 q 458 745 433 665 q 533 883 483 825 q 659 975 582 941 q 846 1009 736 1009 q 1048 968 967 1009 q 1178 859 1129 928 q 1248 696 1227 789 q 1269 497 1269 603 q 1248 297 1269 390 q 1178 134 1227 204 q 1048 25 1129 65 q 846 -15 967 -15 q 652 21 731 -15 q 524 120 574 57 q 451 270 475 184 q 424 455 428 355 l 228 455 l 228 0 l 102 0 m 560 497 q 574 324 560 398 q 621 200 588 249 q 709 125 654 150 q 846 100 764 100 q 983 125 928 100 q 1071 200 1038 150 q 1118 324 1104 249 q 1133 497 1133 398 q 1118 669 1133 595 q 1071 793 1104 744 q 983 868 1038 843 q 846 894 928 894 q 709 868 764 894 q 621 793 654 843 q 574 669 588 744 q 560 497 560 595 "},"ր":{"x_min":92,"x_max":652,"ha":744,"o":"m 196 720 l 196 659 q 239 690 217 676 q 288 714 261 705 q 344 729 314 724 q 412 735 375 735 q 589 673 527 735 q 652 497 652 612 l 652 0 l 535 0 l 535 476 q 528 544 535 515 q 504 593 521 574 q 457 623 486 613 q 384 633 428 633 q 318 625 346 633 q 268 607 289 618 q 232 582 246 596 q 209 555 217 568 l 209 -276 l 92 -276 l 92 720 l 196 720 "},"ο":{"x_min":61,"x_max":709,"ha":770,"o":"m 61 360 q 78 506 61 437 q 134 625 95 574 q 234 705 172 676 q 385 735 296 735 q 534 705 473 735 q 635 625 596 676 q 691 506 673 574 q 709 360 709 437 q 691 213 709 282 q 635 94 673 145 q 534 14 596 44 q 385 -15 473 -15 q 234 14 296 -15 q 134 94 172 44 q 78 213 95 145 q 61 360 61 282 m 182 360 q 193 244 182 294 q 229 158 205 193 q 292 105 253 123 q 385 87 330 87 q 477 105 439 87 q 540 158 516 123 q 576 244 565 193 q 588 360 588 294 q 576 475 588 425 q 540 561 565 526 q 477 614 516 596 q 385 633 439 633 q 292 614 330 633 q 229 561 253 596 q 193 475 205 526 q 182 360 182 425 "},"S":{"x_min":81,"x_max":767,"ha":836,"o":"m 444 1009 q 590 1002 529 1009 q 694 988 651 996 l 694 863 q 639 876 666 870 q 583 885 612 881 q 519 891 553 889 q 444 894 485 894 q 280 852 339 894 q 222 730 222 811 q 245 660 222 686 q 307 615 268 633 q 394 584 345 597 q 494 557 443 572 q 594 522 545 543 q 681 469 643 502 q 743 386 720 436 q 767 263 767 336 q 740 143 767 195 q 666 56 714 91 q 551 2 618 20 q 403 -15 484 -15 q 316 -11 360 -15 q 229 -2 271 -8 q 153 11 188 3 q 97 26 118 18 l 97 152 q 228 115 151 131 q 403 100 304 100 q 567 141 508 100 q 626 263 626 182 q 610 334 626 305 q 569 384 595 364 q 508 419 543 405 q 434 444 473 432 q 353 465 394 455 q 272 489 312 475 q 198 522 233 503 q 137 568 163 540 q 96 636 111 597 q 81 730 81 675 q 107 850 81 797 q 181 937 133 902 q 296 991 229 973 q 444 1009 363 1009 "},"/":{"x_min":7,"x_max":384.5,"ha":392,"o":"m 7 0 l 289 994 l 384 994 l 101 0 l 7 0 "},"ׁ":{"x_min":178,"x_max":295,"ha":475,"o":"m 178 834 l 178 939 l 295 939 l 295 834 l 178 834 "},"ђ":{"x_min":-10,"x_max":697,"ha":765,"o":"m 343 938 l 343 833 l 222 833 l 222 669 q 258 693 238 682 q 302 715 278 705 q 354 729 326 724 q 416 735 382 735 q 526 714 475 735 q 615 649 577 694 q 675 532 653 604 q 697 359 697 461 q 688 231 697 298 q 668 98 680 164 q 639 -26 655 32 q 608 -132 623 -86 l 484 -132 q 514 -30 498 -89 q 544 94 531 28 q 567 229 558 160 q 576 359 576 297 q 564 488 576 436 q 529 572 552 540 q 473 619 506 605 q 395 633 439 633 q 326 624 356 633 q 275 603 296 616 q 241 578 254 591 q 222 555 228 565 l 222 0 l 105 0 l 105 833 l -10 833 l -10 938 l 105 938 l 105 994 l 222 994 l 222 938 l 343 938 "},"y":{"x_min":14,"x_max":647,"ha":661,"o":"m 647 720 q 628 623 640 678 q 597 505 615 568 q 557 375 579 442 q 510 241 535 307 q 459 112 485 174 q 408 0 433 50 q 349 -109 379 -57 q 283 -202 319 -161 q 203 -266 247 -242 q 104 -290 159 -290 q 92 -289 100 -290 q 72 -287 83 -289 q 50 -283 62 -286 q 28 -276 38 -281 l 28 -170 q 51 -178 39 -176 q 72 -182 62 -181 q 90 -184 83 -184 q 101 -185 98 -185 q 149 -175 127 -185 q 194 -143 172 -165 q 238 -86 216 -121 q 286 0 260 -51 q 230 112 259 51 q 173 241 201 174 q 118 375 144 307 q 71 506 92 443 q 34 624 49 568 q 14 720 19 679 l 131 720 q 160 592 139 663 q 211 442 181 521 q 276 283 241 364 q 346 127 311 202 q 409 286 380 205 q 463 444 439 367 q 504 592 487 521 q 530 720 521 663 l 647 720 "},"Π":{"x_min":102,"x_max":830,"ha":952,"o":"m 102 0 l 102 994 l 830 994 l 830 0 l 704 0 l 704 877 l 228 877 l 228 0 l 102 0 "},"ხ":{"x_min":92,"x_max":741,"ha":802,"o":"m 209 994 l 209 638 q 282 706 241 675 q 368 760 322 736 q 462 803 413 784 q 560 836 511 821 l 608 738 q 539 725 582 734 q 449 699 495 715 q 602 670 547 706 q 687 587 658 635 q 728 478 715 538 q 741 353 741 418 q 723 208 741 275 q 667 91 705 140 q 566 13 628 41 q 416 -15 505 -15 q 266 14 328 -15 q 165 94 204 44 q 109 213 127 145 q 92 359 92 282 l 92 994 l 209 994 m 416 618 q 353 609 385 618 q 294 584 322 601 q 244 544 266 568 q 209 490 221 521 l 209 353 q 258 155 209 223 q 416 87 308 87 q 509 104 471 87 q 572 155 548 121 q 608 238 596 188 q 620 353 620 288 q 609 466 620 417 q 574 549 598 516 q 511 600 550 583 q 416 618 472 618 "},"յ":{"x_min":-104,"x_max":209,"ha":301,"o":"m -104 -179 q -70 -185 -86 -182 q -36 -188 -54 -188 q 17 -181 -6 -188 q 58 -157 41 -175 q 83 -109 75 -140 q 92 -29 92 -78 l 92 720 l 209 720 l 209 -29 q 190 -158 209 -107 q 139 -238 171 -208 q 64 -278 107 -267 q -27 -289 21 -289 q -65 -287 -45 -289 q -104 -283 -84 -286 l -104 -179 "},"–":{"x_min":0,"x_max":567.671875,"ha":568,"o":"m 0 329 l 0 429 l 567 429 l 567 329 l 0 329 "},"ë":{"x_min":62,"x_max":712,"ha":773,"o":"m 671 23 q 611 7 640 14 q 551 -4 581 0 q 486 -12 520 -9 q 414 -15 453 -15 q 254 10 320 -15 q 144 82 187 35 q 81 198 101 130 q 62 353 62 267 q 83 513 62 443 q 147 633 105 584 q 249 708 188 682 q 387 735 309 735 q 528 708 467 735 q 629 634 589 682 q 691 516 670 585 q 712 360 712 447 l 712 333 l 185 333 q 239 147 185 207 q 414 87 294 87 q 487 89 454 87 q 549 96 520 91 q 607 110 578 101 q 671 129 636 118 l 671 23 m 587 435 q 526 583 576 534 q 387 633 475 633 q 311 620 346 633 q 251 582 277 607 q 209 520 225 557 q 187 435 192 483 l 587 435 m 213 860 l 213 994 l 336 994 l 336 860 l 213 860 m 435 860 l 435 994 l 558 994 l 558 860 l 435 860 "},"б":{"x_min":81,"x_max":730,"ha":791,"o":"m 428 888 q 337 867 374 884 q 274 822 299 851 q 234 748 249 792 q 212 645 220 705 q 295 698 249 679 q 400 720 342 717 q 554 696 491 724 q 656 618 618 668 q 712 499 695 568 q 730 353 730 431 q 712 208 730 275 q 656 91 694 140 q 555 13 617 41 q 405 -15 493 -15 q 254 14 316 -15 q 154 94 193 44 q 98 213 115 145 q 81 360 81 282 q 84 555 81 464 q 104 719 87 645 q 158 848 121 792 q 262 941 194 904 q 355 977 307 967 q 454 991 404 987 q 556 998 505 995 q 660 1011 608 1001 l 660 909 q 614 900 641 903 q 557 895 588 897 q 493 892 526 893 q 428 888 460 890 m 400 618 q 335 608 366 618 q 279 584 305 599 q 234 547 254 568 q 203 504 215 527 q 202 432 202 469 q 202 353 202 394 q 213 238 202 288 q 249 155 225 188 q 312 104 273 121 q 405 87 351 87 q 498 104 459 87 q 561 155 537 121 q 597 238 585 188 q 609 353 609 288 q 559 550 609 483 q 400 618 509 618 "},"ƒ":{"x_min":-105,"x_max":608,"ha":589,"o":"m 213 -93 q 183 -175 204 -138 q 131 -236 162 -211 q 60 -276 100 -262 q -29 -290 19 -290 q -66 -288 -46 -290 q -105 -284 -86 -287 l -105 -179 q -67 -185 -87 -183 q -29 -188 -46 -188 q 13 -182 -6 -188 q 50 -166 34 -177 q 79 -137 67 -154 q 97 -93 91 -119 l 247 615 l 145 615 l 168 720 l 270 720 l 289 813 q 320 894 299 858 q 371 955 341 930 q 443 995 402 981 q 532 1009 483 1009 q 569 1007 549 1009 q 608 1003 589 1006 l 608 898 q 570 904 590 902 q 532 907 549 907 q 489 901 509 907 q 452 885 469 896 q 423 856 435 874 q 406 813 411 838 l 386 720 l 519 720 l 497 615 l 363 615 l 213 -93 "},"у":{"x_min":14,"x_max":647,"ha":701,"o":"m 647 720 q 628 623 640 678 q 597 505 615 568 q 557 375 579 442 q 510 241 535 307 q 459 112 485 174 q 408 0 433 50 q 349 -109 379 -57 q 283 -202 319 -161 q 203 -266 247 -242 q 104 -290 159 -290 q 92 -289 100 -290 q 72 -287 83 -289 q 50 -283 62 -286 q 28 -276 38 -281 l 28 -170 q 51 -178 39 -176 q 72 -182 62 -181 q 90 -184 83 -184 q 101 -185 98 -185 q 149 -175 127 -185 q 194 -143 172 -165 q 238 -86 216 -121 q 286 0 260 -51 q 230 112 259 51 q 173 241 201 174 q 118 375 144 307 q 71 506 92 443 q 34 624 49 568 q 14 720 19 679 l 131 720 q 160 592 139 663 q 211 442 181 521 q 276 283 241 364 q 346 127 311 202 q 409 286 380 205 q 463 444 439 367 q 504 592 487 521 q 530 720 521 663 l 647 720 "},"J":{"x_min":-129.28125,"x_max":228,"ha":330,"o":"m -129 -79 q -105 -82 -117 -81 q -81 -83 -93 -83 q -8 -72 -41 -83 q 49 -35 25 -61 q 88 38 74 -8 q 102 157 102 85 l 102 994 l 228 994 l 228 145 q 205 -6 228 59 q 143 -114 183 -71 q 45 -179 102 -157 q -80 -202 -11 -202 q -104 -201 -92 -202 q -129 -198 -117 -200 l -129 -79 "},"ŕ":{"x_min":92,"x_max":481,"ha":489,"o":"m 223 994 l 374 994 l 247 798 l 115 798 l 223 994 m 92 0 l 92 720 l 196 720 l 196 659 q 230 685 210 672 q 276 709 250 698 q 338 727 303 720 q 418 735 373 735 q 432 734 424 735 q 449 733 440 734 q 466 730 457 732 q 481 728 474 729 l 481 614 q 434 629 459 625 q 385 633 410 633 q 321 626 350 633 q 271 608 293 619 q 233 583 249 597 q 209 555 217 569 l 209 0 l 92 0 "},"‐":{"x_min":37,"x_max":371,"ha":403,"o":"m 37 298 l 37 421 l 371 421 l 371 298 l 37 298 "},"ώ":{"x_min":89,"x_max":995,"ha":1084,"o":"m 601 290 q 611 192 601 231 q 640 130 621 153 q 682 96 658 106 q 734 86 707 86 q 800 103 773 86 q 845 155 828 121 q 869 236 862 189 q 877 342 877 284 q 872 424 877 381 q 855 513 867 466 q 824 611 843 559 q 775 720 805 663 l 884 720 q 966 532 937 624 q 995 350 995 440 q 979 198 995 265 q 932 83 963 130 q 854 10 900 35 q 748 -15 809 -15 q 621 15 671 -15 q 542 119 571 46 q 463 15 513 46 q 336 -15 413 -15 q 229 10 275 -15 q 152 83 183 35 q 104 198 120 130 q 89 350 89 265 q 117 532 89 440 q 200 720 146 624 l 308 720 q 259 611 279 663 q 228 513 240 559 q 211 424 216 466 q 207 342 207 381 q 214 236 207 284 q 238 155 221 189 q 283 103 255 121 q 350 86 310 86 q 401 96 376 86 q 443 130 425 106 q 473 192 462 153 q 484 290 484 231 l 484 432 l 601 432 l 601 290 m 520 994 l 671 994 l 544 798 l 412 798 l 520 994 "},"˘":{"x_min":12,"x_max":449,"ha":463,"o":"m 230 910 q 270 913 251 910 q 305 925 290 916 q 331 951 320 935 q 346 994 341 967 l 449 994 q 426 922 444 954 q 380 868 408 891 q 313 834 351 846 q 229 822 275 822 q 146 834 183 822 q 80 868 108 846 q 34 922 52 891 q 12 994 16 954 l 115 994 q 129 951 119 967 q 155 925 140 935 q 189 913 170 916 q 230 910 208 910 "},"D":{"x_min":102,"x_max":914,"ha":975,"o":"m 102 994 q 198 997 156 994 q 279 1002 240 999 q 360 1006 318 1004 q 456 1009 401 1009 q 663 972 576 1009 q 806 870 750 936 q 887 714 861 804 q 914 514 914 623 q 888 294 914 389 q 806 133 862 198 q 663 33 751 67 q 452 0 576 0 l 102 0 l 102 994 m 784 497 q 702 797 784 701 q 456 894 621 894 q 324 889 380 894 q 228 884 268 884 l 228 119 l 452 119 q 600 140 537 119 q 702 206 662 161 q 762 323 743 252 q 784 497 782 395 "},"ĺ":{"x_min":34.84375,"x_max":293,"ha":300,"o":"m 92 0 l 92 994 l 209 994 l 209 0 l 92 0 m 142 1268 l 293 1268 l 166 1072 l 34 1072 l 142 1268 "},"ł":{"x_min":0.4375,"x_max":300.5625,"ha":300,"o":"m 92 0 l 92 374 l 0 302 l 0 412 l 92 485 l 92 994 l 209 994 l 209 577 l 300 650 l 300 537 l 209 465 l 209 0 l 92 0 "},"ц":{"x_min":92,"x_max":753,"ha":760,"o":"m 209 105 l 535 105 l 535 720 l 652 720 l 652 105 l 753 105 l 753 -157 l 636 -157 l 636 0 l 92 0 l 92 720 l 209 720 l 209 105 "},"Л":{"x_min":0,"x_max":814,"ha":916,"o":"m 814 994 l 814 0 l 688 0 l 688 877 l 356 877 q 338 562 352 698 q 300 327 323 426 q 244 162 276 228 q 174 56 212 96 q 92 1 136 17 q 0 -15 48 -15 l 0 104 q 61 123 31 105 q 116 181 90 141 q 162 288 141 222 q 198 453 183 354 q 221 685 213 551 q 230 994 230 818 l 814 994 "},"$":{"x_min":90,"x_max":749,"ha":828,"o":"m 373 -142 l 373 -14 q 294 -9 333 -13 q 220 0 255 -5 q 155 12 185 5 q 106 27 126 20 l 106 153 q 220 118 156 134 q 373 101 284 103 l 373 459 q 304 479 338 469 q 238 504 269 490 q 180 536 207 517 q 133 583 153 555 q 101 646 113 610 q 90 730 90 682 q 109 839 90 791 q 164 921 128 887 q 253 977 201 956 q 373 1006 306 998 l 373 1086 l 462 1086 l 462 1009 q 530 1007 499 1008 q 587 1002 561 1005 q 634 995 613 999 q 676 989 656 992 l 676 863 q 627 876 650 870 q 579 885 604 881 q 525 891 554 889 q 462 894 497 893 l 462 565 q 531 544 496 555 q 597 516 565 532 q 657 479 629 500 q 705 427 684 457 q 737 356 725 396 q 749 264 749 316 q 729 154 749 203 q 672 71 709 106 q 582 15 635 36 q 462 -11 529 -5 l 462 -142 l 373 -142 m 608 264 q 596 327 608 300 q 566 374 585 354 q 519 408 546 394 q 462 432 493 422 l 462 105 q 608 264 608 127 m 231 730 q 241 679 231 700 q 271 641 252 657 q 316 613 290 624 q 373 591 342 601 l 373 889 q 231 730 231 865 "},"w":{"x_min":14,"x_max":950,"ha":964,"o":"m 468 720 q 493 595 475 665 q 535 448 511 525 q 590 292 560 372 q 650 128 619 213 q 709 292 680 213 q 764 448 739 372 q 806 595 788 525 q 833 720 824 665 l 950 720 q 930 623 943 678 q 900 506 918 568 q 859 375 882 443 q 812 241 837 307 q 761 113 787 174 q 711 0 736 51 l 589 0 q 535 121 562 54 q 481 259 507 187 q 428 121 456 187 q 373 0 401 54 l 252 0 q 201 113 227 51 q 151 241 175 174 q 104 375 126 307 q 63 506 81 443 q 32 624 45 568 q 14 720 20 679 l 131 720 q 156 594 138 665 q 199 446 174 524 q 254 289 224 369 q 314 128 283 209 q 375 262 345 188 q 429 413 404 337 q 377 588 397 511 q 351 720 358 665 l 468 720 "},"о":{"x_min":61,"x_max":709,"ha":770,"o":"m 61 360 q 78 506 61 437 q 134 625 95 574 q 234 705 172 676 q 385 735 296 735 q 534 705 473 735 q 635 625 596 676 q 691 506 673 574 q 709 360 709 437 q 691 213 709 282 q 635 94 673 145 q 534 14 596 44 q 385 -15 473 -15 q 234 14 296 -15 q 134 94 172 44 q 78 213 95 145 q 61 360 61 282 m 182 360 q 193 244 182 294 q 229 158 205 193 q 292 105 253 123 q 385 87 330 87 q 477 105 439 87 q 540 158 516 123 q 576 244 565 193 q 588 360 588 294 q 576 475 588 425 q 540 561 565 526 q 477 614 516 596 q 385 633 439 633 q 292 614 330 633 q 229 561 253 596 q 193 475 205 526 q 182 360 182 425 "},"Д":{"x_min":14,"x_max":973,"ha":987,"o":"m 272 994 l 856 994 l 856 119 l 973 119 l 973 -157 l 847 -157 l 847 0 l 140 0 l 140 -157 l 14 -157 l 14 119 l 120 119 q 179 223 152 155 q 227 397 207 291 q 260 651 248 504 q 272 994 272 798 m 730 877 l 398 877 q 358 412 392 601 q 266 119 324 224 l 730 119 l 730 877 "},"Ç":{"x_min":68,"x_max":781,"ha":815,"o":"m 200 497 q 221 314 200 389 q 285 191 243 239 q 390 121 327 143 q 535 100 453 100 q 592 101 561 100 q 655 105 623 102 q 719 113 687 108 q 781 127 751 119 l 781 7 q 735 0 759 3 q 682 -7 711 -4 q 616 -12 652 -10 q 534 -15 580 -15 q 326 18 414 -15 q 180 116 238 52 q 95 277 123 181 q 68 497 68 372 q 95 703 68 609 q 178 865 122 797 q 322 971 235 933 q 530 1009 410 1009 q 677 1002 616 1009 q 781 988 738 996 l 781 863 q 726 876 753 870 q 669 885 699 881 q 606 891 640 889 q 531 894 572 894 q 283 797 367 894 q 200 497 200 701 m 498 15 l 596 15 l 573 -58 q 658 -92 631 -64 q 685 -156 685 -120 q 673 -204 685 -181 q 638 -246 661 -227 q 579 -275 615 -264 q 493 -286 543 -286 l 396 -286 l 396 -200 l 467 -200 q 547 -186 523 -200 q 572 -149 572 -172 q 568 -133 572 -141 q 553 -118 565 -124 q 520 -108 542 -112 q 462 -104 499 -104 l 498 15 "},"Ս":{"x_min":102,"x_max":851,"ha":952,"o":"m 851 343 q 822 190 851 257 q 743 78 793 124 q 624 8 692 32 q 476 -15 555 -15 q 328 8 397 -15 q 209 78 260 32 q 130 190 159 124 q 102 343 102 257 l 102 994 l 228 994 l 228 336 q 246 232 228 277 q 297 156 264 186 q 376 109 331 125 q 476 94 422 94 q 576 109 530 94 q 655 156 621 125 q 706 232 688 186 q 725 336 725 277 l 725 994 l 851 994 l 851 343 "},"C":{"x_min":61,"x_max":774,"ha":808,"o":"m 193 497 q 214 314 193 389 q 278 191 236 239 q 383 121 320 143 q 528 100 446 100 q 585 101 554 100 q 648 105 616 102 q 712 113 680 108 q 774 127 744 119 l 774 7 q 728 0 752 3 q 675 -7 704 -4 q 609 -12 645 -10 q 527 -15 573 -15 q 319 18 407 -15 q 173 116 231 52 q 88 277 116 181 q 61 497 61 372 q 88 703 61 609 q 171 865 115 797 q 315 971 228 933 q 523 1009 403 1009 q 670 1002 609 1009 q 774 988 731 996 l 774 863 q 719 876 746 870 q 662 885 692 881 q 599 891 633 889 q 524 894 565 894 q 276 797 360 894 q 193 497 193 701 "},"↷":{"x_min":101.734375,"x_max":1106.859375,"ha":1146,"o":"m 101 432 q 197 528 144 485 q 312 601 250 570 q 442 647 373 631 q 584 664 511 664 q 797 627 698 664 q 980 521 896 590 l 981 522 q 969 539 978 531 q 955 559 961 548 q 939 598 948 577 q 922 640 930 618 q 907 682 914 661 q 897 724 901 704 l 945 739 q 1015 561 973 644 q 1106 413 1058 479 l 1085 387 q 917 425 1009 410 q 727 439 825 439 l 725 488 q 767 491 745 491 q 813 490 790 491 q 858 487 836 489 q 900 483 881 485 q 919 479 912 481 q 935 474 927 477 q 775 566 866 533 q 584 599 684 599 q 458 584 519 599 q 341 542 396 569 q 239 477 286 516 q 153 393 191 439 l 101 432 "},"ღ":{"x_min":68,"x_max":972,"ha":1040,"o":"m 463 429 q 452 525 463 486 q 422 588 441 564 q 380 623 404 612 q 329 634 355 634 q 221 566 254 634 q 188 360 188 498 q 209 190 188 260 q 272 71 230 119 q 380 -7 315 22 q 534 -54 445 -37 q 686 -92 621 -72 q 797 -140 752 -113 q 868 -200 843 -166 q 902 -276 894 -233 l 766 -276 q 687 -203 747 -229 q 540 -175 628 -178 q 485 -176 517 -174 q 416 -181 453 -177 q 342 -190 380 -184 q 269 -204 304 -195 q 204 -223 234 -212 q 156 -248 175 -234 l 156 -137 q 203 -119 178 -127 q 255 -106 229 -112 q 308 -97 282 -100 q 358 -92 334 -94 q 229 -32 284 -72 q 138 65 174 7 q 85 197 102 123 q 68 360 68 272 q 81 506 68 438 q 123 625 94 574 q 201 705 153 676 q 319 735 249 735 q 388 727 358 735 q 443 704 419 720 q 486 662 468 688 q 520 601 505 637 q 556 663 536 638 q 601 704 576 688 q 657 727 626 720 q 727 735 688 735 q 834 709 788 735 q 910 636 879 684 q 956 521 940 589 q 972 369 972 453 q 944 187 972 279 q 863 0 917 95 l 754 0 q 803 108 784 56 q 834 206 822 160 q 851 295 846 253 q 856 377 856 338 q 848 483 856 436 q 824 564 841 530 q 779 616 807 598 q 712 634 752 634 q 661 623 685 634 q 618 588 636 612 q 588 525 599 564 q 578 429 578 486 l 578 294 l 463 294 l 463 429 "},"È":{"x_min":102,"x_max":781,"ha":863,"o":"m 102 0 l 102 994 l 766 994 l 766 877 l 228 877 l 228 580 l 703 580 l 703 462 l 228 462 l 228 119 l 781 119 l 781 0 l 102 0 m 510 1072 l 378 1072 l 252 1268 l 403 1268 l 510 1072 "},"ﬁ":{"x_min":34,"x_max":652,"ha":742,"o":"m 535 853 l 535 905 q 487 907 498 907 q 454 907 475 907 q 365 899 403 907 q 302 874 327 892 q 265 826 278 856 q 253 749 253 795 l 253 720 l 416 720 l 416 615 l 253 615 l 253 0 l 136 0 l 136 615 l 34 615 l 34 720 l 136 720 l 136 749 q 153 860 136 812 q 209 942 171 909 q 309 992 248 975 q 456 1009 369 1009 q 502 1008 480 1009 q 554 1007 524 1008 q 608 1005 584 1006 q 652 1003 631 1004 l 652 853 l 535 853 m 535 0 l 535 720 l 652 720 l 652 0 l 535 0 "},"X":{"x_min":6.359375,"x_max":838.359375,"ha":845,"o":"m 820 994 q 757 865 793 928 q 679 741 721 802 q 592 623 637 681 q 500 507 546 564 q 599 384 550 446 q 692 258 648 321 q 774 130 737 194 q 838 0 811 65 l 701 0 q 649 102 678 51 q 584 205 619 154 q 506 309 548 257 q 422 413 464 360 q 337 309 379 360 q 260 205 295 257 q 195 102 225 154 q 143 0 165 51 l 6 0 q 70 130 32 65 q 151 258 107 194 q 245 384 195 321 q 344 507 294 446 q 252 623 298 564 q 165 741 207 681 q 87 865 123 802 q 24 994 51 928 l 161 994 q 209 897 181 945 q 270 799 236 848 q 342 700 303 749 q 422 601 381 650 q 501 700 462 650 q 573 799 540 749 q 634 897 606 848 q 683 994 662 945 l 820 994 "},"ô":{"x_min":61,"x_max":709,"ha":770,"o":"m 61 360 q 78 506 61 437 q 134 625 95 574 q 234 705 172 676 q 385 735 296 735 q 534 705 473 735 q 635 625 596 676 q 691 506 673 574 q 709 360 709 437 q 691 213 709 282 q 635 94 673 145 q 534 14 596 44 q 385 -15 473 -15 q 234 14 296 -15 q 134 94 172 44 q 78 213 95 145 q 61 360 61 282 m 182 360 q 193 244 182 294 q 229 158 205 193 q 292 105 253 123 q 385 87 330 87 q 477 105 439 87 q 540 158 516 123 q 576 244 565 193 q 588 360 588 294 q 576 475 588 425 q 540 561 565 526 q 477 614 516 596 q 385 633 439 633 q 292 614 330 633 q 229 561 253 596 q 193 475 205 526 q 182 360 182 425 m 314 995 l 441 995 l 577 811 l 458 811 l 377 933 l 297 811 l 179 811 l 314 995 "},"ՙ":{"x_min":93,"x_max":234.75,"ha":363,"o":"m 227 798 l 227 659 l 93 659 l 93 798 q 118 914 93 866 q 202 995 145 969 l 234 942 q 178 892 196 925 q 160 798 160 859 l 227 798 "},"Ė":{"x_min":102,"x_max":781,"ha":863,"o":"m 102 0 l 102 994 l 766 994 l 766 877 l 228 877 l 228 580 l 703 580 l 703 462 l 228 462 l 228 119 l 781 119 l 781 0 l 102 0 m 307 1117 l 307 1268 l 458 1268 l 458 1117 l 307 1117 "},"г":{"x_min":92,"x_max":516,"ha":528,"o":"m 92 720 l 516 720 l 516 615 l 209 615 l 209 0 l 92 0 l 92 720 "},"჻":{"x_min":92,"x_max":732,"ha":823,"o":"m 92 581 l 92 720 l 225 720 l 225 581 l 92 581 m 92 0 l 92 139 l 225 139 l 225 0 l 92 0 m 599 284 l 599 423 l 732 423 l 732 284 l 599 284 "},"ק":{"x_min":92,"x_max":670,"ha":737,"o":"m 209 449 l 209 -276 l 92 -276 l 92 449 l 209 449 m 670 720 l 670 488 q 658 348 670 416 q 622 217 646 280 q 563 100 598 155 q 481 0 527 44 l 345 0 q 433 104 394 51 q 498 217 472 157 q 539 347 525 278 q 553 501 553 417 l 553 615 l 92 615 l 92 720 l 670 720 "},"х":{"x_min":13.796875,"x_max":638.4375,"ha":652,"o":"m 626 720 q 578 623 605 669 q 522 533 552 576 q 460 448 492 490 q 394 367 427 407 q 463 282 428 325 q 529 193 498 239 q 589 100 561 148 q 638 0 616 52 l 517 0 q 434 147 484 75 q 325 289 384 219 q 217 147 268 219 q 134 0 166 75 l 13 0 q 62 100 34 52 q 121 194 90 149 q 188 283 153 240 q 257 368 222 326 q 191 449 224 408 q 129 533 158 490 q 73 623 99 577 q 26 720 47 669 l 149 720 q 223 581 177 648 q 325 446 268 514 q 428 582 382 515 q 503 720 474 649 l 626 720 "},"ը":{"x_min":92,"x_max":673,"ha":744,"o":"m 196 720 l 196 659 q 239 690 217 676 q 288 714 261 705 q 344 729 314 724 q 412 735 375 735 q 589 673 527 735 q 652 497 652 612 l 652 0 l 535 0 l 535 476 q 528 544 535 515 q 504 593 521 574 q 457 623 486 613 q 384 633 428 633 q 318 625 346 633 q 268 607 289 618 q 232 582 246 596 q 209 555 217 568 l 209 -171 l 673 -171 l 673 -276 l 92 -276 l 92 720 l 196 720 "},"Ч":{"x_min":81,"x_max":779,"ha":881,"o":"m 653 0 l 653 399 l 652 399 q 576 372 609 384 q 513 352 543 360 q 456 340 484 344 q 395 336 428 336 q 247 358 307 336 q 149 422 186 380 q 96 525 112 464 q 81 661 81 585 l 81 994 l 207 994 l 207 671 q 216 574 207 615 q 250 505 226 533 q 311 465 273 478 q 407 453 350 453 q 471 456 442 453 q 527 466 499 459 q 584 484 554 473 q 653 510 614 495 l 653 994 l 779 994 l 779 0 l 653 0 "},"":{"x_min":66,"x_max":687,"ha":746,"o":"m 316 -187 q 410 -172 366 -187 q 487 -129 454 -158 q 540 -58 521 -101 q 559 41 559 -15 q 544 132 559 92 q 502 201 529 173 q 437 244 475 229 q 352 259 399 259 q 250 239 295 259 q 180 174 205 219 l 66 174 q 71 303 66 231 q 85 448 76 374 q 105 593 94 522 q 128 720 116 663 l 634 720 q 630 694 632 709 q 625 662 627 679 q 622 631 623 646 q 621 608 621 616 l 223 608 q 215 572 220 595 q 207 522 211 550 q 199 464 203 495 q 192 404 195 433 q 187 348 189 374 q 184 305 185 323 q 221 329 199 318 q 266 346 242 339 q 316 357 291 353 q 363 361 341 361 q 487 343 428 361 q 590 287 545 325 q 660 190 634 249 q 687 52 687 132 q 658 -93 687 -29 q 580 -200 630 -156 q 462 -266 530 -243 q 316 -289 395 -289 q 261 -287 290 -289 q 204 -283 233 -286 q 148 -275 176 -280 q 98 -260 121 -269 l 98 -155 q 145 -170 119 -164 q 201 -180 171 -176 q 259 -185 230 -184 q 316 -187 289 -187 "},"ვ":{"x_min":83,"x_max":693,"ha":760,"o":"m 573 11 q 555 111 573 72 q 510 172 537 150 q 450 202 483 194 q 388 211 418 211 l 318 211 l 318 314 l 386 314 q 449 323 421 314 q 499 352 478 332 q 533 403 521 372 q 545 476 545 433 q 532 549 545 519 q 498 597 520 578 q 444 624 475 616 q 374 633 412 633 q 303 624 335 633 q 249 597 272 616 q 215 548 227 578 q 203 476 203 518 l 83 476 q 105 585 83 537 q 167 667 128 633 q 259 717 206 700 q 374 735 312 735 q 488 717 435 735 q 580 666 541 699 q 642 585 619 633 q 665 476 665 537 q 655 397 665 431 q 629 337 645 362 q 592 294 612 311 q 549 265 571 276 q 604 237 578 257 q 650 184 630 216 q 681 108 670 151 q 693 12 693 64 q 663 -120 693 -63 q 583 -215 634 -177 q 462 -271 532 -252 q 313 -290 393 -290 q 245 -288 278 -290 q 182 -283 212 -286 q 127 -277 152 -281 q 83 -268 101 -273 l 83 -160 q 124 -171 99 -166 q 181 -179 150 -175 q 248 -185 213 -183 q 319 -188 283 -188 q 424 -176 377 -188 q 504 -141 471 -165 q 555 -79 537 -117 q 573 11 573 -41 "},"Յ":{"x_min":68,"x_max":862,"ha":929,"o":"m 76 580 l 465 580 q 557 586 516 580 q 627 609 598 592 q 673 655 657 626 q 689 730 689 684 q 672 810 689 778 q 627 863 656 843 q 556 891 597 883 q 466 900 515 900 q 375 890 416 900 q 304 860 334 881 q 258 807 275 840 q 242 730 242 775 l 242 720 l 111 720 l 111 730 q 135 849 111 798 q 206 937 160 901 q 319 990 253 972 q 466 1009 384 1009 q 613 990 548 1009 q 724 937 679 972 q 795 849 770 901 q 820 730 820 797 q 810 658 820 689 q 784 603 801 627 q 744 561 768 579 q 690 531 719 544 q 763 493 730 518 q 817 435 795 468 q 850 360 839 401 q 862 274 862 320 q 831 147 862 202 q 746 57 800 93 q 620 2 693 20 q 466 -15 548 -15 q 311 2 384 -15 q 185 57 239 20 q 99 147 131 93 q 68 274 68 201 l 68 294 l 197 294 l 197 274 q 215 194 197 228 q 270 137 234 160 q 355 104 305 115 q 466 94 405 94 q 576 104 527 94 q 659 138 625 115 q 711 194 693 160 q 730 274 730 228 q 717 354 730 319 q 673 412 704 388 q 592 449 643 436 q 466 462 542 462 l 76 462 l 76 580 "},"ü":{"x_min":92,"x_max":652,"ha":744,"o":"m 548 0 l 548 60 q 504 28 526 42 q 455 5 482 14 q 399 -9 429 -4 q 331 -15 368 -15 q 154 46 216 -15 q 92 222 92 107 l 92 720 l 209 720 l 209 243 q 215 175 209 204 q 239 126 222 145 q 286 96 257 106 q 359 87 315 87 q 425 94 396 87 q 475 112 454 101 q 511 137 497 123 q 535 164 525 151 l 535 720 l 652 720 l 652 0 l 548 0 m 198 860 l 198 994 l 321 994 l 321 860 l 198 860 m 420 860 l 420 994 l 543 994 l 543 860 l 420 860 "},"ь":{"x_min":92,"x_max":644,"ha":685,"o":"m 372 439 q 487 424 436 439 q 572 383 537 410 q 625 314 607 355 q 644 221 644 274 q 628 129 644 170 q 582 59 613 88 q 503 15 551 30 q 391 0 455 0 l 92 0 l 92 720 l 209 720 l 209 423 q 283 434 241 430 q 372 439 325 439 m 209 105 l 391 105 q 443 110 419 105 q 485 128 468 115 q 513 163 503 141 q 523 216 523 184 q 510 272 523 249 q 477 308 498 294 q 428 328 456 322 q 369 334 400 334 q 281 329 322 334 q 209 318 240 324 l 209 105 "},"Ÿ":{"x_min":0,"x_max":893.890625,"ha":894,"o":"m 378 0 l 378 444 q 259 585 317 513 q 153 727 202 657 q 64 865 104 798 q 0 994 24 932 l 138 994 q 189 891 158 945 q 261 781 221 837 q 347 665 300 724 q 446 549 393 606 q 545 665 498 606 q 632 781 592 724 q 703 891 672 837 q 755 994 734 945 l 893 994 q 828 863 868 931 q 736 723 787 795 q 627 578 686 651 q 507 434 568 505 l 507 0 l 378 0 m 270 1134 l 270 1268 l 393 1268 l 393 1134 l 270 1134 m 492 1134 l 492 1268 l 615 1268 l 615 1134 l 492 1134 "},"€":{"x_min":33.4375,"x_max":730.65625,"ha":792,"o":"m 53 629 l 133 629 q 182 790 148 719 q 268 910 217 861 q 385 983 319 958 q 527 1009 450 1009 q 730 960 641 1009 l 705 828 q 625 884 670 864 q 527 904 580 904 q 437 887 479 904 q 361 835 395 870 q 304 749 328 801 q 269 629 280 698 l 665 629 l 647 531 l 261 531 q 261 483 261 499 q 261 457 261 468 l 632 457 l 614 359 l 272 359 q 361 158 296 226 q 527 90 427 90 q 631 107 589 90 q 704 155 674 124 l 704 21 q 622 -5 666 3 q 527 -15 578 -15 q 383 9 448 -15 q 268 82 318 34 q 185 199 218 130 q 136 359 151 269 l 33 359 l 53 457 l 125 457 q 125 483 125 468 q 125 531 125 499 l 33 531 l 53 629 "},"ז":{"x_min":7,"x_max":405,"ha":411,"o":"m 137 0 l 137 503 q 149 568 137 538 q 181 615 162 599 l 7 615 l 7 720 l 405 720 l 405 615 l 302 615 q 280 595 290 605 q 265 572 271 585 q 257 542 260 559 q 254 503 254 526 l 254 0 l 137 0 "},"в":{"x_min":92,"x_max":682,"ha":743,"o":"m 92 0 l 92 720 l 419 720 q 525 704 480 720 q 600 662 570 688 q 644 602 630 636 q 659 531 659 568 q 655 487 659 509 q 642 445 651 465 q 617 409 632 426 q 580 381 602 392 q 625 352 606 370 q 657 311 645 333 q 675 265 669 289 q 682 221 682 242 q 665 126 682 167 q 618 56 649 84 q 542 14 587 29 q 442 0 498 0 l 92 0 m 443 105 q 488 110 467 105 q 526 129 510 116 q 551 163 542 142 q 561 216 561 185 q 533 297 561 269 q 449 325 506 325 l 209 325 l 209 105 l 443 105 m 448 422 q 492 429 475 422 q 521 451 510 437 q 536 483 532 464 q 541 524 541 501 q 512 592 541 569 q 418 615 483 615 l 209 615 l 209 422 l 448 422 "},"Η":{"x_min":102,"x_max":850,"ha":952,"o":"m 102 0 l 102 994 l 228 994 l 228 580 l 724 580 l 724 994 l 850 994 l 850 0 l 724 0 l 724 462 l 228 462 l 228 0 l 102 0 "},"։":{"x_min":103,"x_max":237,"ha":363,"o":"m 103 581 l 103 720 l 237 720 l 237 581 l 103 581 m 103 0 l 103 139 l 237 139 l 237 0 l 103 0 "},"ﬗ":{"x_min":91,"x_max":1797,"ha":1889,"o":"m 546 0 l 546 60 q 502 28 525 42 q 454 5 480 14 q 397 -9 428 -4 q 330 -15 367 -15 q 153 46 215 -15 q 91 222 91 107 l 91 720 l 208 720 l 208 243 q 214 175 208 204 q 238 126 221 146 q 285 96 256 106 q 358 87 314 87 q 424 94 395 87 q 474 112 453 101 q 510 137 496 123 q 534 164 524 151 l 534 994 l 785 994 l 785 889 l 651 889 l 651 0 l 546 0 m 950 -276 l 833 -276 l 833 994 l 950 994 l 949 669 q 985 692 965 681 q 1029 713 1004 704 q 1082 729 1053 723 q 1146 735 1112 735 q 1230 723 1189 735 q 1303 686 1271 712 q 1355 618 1335 660 q 1374 515 1375 576 l 1373 250 q 1377 189 1373 218 q 1395 137 1381 160 q 1437 100 1410 114 q 1508 87 1464 87 q 1566 93 1540 87 q 1615 110 1593 99 q 1653 134 1636 120 q 1680 164 1669 148 l 1680 720 l 1797 720 l 1797 0 l 1692 0 l 1692 60 q 1656 33 1676 47 q 1610 9 1636 20 q 1553 -8 1584 -1 q 1483 -15 1521 -15 q 1410 -3 1450 -15 q 1335 33 1370 7 q 1278 101 1301 59 q 1256 204 1255 143 l 1258 476 q 1253 536 1258 507 q 1234 586 1249 564 q 1193 620 1220 607 q 1121 633 1166 633 q 1063 626 1090 633 q 1015 609 1036 620 q 976 585 993 599 q 950 555 960 571 l 950 -276 "},"С":{"x_min":61,"x_max":774,"ha":815,"o":"m 193 497 q 214 314 193 389 q 278 191 236 239 q 383 121 320 143 q 528 100 446 100 q 585 101 554 100 q 648 105 616 102 q 712 113 680 108 q 774 127 744 119 l 774 7 q 728 0 752 3 q 675 -7 704 -4 q 609 -12 645 -10 q 527 -15 573 -15 q 319 18 407 -15 q 173 116 231 52 q 88 277 116 181 q 61 497 61 372 q 88 703 61 609 q 171 865 115 797 q 315 971 228 933 q 523 1009 403 1009 q 670 1002 609 1009 q 774 988 731 996 l 774 863 q 719 876 746 870 q 662 885 692 881 q 599 891 633 889 q 524 894 565 894 q 276 797 360 894 q 193 497 193 701 "},"ß":{"x_min":92,"x_max":773,"ha":850,"o":"m 362 1011 q 455 1000 415 1011 q 524 972 495 989 q 572 933 553 955 q 602 887 591 911 q 618 840 614 863 q 623 797 623 816 q 614 735 623 763 q 593 684 606 707 q 565 641 580 660 q 536 604 549 621 q 515 571 523 587 q 507 540 507 556 q 526 500 507 520 q 575 458 546 480 q 640 408 605 435 q 704 350 674 382 q 753 278 733 317 q 773 191 773 239 q 755 103 773 141 q 705 38 737 64 q 630 -2 674 11 q 532 -16 586 -16 q 484 -14 508 -16 q 437 -10 460 -13 q 394 -5 414 -8 q 360 1 374 -2 l 360 103 q 405 95 384 98 q 446 90 426 92 q 486 87 466 88 q 530 86 507 86 q 574 90 553 86 q 612 106 596 94 q 639 138 629 117 q 649 191 649 158 q 629 256 649 227 q 581 311 610 285 q 518 361 552 337 q 455 410 484 385 q 407 463 426 435 q 388 527 388 492 q 396 578 388 555 q 417 621 404 601 q 445 660 430 641 q 472 700 459 679 q 493 743 485 720 q 502 794 502 765 q 495 838 502 817 q 473 874 489 858 q 429 899 457 890 q 359 909 402 909 q 284 898 313 909 q 238 865 255 887 q 215 806 221 842 q 209 720 209 771 l 209 0 l 92 0 l 92 726 q 104 846 92 793 q 147 935 117 899 q 231 991 178 972 q 362 1011 283 1011 "},"њ":{"x_min":92,"x_max":1087,"ha":1127,"o":"m 815 439 q 930 424 879 439 q 1015 383 980 410 q 1068 314 1050 355 q 1087 221 1087 274 q 1071 129 1087 170 q 1025 59 1056 88 q 946 15 994 30 q 834 0 898 0 l 535 0 l 535 318 l 209 318 l 209 0 l 92 0 l 92 720 l 209 720 l 209 423 l 535 423 l 535 720 l 652 720 l 652 423 q 726 434 684 430 q 815 439 768 439 m 652 105 l 834 105 q 886 110 862 105 q 928 128 911 115 q 956 163 946 141 q 966 216 966 184 q 953 272 966 249 q 920 308 941 294 q 871 328 899 322 q 812 334 843 334 q 724 329 765 334 q 652 318 683 324 l 652 105 "},"Ű":{"x_min":102,"x_max":851,"ha":952,"o":"m 851 343 q 822 190 851 257 q 743 78 793 124 q 624 8 692 32 q 476 -15 555 -15 q 328 8 397 -15 q 209 78 260 32 q 130 190 159 124 q 102 343 102 257 l 102 994 l 228 994 l 228 336 q 246 232 228 277 q 297 156 264 186 q 376 109 331 125 q 476 94 422 94 q 576 109 530 94 q 655 156 621 125 q 706 232 688 186 q 725 336 725 277 l 725 994 l 851 994 l 851 343 m 333 1268 l 484 1268 l 357 1072 l 225 1072 l 333 1268 m 616 1268 l 767 1268 l 640 1072 l 508 1072 l 616 1268 "},"պ":{"x_min":92,"x_max":1055,"ha":1147,"o":"m 1055 -276 l 938 -276 l 938 55 q 847 2 897 20 q 741 -15 798 -15 q 626 9 673 -15 q 553 77 580 33 q 453 10 510 35 q 325 -15 397 -15 q 220 2 264 -15 q 147 52 176 20 q 105 130 119 84 q 92 232 92 176 l 92 720 l 209 720 l 209 243 q 214 177 209 206 q 235 128 220 148 q 276 97 250 108 q 343 87 302 87 q 409 95 380 87 q 458 115 437 103 q 493 140 479 126 q 515 164 507 153 l 515 720 l 632 720 l 632 243 q 636 183 632 211 q 654 133 640 155 q 695 99 668 112 q 766 87 722 87 q 824 93 797 87 q 873 110 851 99 q 911 134 894 120 q 938 164 927 148 l 938 720 l 1055 720 l 1055 -276 "},"c":{"x_min":61,"x_max":583,"ha":630,"o":"m 182 360 q 197 225 182 278 q 242 142 213 173 q 315 99 272 111 q 412 87 358 87 q 507 95 466 87 q 583 114 548 103 l 583 11 q 505 -7 551 0 q 412 -15 460 -15 q 147 76 234 -15 q 61 360 61 168 q 83 516 61 447 q 149 634 105 586 q 256 709 192 683 q 405 735 321 735 q 499 728 456 735 q 583 708 542 721 l 583 605 q 502 625 546 617 q 405 633 458 633 q 314 618 356 633 q 243 570 273 603 q 198 486 214 538 q 182 360 182 433 "},"¶":{"x_min":34,"x_max":780.671875,"ha":818,"o":"m 314 994 l 780 994 l 780 883 l 683 883 l 683 -276 l 578 -276 l 578 883 l 413 883 l 413 -276 l 308 -276 l 308 486 q 204 503 254 486 q 117 553 155 520 q 56 633 79 585 q 34 741 34 680 q 56 849 34 802 q 118 929 79 897 q 207 977 156 961 q 314 994 257 994 "},"Ή":{"x_min":-169.15625,"x_max":850,"ha":952,"o":"m 102 0 l 102 994 l 228 994 l 228 580 l 724 580 l 724 994 l 850 994 l 850 0 l 724 0 l 724 462 l 228 462 l 228 0 l 102 0 m -62 995 l 89 995 l -37 799 l -169 799 l -62 995 "},"Ի":{"x_min":102,"x_max":851,"ha":885,"o":"m 851 293 l 725 293 l 725 383 q 706 486 725 442 q 655 562 688 531 q 576 608 621 592 q 476 626 530 624 q 397 618 435 626 q 327 594 359 609 q 270 556 295 578 q 228 506 244 533 l 228 0 l 102 0 l 102 994 l 228 994 l 228 651 q 342 713 278 691 q 476 735 406 735 q 624 710 555 735 q 743 640 692 686 q 822 528 793 594 q 851 376 851 461 l 851 293 "},"γ":{"x_min":13.40625,"x_max":630.265625,"ha":644,"o":"m 263 0 q 247 106 260 48 q 216 227 235 164 q 173 355 197 290 q 122 484 149 421 q 67 608 95 548 q 13 720 39 668 l 136 720 q 187 614 160 673 q 239 491 213 555 q 285 361 264 427 q 321 238 307 296 q 355 361 334 296 q 403 491 377 427 q 456 614 429 555 q 507 720 483 673 l 630 720 q 576 608 603 668 q 521 484 548 548 q 470 355 494 421 q 426 227 445 290 q 395 106 407 164 q 380 0 382 48 l 380 -276 l 263 -276 l 263 0 "},"­":{"x_min":32.640625,"x_max":366.640625,"ha":402,"o":"m 32 298 l 32 421 l 366 421 l 366 298 l 32 298 "},":":{"x_min":92,"x_max":226,"ha":317,"o":"m 92 581 l 92 720 l 226 720 l 226 581 l 92 581 m 92 0 l 92 139 l 226 139 l 226 0 l 92 0 "},"ś":{"x_min":55,"x_max":558,"ha":611,"o":"m 320 735 q 425 727 381 735 q 504 708 469 719 l 504 605 q 416 625 459 618 q 321 633 373 633 q 255 628 283 633 q 207 611 226 623 q 179 580 188 599 q 172 530 170 560 q 190 484 173 502 q 235 455 207 467 q 296 435 262 444 q 367 416 331 427 q 437 389 403 405 q 498 348 471 374 q 541 284 525 322 q 558 189 558 246 q 538 100 558 138 q 484 37 519 62 q 399 -1 448 11 q 291 -15 351 -15 q 228 -12 260 -15 q 165 -5 195 -9 q 110 5 135 0 q 67 19 84 11 l 67 124 q 163 98 107 110 q 291 87 218 87 q 358 91 329 87 q 404 108 386 96 q 432 139 423 120 q 441 189 441 159 q 424 251 441 227 q 380 291 407 276 q 318 316 353 306 q 248 335 284 326 q 177 358 211 345 q 115 392 142 370 q 71 447 88 414 q 55 530 55 480 q 74 618 55 580 q 128 682 93 657 q 212 721 163 708 q 320 735 261 735 m 284 994 l 435 994 l 308 798 l 176 798 l 284 994 "},"֊":{"x_min":48,"x_max":437,"ha":438,"o":"m 437 328 q 338 284 389 302 q 236 264 286 267 q 137 276 185 262 q 48 327 89 290 l 48 476 q 148 409 96 429 q 249 387 199 389 q 347 399 299 386 q 437 430 394 412 l 437 328 "}," ":{"x_min":0,"x_max":0,"ha":397},"У":{"x_min":34,"x_max":830,"ha":850,"o":"m 830 994 q 805 896 823 951 q 761 778 787 841 q 702 645 735 714 q 632 505 669 576 q 557 364 596 434 q 480 228 518 293 q 406 105 442 163 q 340 0 370 46 l 199 0 q 287 138 239 61 q 386 303 335 216 q 307 422 347 361 q 231 544 267 483 q 161 666 194 605 q 102 784 128 726 q 58 895 76 842 q 34 994 40 947 l 160 994 q 193 878 167 943 q 259 737 220 812 q 349 580 299 661 q 452 419 399 499 q 541 586 498 503 q 619 745 585 669 q 676 885 653 821 q 707 994 700 949 l 830 994 "},"¾":{"x_min":92,"x_max":1062.328125,"ha":1153,"o":"m 161 -15 l 889 1009 l 987 1009 l 259 -15 l 161 -15 m 922 0 l 922 107 l 698 107 l 698 177 q 806 343 743 262 q 941 498 870 424 l 1012 498 l 1012 188 l 1062 188 l 1062 107 l 1012 107 l 1012 0 l 922 0 m 922 188 l 922 364 q 851 277 884 322 q 793 188 817 232 l 922 188 m 204 564 q 243 567 225 564 q 275 579 261 570 q 297 605 289 589 q 306 647 306 621 q 297 688 306 672 q 277 714 289 704 q 249 726 264 723 q 222 730 235 730 l 194 730 l 194 806 l 221 806 q 247 808 235 806 q 268 818 259 811 q 283 836 278 825 q 288 864 288 847 q 267 912 288 898 q 216 927 247 927 q 161 921 191 927 q 107 908 132 916 l 107 987 q 216 1002 162 1002 q 277 992 248 1002 q 330 965 307 983 q 366 921 353 947 q 380 863 380 896 q 375 831 380 845 q 364 806 371 817 q 348 786 357 795 q 331 771 339 778 q 355 752 343 763 q 377 724 368 740 q 393 689 387 708 q 400 647 400 669 q 383 574 400 604 q 340 525 367 544 q 277 497 312 506 q 204 489 242 489 q 148 494 178 489 q 92 506 117 499 l 92 586 q 117 578 102 582 q 147 571 132 574 q 176 566 161 568 q 204 564 191 564 "},"Ί":{"x_min":-177.15625,"x_max":228,"ha":330,"o":"m 102 0 l 102 994 l 228 994 l 228 0 l 102 0 m -70 995 l 81 995 l -45 799 l -177 799 l -70 995 "},"Ģ":{"x_min":73,"x_max":905,"ha":1006,"o":"m 528 100 q 613 102 572 100 q 686 107 654 104 q 744 111 719 109 q 779 114 768 114 l 779 462 l 504 462 l 504 580 l 905 580 l 905 0 q 794 -2 841 0 q 704 -7 746 -4 q 621 -12 662 -10 q 528 -15 579 -15 q 321 18 407 -15 q 179 116 235 52 q 98 277 124 181 q 73 497 73 372 q 100 703 73 609 q 185 865 127 797 q 331 971 242 933 q 544 1009 420 1009 q 632 1005 588 1009 q 714 996 675 1002 q 784 985 753 991 q 836 973 816 979 l 836 847 q 775 863 808 855 q 704 878 741 871 q 626 889 666 885 q 544 894 585 894 q 289 797 375 894 q 203 497 203 701 q 223 314 203 389 q 283 191 243 239 q 385 121 323 143 q 528 100 446 100 m 434 -243 l 434 -104 l 568 -104 l 568 -243 q 541 -325 568 -288 q 458 -389 515 -362 l 425 -337 q 480 -298 460 -323 q 500 -243 500 -273 l 434 -243 "},"m":{"x_min":92,"x_max":1055,"ha":1147,"o":"m 196 720 l 196 659 q 231 686 210 672 q 277 710 251 699 q 335 728 303 721 q 404 735 366 735 q 519 710 472 735 q 592 642 566 686 q 692 709 635 684 q 821 735 749 735 q 926 717 882 735 q 999 667 970 699 q 1041 589 1027 635 q 1055 487 1055 543 l 1055 0 l 938 0 l 938 476 q 932 542 938 513 q 911 591 926 572 q 870 622 896 611 q 803 633 844 633 q 737 624 766 633 q 688 604 709 616 q 653 579 667 593 q 632 555 639 566 l 632 0 l 515 0 l 515 476 q 510 536 515 507 q 492 586 506 564 q 451 620 478 607 q 380 633 424 633 q 322 626 349 633 q 273 609 295 620 q 235 585 252 599 q 209 555 219 571 l 209 0 l 92 0 l 92 720 l 196 720 "},"Е":{"x_min":102,"x_max":781,"ha":863,"o":"m 102 0 l 102 994 l 766 994 l 766 877 l 228 877 l 228 580 l 703 580 l 703 462 l 228 462 l 228 119 l 781 119 l 781 0 l 102 0 "},"ž":{"x_min":74,"x_max":643,"ha":711,"o":"m 630 720 l 630 627 q 555 558 596 599 q 471 469 514 517 q 386 370 428 421 q 307 270 343 319 q 242 178 271 221 q 199 105 213 135 l 643 105 l 643 0 l 74 0 l 74 98 q 121 189 90 139 q 188 289 151 238 q 264 391 224 340 q 341 485 305 441 q 409 562 378 528 q 459 615 440 596 l 92 615 l 92 720 l 630 720 m 375 884 l 456 994 l 587 994 l 435 809 l 305 809 l 158 994 l 291 994 l 375 884 "},"ჶ":{"x_min":61,"x_max":1020,"ha":1081,"o":"m 599 -93 q 618 -166 599 -144 q 683 -188 638 -188 q 708 -186 693 -188 q 739 -181 722 -184 q 774 -174 756 -178 q 808 -165 792 -170 l 808 -270 q 775 -278 792 -274 q 740 -284 757 -281 q 708 -288 723 -286 q 682 -290 693 -290 q 596 -276 633 -290 q 533 -236 558 -262 q 494 -174 507 -211 q 482 -93 482 -138 l 482 7 q 419 -10 450 -5 q 348 -15 388 -15 q 240 3 292 -15 q 149 65 189 21 q 85 180 109 108 q 61 360 61 252 q 85 540 61 468 q 149 655 109 612 q 242 717 189 699 q 351 735 294 735 q 482 706 423 735 l 482 813 q 461 886 482 864 q 397 908 441 908 q 372 906 386 908 q 340 901 357 904 q 305 894 323 898 q 272 885 287 890 l 272 990 q 304 998 286 994 q 339 1004 322 1001 q 371 1008 356 1006 q 397 1010 386 1010 q 484 996 446 1010 q 546 956 521 982 q 585 894 572 931 q 599 813 599 858 l 599 706 q 729 735 655 735 q 838 717 786 735 q 931 655 891 699 q 995 540 971 612 q 1020 360 1020 468 q 995 180 1020 252 q 931 65 971 108 q 840 3 891 21 q 732 -15 788 -15 q 661 -10 691 -15 q 599 7 630 -5 l 599 -93 m 719 87 q 795 99 762 87 q 851 142 828 112 q 886 226 874 173 q 899 360 899 279 q 886 491 899 438 q 851 575 874 543 q 795 619 828 606 q 719 633 762 633 q 599 599 638 633 l 599 116 q 626 100 612 106 q 654 92 639 95 q 685 88 669 89 q 719 87 701 87 m 361 633 q 285 619 318 633 q 229 575 252 606 q 194 491 206 543 q 182 360 182 438 q 194 226 182 279 q 229 142 206 173 q 285 99 252 112 q 361 87 318 87 q 426 91 398 87 q 482 116 454 96 l 482 599 q 361 633 442 633 "},"á":{"x_min":54,"x_max":649,"ha":741,"o":"m 545 60 q 490 22 517 37 q 435 0 463 8 q 376 -11 406 -8 q 311 -15 345 -15 q 201 0 249 -15 q 120 43 153 15 q 70 111 87 71 q 54 199 54 151 q 75 299 54 255 q 134 372 96 342 q 225 419 173 403 q 339 435 277 435 l 532 435 l 532 496 q 520 553 532 527 q 486 596 509 578 q 426 623 462 614 q 339 633 389 633 q 285 631 310 633 q 239 627 261 630 q 197 620 217 624 q 155 610 176 616 l 155 715 q 197 723 176 719 q 240 729 218 726 q 286 733 262 732 q 339 735 310 735 q 479 718 421 735 q 576 669 538 701 q 631 595 613 638 q 649 499 649 551 l 649 0 l 545 0 l 545 60 m 532 333 l 339 333 q 263 322 295 333 q 212 294 232 312 q 184 253 193 276 q 175 205 175 230 q 186 151 175 173 q 219 114 198 128 q 270 93 241 100 q 333 87 299 87 q 450 104 403 87 q 532 164 497 121 l 532 333 m 343 994 l 494 994 l 367 798 l 235 798 l 343 994 "},"×":{"x_min":84.734375,"x_max":627.609375,"ha":709,"o":"m 548 218 l 356 411 l 172 227 l 92 307 l 276 491 l 84 682 l 163 761 l 354 570 l 538 753 l 618 673 l 435 489 l 627 297 l 548 218 "},"՝":{"x_min":32,"x_max":315.8125,"ha":317,"o":"m 315 798 l 197 798 l 32 1062 l 170 1062 l 315 798 "},"п":{"x_min":92,"x_max":645,"ha":736,"o":"m 92 0 l 92 720 l 645 720 l 645 0 l 528 0 l 528 615 l 209 615 l 209 0 l 92 0 "},"K":{"x_min":102,"x_max":846,"ha":878,"o":"m 102 0 l 102 994 l 228 994 l 228 580 l 240 580 q 303 589 267 580 q 380 620 339 599 q 464 674 421 641 q 546 753 506 707 q 620 859 586 799 q 677 994 653 919 l 810 994 q 749 844 785 912 q 669 719 713 775 q 577 620 626 664 q 479 545 528 576 q 560 460 519 505 q 640 368 601 415 q 712 272 678 320 q 774 176 746 223 q 819 84 801 128 q 846 0 838 39 l 714 0 q 667 109 700 48 q 589 235 635 170 q 485 365 542 300 q 365 487 428 430 q 240 462 294 462 l 228 462 l 228 0 l 102 0 "},"7":{"x_min":107.5625,"x_max":725.09375,"ha":834,"o":"m 107 882 l 107 994 l 725 994 l 725 882 q 587 667 652 777 q 472 446 522 558 q 388 222 421 334 q 348 0 355 110 l 212 0 q 255 214 222 103 q 340 436 289 324 q 458 661 392 549 q 601 882 525 774 l 107 882 "},"¨":{"x_min":61,"x_max":406,"ha":467,"o":"m 61 860 l 61 994 l 184 994 l 184 860 l 61 860 m 283 860 l 283 994 l 406 994 l 406 860 l 283 860 "},"Y":{"x_min":0,"x_max":893.890625,"ha":894,"o":"m 378 0 l 378 444 q 259 585 317 513 q 153 727 202 657 q 64 865 104 798 q 0 994 24 932 l 138 994 q 189 891 158 945 q 261 781 221 837 q 347 665 300 724 q 446 549 393 606 q 545 665 498 606 q 632 781 592 724 q 703 891 672 837 q 755 994 734 945 l 893 994 q 828 863 868 931 q 736 723 787 795 q 627 578 686 651 q 507 434 568 505 l 507 0 l 378 0 "},"E":{"x_min":102,"x_max":781,"ha":863,"o":"m 102 0 l 102 994 l 766 994 l 766 877 l 228 877 l 228 580 l 703 580 l 703 462 l 228 462 l 228 119 l 781 119 l 781 0 l 102 0 "},"Ô":{"x_min":61,"x_max":936,"ha":997,"o":"m 433 1269 l 560 1269 l 696 1085 l 577 1085 l 496 1207 l 416 1085 l 298 1085 l 433 1269 m 61 497 q 84 696 61 603 q 159 859 107 789 q 294 968 210 928 q 498 1009 377 1009 q 702 968 619 1009 q 837 859 786 928 q 912 696 889 789 q 936 497 936 603 q 912 297 936 390 q 837 134 889 204 q 702 25 786 65 q 498 -15 619 -15 q 294 25 377 -15 q 159 134 210 65 q 84 297 107 204 q 61 497 61 390 m 191 497 q 208 323 191 398 q 262 197 225 248 q 357 120 299 146 q 498 94 416 94 q 638 120 580 94 q 734 197 696 146 q 788 323 771 248 q 806 497 806 398 q 788 670 806 595 q 734 796 771 745 q 638 873 696 847 q 498 900 580 900 q 357 873 416 900 q 262 796 299 847 q 208 670 225 745 q 191 497 191 595 "},"Є":{"x_min":62.046875,"x_max":775,"ha":836,"o":"m 659 580 l 201 580 q 298 817 217 741 q 525 894 379 894 q 598 891 566 894 q 657 885 630 889 q 709 876 684 881 q 762 863 734 870 l 762 988 q 717 996 740 992 q 665 1002 693 999 q 602 1007 636 1005 q 525 1009 568 1009 q 317 971 404 1009 q 172 865 229 933 q 89 703 116 797 q 62 497 62 609 q 89 277 62 372 q 174 116 117 181 q 320 18 232 52 q 528 -15 408 -15 q 610 -12 574 -15 q 676 -7 646 -10 q 729 0 705 -4 q 775 7 753 3 l 775 127 q 713 113 745 119 q 649 105 681 108 q 586 101 617 102 q 528 100 555 100 q 390 120 450 100 q 288 183 330 140 q 224 295 246 227 q 198 462 201 364 l 659 462 l 659 580 "},"Ï":{"x_min":-7,"x_max":338,"ha":330,"o":"m 102 0 l 102 994 l 228 994 l 228 0 l 102 0 m -7 1134 l -7 1268 l 116 1268 l 116 1134 l -7 1134 m 215 1134 l 215 1268 l 338 1268 l 338 1134 l 215 1134 "},"έ":{"x_min":48,"x_max":563,"ha":611,"o":"m 352 735 q 442 730 404 735 q 508 720 480 725 l 508 611 q 434 626 472 620 q 345 633 396 633 q 290 628 315 633 q 246 612 264 623 q 216 580 227 600 q 206 532 206 561 q 213 488 206 508 q 237 453 220 467 q 282 430 254 438 q 349 422 309 422 l 410 422 l 410 317 l 319 317 q 206 289 243 317 q 169 215 169 261 q 183 158 169 183 q 220 118 197 134 q 274 94 244 102 q 338 87 305 87 q 466 98 410 87 q 563 124 522 110 l 563 15 q 521 4 546 9 q 465 -5 495 -1 q 402 -12 435 -9 q 338 -15 369 -15 q 216 4 270 -15 q 125 54 163 23 q 68 128 88 86 q 48 215 48 170 q 55 265 48 240 q 76 313 62 291 q 112 354 90 335 q 163 386 133 373 q 130 411 144 396 q 105 445 115 426 q 90 485 95 464 q 85 527 85 506 q 99 607 85 570 q 147 673 114 645 q 229 718 179 701 q 352 735 280 735 m 284 994 l 435 994 l 308 798 l 176 798 l 284 994 "},"ֳ":{"x_min":26,"x_max":450,"ha":475,"o":"m 196 -227 l 111 -227 l 111 -136 l 26 -136 l 26 -51 l 281 -51 l 281 -136 l 196 -136 l 196 -227 m 332 -303 l 332 -198 l 448 -198 l 448 -303 l 332 -303 m 333 -156 l 333 -51 l 450 -51 l 450 -156 l 333 -156 "},"ϋ":{"x_min":92,"x_max":673,"ha":743,"o":"m 371 -15 q 256 2 308 -15 q 168 53 205 19 q 112 135 132 86 q 92 246 92 183 l 92 720 l 209 720 l 209 240 q 250 124 209 162 q 371 87 291 87 q 452 100 418 87 q 508 146 486 114 q 541 231 530 178 q 552 360 552 283 q 548 432 552 388 q 538 526 545 476 q 520 626 530 576 q 495 720 509 677 l 619 720 q 644 621 634 673 q 661 519 655 569 q 670 427 667 469 q 673 359 673 385 q 649 182 673 254 q 584 66 625 110 q 488 3 543 22 q 371 -15 433 -15 m 195 860 l 195 994 l 318 994 l 318 860 l 195 860 m 417 860 l 417 994 l 540 994 l 540 860 l 417 860 "},"ן":{"x_min":92,"x_max":209,"ha":300,"o":"m 209 720 l 209 -276 l 92 -276 l 92 720 l 209 720 "},"й":{"x_min":92,"x_max":657,"ha":748,"o":"m 210 720 l 210 248 q 209 220 210 235 q 207 190 208 206 q 265 313 230 248 q 345 447 301 379 q 437 585 388 515 q 536 720 486 654 l 657 720 l 657 0 l 539 0 l 539 477 q 539 524 539 505 q 541 562 540 543 q 457 445 501 511 q 370 305 413 379 q 287 153 327 231 q 211 0 246 75 l 92 0 l 92 720 l 210 720 m 389 910 q 430 913 410 910 q 464 925 449 916 q 490 951 480 935 q 505 994 501 967 l 608 994 q 585 922 603 954 q 539 868 568 891 q 473 834 511 846 q 388 822 434 822 q 305 834 343 822 q 239 868 267 846 q 193 922 211 891 q 171 994 176 954 l 274 994 q 288 951 278 967 q 314 925 299 935 q 349 913 330 916 q 389 910 368 910 "},"b":{"x_min":92,"x_max":711.015625,"ha":773,"o":"m 209 994 l 209 678 q 287 718 241 702 q 401 735 332 735 q 515 715 459 735 q 615 652 571 695 q 685 539 658 608 q 711 372 711 470 q 679 194 710 267 q 597 74 648 120 q 479 6 546 27 q 340 -15 412 -15 q 281 -12 313 -15 q 217 -3 249 -9 q 152 10 184 1 q 92 31 120 19 l 92 994 l 209 994 m 209 111 q 267 93 234 99 q 343 87 299 87 q 449 105 403 87 q 526 161 495 124 q 572 250 556 197 q 590 368 588 302 q 576 493 590 442 q 533 575 561 543 q 466 620 506 606 q 378 634 427 634 q 319 626 347 634 q 271 608 292 619 q 233 583 249 597 q 209 554 217 568 l 209 111 "},"გ":{"x_min":75,"x_max":723,"ha":770,"o":"m 138 715 q 170 723 152 719 q 205 729 188 726 q 237 733 222 731 q 263 735 252 735 q 350 721 312 735 q 412 681 387 707 q 451 620 438 656 q 465 539 465 583 l 465 455 q 583 412 534 445 q 663 330 632 379 q 708 218 694 280 q 723 85 723 155 q 705 -60 723 7 q 649 -180 687 -129 q 548 -260 610 -230 q 399 -290 487 -290 q 248 -260 310 -290 q 148 -180 186 -230 q 92 -60 109 -129 q 75 85 75 7 q 89 221 75 157 q 136 334 104 284 q 221 416 169 384 q 348 458 273 449 l 348 539 q 327 611 348 589 q 263 633 307 633 q 238 631 252 633 q 206 626 223 629 q 171 619 189 623 q 138 610 153 615 l 138 715 m 196 85 q 207 -30 196 20 q 243 -116 219 -81 q 306 -169 267 -151 q 399 -188 344 -188 q 491 -169 453 -188 q 554 -116 530 -151 q 590 -30 579 -81 q 602 85 602 20 q 590 201 602 150 q 554 287 579 252 q 491 340 530 322 q 399 359 453 359 q 306 340 344 359 q 243 287 267 322 q 207 201 219 252 q 196 85 196 150 "},"̃":{"x_min":-574.5,"x_max":-122.125,"ha":0,"o":"m -574 1130 q -451 1186 -527 1186 q -393 1176 -422 1186 q -336 1155 -364 1167 q -283 1134 -309 1143 q -236 1125 -258 1125 q -177 1142 -208 1125 q -122 1188 -147 1159 l -122 1099 q -178 1059 -149 1072 q -244 1047 -207 1047 q -298 1056 -269 1047 q -354 1077 -326 1065 q -408 1098 -381 1089 q -459 1108 -435 1108 q -486 1105 -474 1108 q -512 1095 -499 1102 q -540 1076 -525 1088 q -574 1045 -555 1064 l -574 1130 "},"ύ":{"x_min":92,"x_max":673,"ha":713,"o":"m 371 -15 q 256 2 308 -15 q 168 53 205 19 q 112 135 132 86 q 92 246 92 183 l 92 720 l 209 720 l 209 240 q 250 124 209 162 q 371 87 291 87 q 452 100 418 87 q 508 146 486 114 q 541 231 530 178 q 552 360 552 283 q 548 432 552 388 q 538 526 545 476 q 520 626 530 576 q 495 720 509 677 l 619 720 q 644 621 634 673 q 661 519 655 569 q 670 427 667 469 q 673 359 673 385 q 649 182 673 254 q 584 66 625 110 q 488 3 543 22 q 371 -15 433 -15 m 334 994 l 485 994 l 358 798 l 226 798 l 334 994 "},"ﬂ":{"x_min":34,"x_max":651,"ha":742,"o":"m 534 0 l 534 905 q 499 907 517 907 q 454 907 481 907 q 365 899 403 907 q 302 874 327 892 q 265 826 278 856 q 253 749 253 795 l 253 720 l 416 720 l 416 615 l 253 615 l 253 0 l 136 0 l 136 615 l 34 615 l 34 720 l 136 720 l 136 749 q 153 860 136 812 q 209 942 171 909 q 308 992 247 975 q 456 1009 369 1009 q 511 1008 486 1009 q 560 1007 536 1008 q 607 1005 583 1006 q 651 1003 630 1004 l 651 0 l 534 0 "},"ყ":{"x_min":68,"x_max":660,"ha":751,"o":"m 189 360 q 200 226 189 279 q 235 142 212 173 q 291 99 258 112 q 369 87 325 87 q 412 90 388 87 q 459 101 435 93 q 505 125 483 110 q 543 164 526 140 l 543 720 l 660 720 l 660 -39 q 642 -136 660 -90 q 587 -215 624 -181 q 490 -269 549 -249 q 350 -290 432 -290 q 297 -288 321 -290 q 251 -284 273 -287 q 208 -278 229 -281 q 166 -270 187 -274 l 166 -165 q 208 -175 187 -171 q 250 -182 228 -179 q 296 -186 272 -185 q 350 -188 321 -188 q 437 -177 400 -188 q 497 -147 473 -166 q 531 -101 520 -128 q 543 -43 543 -75 l 543 56 q 501 24 522 37 q 456 2 479 11 q 406 -10 433 -6 q 348 -15 380 -15 q 238 4 289 -15 q 149 68 187 24 q 89 184 111 112 q 68 359 68 256 q 70 427 68 385 q 79 519 73 469 q 95 621 85 569 q 121 720 106 673 l 245 720 q 220 626 231 677 q 202 526 210 576 q 192 432 195 476 q 189 360 189 388 "},"Ւ":{"x_min":102,"x_max":634,"ha":634,"o":"m 634 602 l 228 602 l 228 0 l 102 0 l 102 994 l 228 994 l 228 720 l 634 720 l 634 602 "},"״":{"x_min":32.84375,"x_max":557,"ha":579,"o":"m 140 720 l 291 720 l 164 524 l 32 524 l 140 720 m 406 720 l 557 720 l 430 524 l 298 524 l 406 720 "},"ф":{"x_min":61,"x_max":1020,"ha":1081,"o":"m 599 994 l 599 706 q 729 735 655 735 q 838 717 786 735 q 931 655 891 699 q 995 540 971 612 q 1020 360 1020 468 q 995 180 1020 252 q 931 65 971 108 q 840 3 891 21 q 732 -15 788 -15 q 661 -10 691 -15 q 599 7 630 -5 l 599 -276 l 482 -276 l 482 7 q 419 -10 450 -5 q 348 -15 388 -15 q 240 3 292 -15 q 149 65 189 21 q 85 180 109 108 q 61 360 61 252 q 85 540 61 468 q 149 655 109 612 q 242 717 189 699 q 351 735 294 735 q 482 706 423 735 l 482 994 l 599 994 m 361 633 q 285 619 318 633 q 229 575 252 606 q 194 491 206 543 q 182 360 182 438 q 194 226 182 279 q 229 142 206 173 q 285 99 252 112 q 361 87 318 87 q 426 91 398 87 q 482 116 454 96 l 482 599 q 361 633 442 633 m 719 87 q 795 99 762 87 q 851 142 828 112 q 886 226 874 173 q 899 360 899 279 q 886 491 899 438 q 851 575 874 543 q 795 619 828 606 q 719 633 762 633 q 599 599 638 633 l 599 116 q 626 100 612 106 q 654 92 639 95 q 685 88 669 89 q 719 87 701 87 "},"ო":{"x_min":61,"x_max":967,"ha":1028,"o":"m 573 294 l 456 294 l 456 429 q 445 527 456 488 q 415 589 434 566 q 373 623 397 613 q 322 634 348 634 q 255 616 282 634 q 210 564 227 598 q 186 483 193 530 q 179 377 179 436 q 183 295 179 338 q 200 206 188 253 q 231 108 212 160 q 280 0 251 56 l 172 0 q 89 187 118 95 q 61 369 61 279 q 76 521 61 454 q 124 636 92 589 q 201 709 155 684 q 308 735 247 735 q 435 704 385 735 q 514 601 485 673 q 593 704 543 673 q 720 735 643 735 q 826 709 781 735 q 904 636 872 684 q 951 521 935 589 q 967 369 967 454 q 938 187 967 279 q 855 0 909 95 l 747 0 q 796 108 776 56 q 827 206 815 160 q 844 295 839 253 q 849 377 849 338 q 841 483 849 436 q 817 564 834 530 q 772 616 800 598 q 706 634 745 634 q 654 623 679 634 q 612 589 630 613 q 583 527 593 566 q 573 429 573 488 l 573 294 "},"׀":{"x_min":141,"x_max":241,"ha":382,"o":"m 141 -15 l 141 1009 l 241 1009 l 241 -15 l 141 -15 "},"Щ":{"x_min":102,"x_max":1324,"ha":1317,"o":"m 102 0 l 102 994 l 228 994 l 228 119 l 582 119 l 582 994 l 708 994 l 708 119 l 1062 119 l 1062 994 l 1188 994 l 1188 119 l 1324 119 l 1324 -157 l 1198 -157 l 1198 0 l 102 0 "},"L":{"x_min":102,"x_max":698,"ha":699,"o":"m 102 0 l 102 994 l 228 994 l 228 119 l 698 119 l 698 0 l 102 0 "},"ֲ":{"x_min":26,"x_max":449,"ha":475,"o":"m 332 -156 l 332 -51 l 449 -51 l 449 -156 l 332 -156 m 332 -303 l 332 -198 l 449 -198 l 449 -303 l 332 -303 m 26 -136 l 26 -51 l 280 -51 l 280 -136 l 26 -136 "},"ď":{"x_min":62,"x_max":909,"ha":933,"o":"m 564 599 q 501 622 543 612 q 406 633 458 633 q 326 621 366 633 q 254 577 286 609 q 202 491 222 546 q 183 351 183 436 q 199 221 183 272 q 244 139 216 170 q 311 97 273 109 q 394 86 350 86 q 453 94 426 86 q 502 115 480 102 q 538 144 523 128 q 564 177 554 160 l 564 599 m 577 0 l 577 61 q 491 4 542 24 q 376 -15 439 -15 q 259 4 316 -15 q 159 67 203 24 q 88 180 114 111 q 62 347 62 249 q 76 482 62 424 q 117 584 91 541 q 177 655 143 627 q 250 702 211 684 q 329 727 288 720 q 408 735 370 735 q 454 732 431 735 q 498 726 477 730 q 536 718 519 723 q 564 708 553 713 l 564 996 l 681 996 l 681 0 l 577 0 m 775 855 l 775 994 l 909 994 l 909 854 q 883 738 909 786 q 799 658 855 684 l 766 710 q 823 760 804 727 q 841 855 841 793 l 775 855 "},"Ο":{"x_min":61,"x_max":936,"ha":997,"o":"m 61 497 q 84 696 61 603 q 159 859 107 789 q 294 968 210 928 q 498 1009 377 1009 q 702 968 619 1009 q 837 859 786 928 q 912 696 889 789 q 936 497 936 603 q 912 297 936 390 q 837 134 889 204 q 702 25 786 65 q 498 -15 619 -15 q 294 25 377 -15 q 159 134 210 65 q 84 297 107 204 q 61 497 61 390 m 191 497 q 208 323 191 398 q 262 197 225 248 q 357 120 299 146 q 498 94 416 94 q 638 120 580 94 q 734 197 696 146 q 788 323 771 248 q 806 497 806 398 q 788 670 806 595 q 734 796 771 745 q 638 873 696 847 q 498 900 580 900 q 357 873 416 900 q 262 796 299 847 q 208 670 225 745 q 191 497 191 595 "},"À":{"x_min":0,"x_max":907,"ha":908,"o":"m 779 0 q 755 97 769 44 q 723 209 741 150 q 684 332 705 268 q 640 462 663 396 l 311 462 q 315 473 311 464 q 323 495 318 483 q 333 522 327 508 q 342 549 338 536 q 350 570 346 561 q 354 580 353 579 l 596 580 q 534 734 566 658 q 470 877 502 809 l 435 877 q 371 732 403 809 q 308 576 338 656 q 250 417 278 497 q 198 262 222 337 q 157 120 175 187 q 128 0 138 53 l 0 0 q 37 153 14 69 q 89 325 60 236 q 151 506 118 414 q 219 685 184 598 q 290 851 254 772 q 360 994 326 930 l 546 994 q 616 851 580 930 q 687 685 652 772 q 755 506 722 598 q 817 325 788 414 q 869 153 846 236 q 907 0 892 69 l 779 0 m 582 1072 l 450 1072 l 324 1268 l 475 1268 l 582 1072 "},"Ϊ":{"x_min":-7,"x_max":338,"ha":330,"o":"m 102 0 l 102 994 l 228 994 l 228 0 l 102 0 m -7 1134 l -7 1268 l 116 1268 l 116 1134 l -7 1134 m 215 1134 l 215 1268 l 338 1268 l 338 1134 l 215 1134 "},"½":{"x_min":91,"x_max":1061.28125,"ha":1153,"o":"m 161 -15 l 888 1009 l 987 1009 l 259 -15 l 161 -15 m 253 496 l 164 496 l 164 917 l 91 917 l 91 994 l 253 994 l 253 496 m 873 431 q 825 426 849 431 q 767 412 801 422 l 767 492 q 819 501 791 497 q 871 506 848 506 q 950 494 915 506 q 1010 460 985 482 q 1048 407 1034 438 q 1061 338 1061 376 q 1044 256 1061 294 q 1001 185 1028 217 q 940 126 974 152 q 871 81 906 99 l 1057 81 l 1057 0 l 754 0 l 754 77 q 840 136 801 106 q 907 197 879 165 q 951 263 936 228 q 967 338 967 298 q 959 380 967 363 q 939 408 952 397 q 909 425 926 420 q 873 431 892 431 "},"'":{"x_min":68,"x_max":202,"ha":270,"o":"m 98 642 l 68 827 l 68 994 l 202 994 l 202 827 l 170 642 l 98 642 "},"Р":{"x_min":102,"x_max":832,"ha":900,"o":"m 282 568 q 329 552 303 559 q 381 540 355 545 q 431 531 407 534 q 471 528 454 528 q 560 537 519 528 q 631 566 601 546 q 678 618 661 586 q 696 697 696 650 q 687 776 696 740 q 654 838 679 812 q 583 879 628 864 q 463 894 537 894 q 330 889 387 894 q 228 885 273 885 l 228 0 l 102 0 l 102 994 q 207 996 158 994 q 299 1001 256 998 q 380 1006 342 1004 q 453 1009 418 1009 q 627 987 555 1009 q 744 926 699 966 q 810 830 789 886 q 832 701 832 773 q 804 575 832 629 q 728 484 776 520 q 616 430 680 448 q 479 413 551 413 q 435 415 460 413 q 384 421 411 417 q 331 430 357 425 q 282 443 305 436 l 282 568 "},"˛":{"x_min":16,"x_max":313.53125,"ha":329,"o":"m 41 15 l 125 15 q 110 -42 115 -15 q 106 -95 106 -70 q 131 -172 106 -146 q 199 -199 156 -199 q 253 -194 225 -199 q 313 -174 282 -190 l 313 -255 q 276 -271 295 -264 q 236 -281 256 -277 q 198 -287 217 -285 q 164 -290 179 -290 q 103 -279 130 -290 q 56 -249 76 -268 q 26 -201 37 -229 q 16 -140 16 -173 q 21 -72 16 -110 q 41 15 27 -33 "},"Պ":{"x_min":34,"x_max":985,"ha":1087,"o":"m 164 647 l 164 602 l 34 602 l 34 662 q 52 774 34 724 q 104 863 71 824 q 182 929 137 901 q 280 974 227 956 q 391 1000 332 992 q 511 1009 450 1009 q 694 990 608 1009 q 845 929 780 971 q 947 821 909 887 q 985 662 985 756 l 985 0 l 859 0 l 859 647 q 838 752 859 708 q 781 828 818 797 q 692 877 745 859 q 574 900 639 894 l 574 455 l 448 455 l 448 900 q 330 877 382 894 q 240 828 277 859 q 183 752 203 797 q 164 647 164 707 "},"ժ":{"x_min":64,"x_max":817,"ha":820,"o":"m 817 615 l 684 615 l 684 351 q 664 200 684 268 q 607 85 645 132 q 511 11 569 37 q 375 -15 453 -15 q 239 11 297 -15 q 141 85 180 37 q 83 201 102 134 q 64 353 64 269 q 83 504 64 436 q 141 619 102 572 q 239 693 180 667 q 375 720 297 720 l 567 720 l 567 994 l 684 994 l 684 720 l 817 720 l 817 615 m 567 615 l 375 615 q 288 598 324 615 q 229 547 252 581 q 195 465 206 514 q 185 352 185 416 q 195 239 185 289 q 228 155 205 189 q 287 102 250 120 q 375 85 323 85 q 464 102 427 85 q 523 155 501 120 q 556 240 546 190 q 567 354 567 290 l 567 615 "},"՚":{"x_min":110.84375,"x_max":252.984375,"ha":330,"o":"m 118 855 l 118 994 l 252 994 l 252 855 q 227 738 252 786 q 143 658 199 684 l 110 710 q 167 760 148 727 q 185 855 185 793 l 118 855 "},"Ć":{"x_min":68,"x_max":781,"ha":815,"o":"m 200 497 q 221 314 200 389 q 285 191 243 239 q 390 121 327 143 q 535 100 453 100 q 592 101 561 100 q 655 105 623 102 q 719 113 687 108 q 781 127 751 119 l 781 7 q 735 0 759 3 q 682 -7 711 -4 q 616 -12 652 -10 q 534 -15 580 -15 q 326 18 414 -15 q 180 116 238 52 q 95 277 123 181 q 68 497 68 372 q 95 703 68 609 q 178 865 122 797 q 322 971 235 933 q 530 1009 410 1009 q 677 1002 616 1009 q 781 988 738 996 l 781 863 q 726 876 753 870 q 669 885 699 881 q 606 891 640 889 q 531 894 572 894 q 283 797 367 894 q 200 497 200 701 m 569 1268 l 720 1268 l 593 1072 l 461 1072 l 569 1268 "},"Т":{"x_min":7,"x_max":764,"ha":771,"o":"m 322 0 l 322 877 l 7 877 l 7 994 l 764 994 l 764 877 l 448 877 l 448 0 l 322 0 "},"ו":{"x_min":92,"x_max":209,"ha":300,"o":"m 209 720 l 209 0 l 92 0 l 92 720 l 209 720 "},"£":{"x_min":54,"x_max":779.015625,"ha":813,"o":"m 506 580 l 506 462 l 335 462 q 346 373 344 417 q 337 287 348 329 q 300 205 327 245 q 226 129 273 165 q 248 136 236 133 q 273 141 260 139 q 300 143 287 142 q 323 144 312 144 q 401 137 359 144 q 485 122 444 130 q 559 107 526 114 q 609 100 592 100 q 644 101 625 100 q 685 107 664 102 q 730 122 707 112 q 779 149 753 131 l 779 25 q 732 1 754 9 q 690 -11 710 -7 q 651 -16 669 -15 q 614 -17 632 -17 q 546 -7 583 -17 q 471 13 510 1 q 393 34 433 25 q 315 44 353 44 q 264 39 290 44 q 211 27 237 35 q 158 7 184 18 q 110 -19 132 -4 l 63 98 q 162 178 128 135 q 209 267 197 221 q 218 363 222 314 q 202 462 214 412 l 54 462 l 54 580 l 170 580 q 152 655 159 618 q 144 727 144 693 q 163 842 144 790 q 217 932 182 894 q 305 990 253 969 q 426 1011 358 1011 q 537 989 487 1011 q 623 930 587 968 q 679 839 659 892 q 699 720 699 785 l 576 720 q 566 798 576 763 q 535 859 555 834 q 487 897 515 883 q 423 911 458 911 q 358 898 386 911 q 312 862 330 885 q 284 810 293 840 q 275 745 275 780 q 284 666 275 708 q 306 580 294 624 l 506 580 "},"ů":{"x_min":92,"x_max":652,"ha":744,"o":"m 548 0 l 548 60 q 504 28 526 42 q 455 5 482 14 q 399 -9 429 -4 q 331 -15 368 -15 q 154 46 216 -15 q 92 222 92 107 l 92 720 l 209 720 l 209 243 q 215 175 209 204 q 239 126 222 145 q 286 96 257 106 q 359 87 315 87 q 425 94 396 87 q 475 112 454 101 q 511 137 497 123 q 535 164 525 151 l 535 720 l 652 720 l 652 0 l 548 0 m 249 907 q 285 993 249 957 q 371 1029 321 1029 q 457 992 421 1029 q 493 905 493 956 q 457 816 493 852 q 371 781 421 781 q 284 817 320 781 q 249 907 249 853 m 299 906 q 320 852 299 874 q 371 831 341 831 q 421 852 400 831 q 443 905 443 874 q 421 957 443 935 q 371 979 400 979 q 320 957 341 979 q 299 906 299 936 "},"Ō":{"x_min":61,"x_max":936,"ha":997,"o":"m 61 497 q 84 696 61 603 q 159 859 107 789 q 294 968 210 928 q 498 1009 377 1009 q 702 968 619 1009 q 837 859 786 928 q 912 696 889 789 q 936 497 936 603 q 912 297 936 390 q 837 134 889 204 q 702 25 786 65 q 498 -15 619 -15 q 294 25 377 -15 q 159 134 210 65 q 84 297 107 204 q 61 497 61 390 m 191 497 q 208 323 191 398 q 262 197 225 248 q 357 120 299 146 q 498 94 416 94 q 638 120 580 94 q 734 197 696 146 q 788 323 771 248 q 806 497 806 398 q 788 670 806 595 q 734 796 771 745 q 638 873 696 847 q 498 900 580 900 q 357 873 416 900 q 262 796 299 847 q 208 670 225 745 q 191 497 191 595 m 290 1091 l 290 1191 l 713 1191 l 713 1091 l 290 1091 "},"а":{"x_min":54,"x_max":649,"ha":741,"o":"m 545 60 q 490 22 517 37 q 435 0 463 8 q 376 -11 406 -8 q 311 -15 345 -15 q 201 0 249 -15 q 120 43 153 15 q 70 111 87 71 q 54 199 54 151 q 75 299 54 255 q 134 372 96 342 q 225 419 173 403 q 339 435 277 435 l 532 435 l 532 496 q 520 553 532 527 q 486 596 509 578 q 426 623 462 614 q 339 633 389 633 q 285 631 310 633 q 239 627 261 630 q 197 620 217 624 q 155 610 176 616 l 155 715 q 197 723 176 719 q 240 729 218 726 q 286 733 262 732 q 339 735 310 735 q 479 718 421 735 q 576 669 538 701 q 631 595 613 638 q 649 499 649 551 l 649 0 l 545 0 l 545 60 m 532 333 l 339 333 q 263 322 295 333 q 212 294 232 312 q 184 253 193 276 q 175 205 175 230 q 186 151 175 173 q 219 114 198 128 q 270 93 241 100 q 333 87 299 87 q 450 104 403 87 q 532 164 497 121 l 532 333 "},"Ğ":{"x_min":73,"x_max":905,"ha":1006,"o":"m 528 100 q 613 102 572 100 q 686 107 654 104 q 744 111 719 109 q 779 114 768 114 l 779 462 l 504 462 l 504 580 l 905 580 l 905 0 q 794 -2 841 0 q 704 -7 746 -4 q 621 -12 662 -10 q 528 -15 579 -15 q 321 18 407 -15 q 179 116 235 52 q 98 277 124 181 q 73 497 73 372 q 100 703 73 609 q 185 865 127 797 q 331 971 242 933 q 544 1009 420 1009 q 632 1005 588 1009 q 714 996 675 1002 q 784 985 753 991 q 836 973 816 979 l 836 847 q 775 863 808 855 q 704 878 741 871 q 626 889 666 885 q 544 894 585 894 q 289 797 375 894 q 203 497 203 701 q 223 314 203 389 q 283 191 243 239 q 385 121 323 143 q 528 100 446 100 m 495 1184 q 535 1187 516 1184 q 570 1199 555 1190 q 596 1225 585 1209 q 611 1268 606 1241 l 714 1268 q 691 1196 709 1228 q 645 1142 673 1165 q 578 1108 616 1120 q 494 1096 540 1096 q 411 1108 448 1096 q 345 1142 373 1120 q 299 1196 317 1165 q 277 1268 281 1228 l 380 1268 q 394 1225 384 1241 q 420 1199 405 1209 q 454 1187 435 1190 q 495 1184 473 1184 "},"ջ":{"x_min":81.890625,"x_max":673,"ha":727,"o":"m 81 -174 q 125 -61 81 -117 q 164 -16 142 -38 q 211 27 185 5 q 262 72 236 49 q 317 117 289 94 l 226 160 q 176 191 199 172 q 134 235 152 210 q 104 293 116 261 q 89 364 93 326 q 85 436 85 395 q 88 522 86 477 q 94 613 91 566 q 102 705 98 660 q 154 716 124 711 q 217 726 184 722 q 285 732 250 730 q 350 735 319 735 q 484 719 424 735 q 585 668 543 703 q 650 579 627 633 q 673 448 673 525 q 653 348 673 397 q 599 253 633 299 q 524 164 566 207 q 438 83 482 122 q 352 10 394 44 q 277 -52 310 -23 q 223 -104 243 -81 q 203 -142 203 -126 q 213 -163 203 -156 q 237 -171 223 -171 l 637 -171 l 637 -276 l 199 -276 q 153 -267 174 -276 q 116 -246 131 -259 q 91 -213 100 -232 q 81 -174 81 -195 m 552 448 q 536 539 552 503 q 493 597 521 575 q 427 627 466 618 q 344 636 389 636 q 314 634 331 636 q 278 631 296 633 q 243 627 260 629 q 214 623 226 625 q 208 555 211 591 q 203 486 205 520 q 202 421 201 452 q 206 367 202 389 q 214 331 208 348 q 232 300 220 315 q 261 270 243 284 q 306 244 279 256 l 406 197 q 463 255 436 225 q 509 316 489 285 q 540 381 529 348 q 552 448 552 414 "},"Դ":{"x_min":34,"x_max":950,"ha":956,"o":"m 34 650 q 62 802 34 736 q 141 915 91 869 q 260 984 192 960 q 408 1009 329 1009 q 556 984 487 1009 q 675 915 624 960 q 754 802 725 869 q 783 650 783 736 l 783 412 l 950 412 l 950 294 l 783 294 l 783 0 l 657 0 l 657 657 q 638 761 657 716 q 587 837 620 807 q 508 884 553 868 q 408 900 462 900 q 308 884 354 900 q 229 837 263 868 q 178 761 196 807 q 160 657 160 716 l 160 602 l 34 602 l 34 650 "},"v":{"x_min":14,"x_max":654,"ha":668,"o":"m 654 720 q 633 623 647 678 q 599 506 619 568 q 553 375 578 443 q 501 241 528 307 q 447 113 474 174 q 394 0 419 51 l 273 0 q 220 113 248 51 q 166 241 193 174 q 114 375 139 307 q 68 506 89 443 q 34 624 48 568 q 14 720 19 679 l 131 720 q 158 593 138 664 q 207 445 179 523 q 268 288 235 368 q 333 134 301 207 q 399 288 366 207 q 460 445 431 368 q 508 593 488 523 q 537 720 528 664 l 654 720 "},"Ї":{"x_min":-10,"x_max":335,"ha":330,"o":"m 102 0 l 102 994 l 228 994 l 228 0 l 102 0 m -10 1108 l -10 1242 l 113 1242 l 113 1108 l -10 1108 m 212 1108 l 212 1242 l 335 1242 l 335 1108 l 212 1108 "},"Ճ":{"x_min":7,"x_max":878,"ha":973,"o":"m 7 720 l 129 720 q 156 829 131 779 q 222 916 181 879 q 317 973 263 952 q 435 994 372 994 l 749 994 l 749 877 l 432 877 q 361 865 393 877 q 306 833 329 854 q 269 784 282 813 q 255 720 256 755 l 526 720 q 676 693 611 720 q 787 623 742 667 q 854 523 831 579 q 878 405 878 466 l 878 0 l 462 0 q 329 21 390 0 q 223 84 268 43 q 154 186 179 126 q 129 324 129 246 l 129 602 l 7 602 l 7 720 m 255 338 q 311 172 255 226 q 476 119 367 119 l 752 119 l 752 393 q 733 485 752 446 q 684 550 715 524 q 613 589 654 576 q 529 602 573 602 l 255 602 l 255 338 "},"û":{"x_min":92,"x_max":652,"ha":744,"o":"m 548 0 l 548 60 q 504 28 526 42 q 455 5 482 14 q 399 -9 429 -4 q 331 -15 368 -15 q 154 46 216 -15 q 92 222 92 107 l 92 720 l 209 720 l 209 243 q 215 175 209 204 q 239 126 222 145 q 286 96 257 106 q 359 87 315 87 q 425 94 396 87 q 475 112 454 101 q 511 137 497 123 q 535 164 525 151 l 535 720 l 652 720 l 652 0 l 548 0 m 301 995 l 428 995 l 564 811 l 445 811 l 364 933 l 284 811 l 166 811 l 301 995 "},"ლ":{"x_min":68,"x_max":1400,"ha":1468,"o":"m 864 441 q 858 516 864 481 q 839 578 853 551 q 798 619 824 604 q 728 634 771 634 q 657 619 685 634 q 611 578 628 604 q 587 516 594 551 q 580 441 580 481 l 580 294 l 465 294 l 465 441 q 456 516 465 481 q 432 578 448 551 q 390 619 416 604 q 330 634 365 634 q 263 615 290 634 q 218 562 235 597 q 193 476 201 526 q 186 360 186 425 q 220 190 186 260 q 315 71 255 119 q 454 -7 375 22 q 622 -54 533 -37 q 803 -96 727 -75 q 930 -143 879 -117 q 1009 -201 981 -169 q 1045 -276 1037 -233 l 902 -276 q 879 -246 895 -260 q 841 -222 864 -233 q 790 -202 818 -210 q 730 -187 761 -193 q 669 -178 700 -181 q 608 -175 638 -175 q 553 -176 585 -175 q 484 -182 521 -178 q 410 -191 448 -185 q 337 -204 372 -196 q 272 -223 302 -212 q 224 -248 243 -234 l 224 -137 q 275 -118 251 -125 q 322 -106 299 -111 q 366 -99 344 -102 q 413 -92 388 -96 q 275 -33 338 -72 q 165 61 211 4 q 93 193 119 118 q 68 360 68 268 q 80 506 68 438 q 122 625 93 574 q 199 705 151 676 q 316 735 246 735 q 386 728 355 735 q 442 705 417 721 q 487 664 467 689 q 522 601 506 638 q 601 704 551 673 q 728 735 652 735 q 853 699 804 735 q 928 601 903 663 q 1008 703 956 672 q 1138 735 1061 735 q 1247 709 1199 735 q 1330 636 1296 684 q 1382 521 1364 589 q 1400 369 1400 453 q 1372 187 1400 279 q 1291 0 1345 95 l 1182 0 q 1231 108 1212 56 q 1262 206 1250 160 q 1279 295 1274 253 q 1284 377 1284 338 q 1273 484 1284 436 q 1243 566 1263 532 q 1193 617 1223 600 q 1123 634 1163 635 q 1059 617 1087 632 q 1014 576 1031 602 q 987 515 996 550 q 979 441 979 481 l 979 294 l 864 294 l 864 441 "},"Ź":{"x_min":61,"x_max":796,"ha":857,"o":"m 61 0 l 61 120 q 108 215 75 159 q 185 337 141 271 q 283 475 229 403 q 395 618 337 547 q 511 756 453 689 q 622 877 569 822 l 69 877 l 69 994 l 787 994 l 787 876 q 666 752 730 821 q 541 608 603 683 q 421 459 479 534 q 317 319 363 384 q 239 200 271 253 q 198 119 207 148 l 796 119 l 796 0 l 61 0 m 410 1268 l 561 1268 l 434 1072 l 302 1072 l 410 1268 "},"ˉ":{"x_min":19.671875,"x_max":442.875,"ha":463,"o":"m 19 833 l 19 933 l 442 933 l 442 833 l 19 833 "},"ჷ":{"x_min":54,"x_max":550,"ha":622,"o":"m 331 175 q 268 116 297 145 q 217 58 238 87 q 184 -1 196 28 q 173 -64 173 -31 q 183 -111 173 -89 q 214 -151 194 -134 q 266 -178 235 -168 q 336 -188 296 -188 q 391 -186 367 -188 q 438 -182 416 -185 q 480 -175 460 -179 q 519 -166 500 -171 l 519 -275 q 444 -285 489 -280 q 336 -290 399 -290 q 215 -273 267 -290 q 126 -227 162 -257 q 72 -156 90 -197 q 54 -64 54 -114 q 70 23 54 -18 q 116 105 87 66 q 182 183 145 145 q 261 256 219 220 q 326 313 295 285 q 380 370 357 341 q 417 434 403 400 q 431 508 431 467 q 420 556 431 534 q 389 596 409 579 q 337 623 368 613 q 267 633 307 633 q 211 631 236 633 q 165 627 187 630 q 123 620 142 624 q 83 611 103 616 l 83 720 q 159 730 114 725 q 267 735 203 735 q 388 718 336 735 q 477 672 441 702 q 531 600 513 642 q 550 509 550 559 q 531 408 550 454 q 482 322 512 362 q 412 246 451 282 q 331 175 373 210 "},"բ":{"x_min":92,"x_max":673,"ha":744,"o":"m 196 720 l 196 659 q 239 690 217 676 q 288 714 261 705 q 344 729 314 724 q 412 735 375 735 q 589 673 527 735 q 652 497 652 612 l 652 218 l 535 218 l 535 476 q 528 544 535 515 q 504 593 521 574 q 457 623 486 613 q 384 633 428 633 q 318 625 346 633 q 268 607 289 618 q 232 582 246 596 q 209 555 217 568 l 209 105 l 673 105 l 673 0 l 209 0 l 209 -276 l 92 -276 l 92 720 l 196 720 "},"Ĺ":{"x_min":62.84375,"x_max":698,"ha":699,"o":"m 102 0 l 102 994 l 228 994 l 228 119 l 698 119 l 698 0 l 102 0 m 170 1268 l 321 1268 l 194 1072 l 62 1072 l 170 1268 "},"Ժ":{"x_min":54,"x_max":978,"ha":978,"o":"m 685 994 l 811 994 l 811 720 l 978 720 l 978 602 l 811 602 l 811 329 q 782 179 811 244 q 703 71 753 115 q 584 6 652 28 q 436 -15 515 -15 q 287 9 357 -15 q 165 79 217 33 q 83 194 113 126 q 54 351 54 262 q 83 508 54 439 q 165 624 113 577 q 287 695 217 671 q 436 720 357 720 l 685 720 l 685 994 m 186 351 q 204 237 186 285 q 257 156 223 188 q 336 109 291 125 q 436 94 382 94 q 536 107 491 94 q 615 149 581 121 q 666 221 648 177 q 685 322 685 264 l 685 602 l 436 602 q 336 587 382 602 q 257 542 291 572 q 204 464 223 511 q 186 351 186 417 "},"Մ":{"x_min":102,"x_max":1023,"ha":1022,"o":"m 851 342 q 822 190 851 257 q 743 78 793 123 q 624 8 692 32 q 476 -15 555 -15 q 328 8 397 -15 q 209 78 260 32 q 130 190 159 124 q 102 343 102 257 l 102 994 l 228 994 l 228 336 q 246 232 228 277 q 297 156 264 186 q 376 109 331 125 q 476 94 422 94 q 576 109 530 94 q 655 156 621 125 q 706 232 688 186 q 725 336 725 277 l 725 994 l 1023 994 l 1023 877 l 851 877 l 851 342 "},"Č":{"x_min":68,"x_max":781,"ha":815,"o":"m 200 497 q 221 314 200 389 q 285 191 243 239 q 390 121 327 143 q 535 100 453 100 q 592 101 561 100 q 655 105 623 102 q 719 113 687 108 q 781 127 751 119 l 781 7 q 735 0 759 3 q 682 -7 711 -4 q 616 -12 652 -10 q 534 -15 580 -15 q 326 18 414 -15 q 180 116 238 52 q 95 277 123 181 q 68 497 68 372 q 95 703 68 609 q 178 865 122 797 q 322 971 235 933 q 530 1009 410 1009 q 677 1002 616 1009 q 781 988 738 996 l 781 863 q 726 876 753 870 q 669 885 699 881 q 606 891 640 889 q 531 894 572 894 q 283 797 367 894 q 200 497 200 701 m 524 1158 l 605 1268 l 736 1268 l 584 1083 l 454 1083 l 307 1268 l 440 1268 l 524 1158 "},"x":{"x_min":13.796875,"x_max":638.4375,"ha":652,"o":"m 626 720 q 578 623 605 669 q 522 533 552 576 q 460 448 492 490 q 394 367 427 407 q 463 282 428 325 q 529 193 498 239 q 589 100 561 148 q 638 0 616 52 l 517 0 q 434 147 484 75 q 325 289 384 219 q 217 147 268 219 q 134 0 166 75 l 13 0 q 62 100 34 52 q 121 194 90 149 q 188 283 153 240 q 257 368 222 326 q 191 449 224 408 q 129 533 158 490 q 73 623 99 577 q 26 720 47 669 l 149 720 q 223 581 177 648 q 325 446 268 514 q 428 582 382 515 q 503 720 474 649 l 626 720 "},"è":{"x_min":62,"x_max":712,"ha":773,"o":"m 671 23 q 611 7 640 14 q 551 -4 581 0 q 486 -12 520 -9 q 414 -15 453 -15 q 254 10 320 -15 q 144 82 187 35 q 81 198 101 130 q 62 353 62 267 q 83 513 62 443 q 147 633 105 584 q 249 708 188 682 q 387 735 309 735 q 528 708 467 735 q 629 634 589 682 q 691 516 670 585 q 712 360 712 447 l 712 333 l 185 333 q 239 147 185 207 q 414 87 294 87 q 487 89 454 87 q 549 96 520 91 q 607 110 578 101 q 671 129 636 118 l 671 23 m 587 435 q 526 583 576 534 q 387 633 475 633 q 311 620 346 633 q 251 582 277 607 q 209 520 225 557 q 187 435 192 483 l 587 435 m 515 798 l 383 798 l 257 994 l 408 994 l 515 798 "},"Ń":{"x_min":102,"x_max":868,"ha":969,"o":"m 102 0 l 102 994 l 236 994 q 310 927 269 968 q 396 833 351 886 q 486 720 440 781 q 575 594 532 659 q 656 464 619 530 q 722 338 694 399 q 733 309 726 330 q 744 262 740 288 q 742 309 742 288 q 742 341 742 331 l 742 994 l 868 994 l 868 0 l 744 0 q 668 185 712 93 q 576 362 625 277 q 477 524 528 448 q 379 662 426 600 q 293 769 332 724 q 228 838 253 814 l 228 0 l 102 0 m 468 1268 l 619 1268 l 492 1072 l 360 1072 l 468 1268 "},"μ":{"x_min":92,"x_max":652,"ha":743,"o":"m 547 0 l 547 60 q 503 28 526 42 q 455 5 481 14 q 398 -9 429 -4 q 331 -15 368 -15 q 194 16 251 -15 l 194 -277 l 92 -277 l 92 720 l 209 720 l 209 243 q 215 175 209 204 q 239 126 222 145 q 286 96 257 106 q 359 87 315 87 q 425 94 396 87 q 475 112 454 101 q 511 137 497 123 q 535 164 525 151 l 535 720 l 652 720 l 652 0 l 547 0 "},"ָ":{"x_min":108,"x_max":363,"ha":475,"o":"m 278 -283 l 193 -283 l 193 -192 l 108 -192 l 108 -107 l 363 -107 l 363 -192 l 278 -192 l 278 -283 "},"ղ":{"x_min":92,"x_max":785,"ha":743,"o":"m 196 720 l 196 659 q 239 690 217 676 q 288 714 261 705 q 344 729 314 724 q 412 735 375 735 q 589 673 527 735 q 652 497 652 612 l 652 -171 l 785 -171 l 785 -276 l 535 -276 l 535 476 q 528 544 535 515 q 504 593 521 574 q 457 623 486 613 q 384 633 428 633 q 318 625 346 633 q 268 607 289 618 q 232 582 246 596 q 209 555 217 568 l 209 0 l 92 0 l 92 720 l 196 720 "},".":{"x_min":92,"x_max":225,"ha":316,"o":"m 92 0 l 92 139 l 225 139 l 225 0 l 92 0 "},"‘":{"x_min":90.890625,"x_max":233.015625,"ha":325,"o":"m 224 797 l 224 658 l 90 658 l 90 797 q 116 914 90 866 q 200 994 143 968 l 233 942 q 176 892 194 925 q 158 797 158 859 l 224 797 "},"ჭ":{"x_min":41,"x_max":644,"ha":698,"o":"m 449 754 q 447 793 449 770 q 438 838 445 817 q 418 874 432 859 q 381 889 404 889 l 341 889 l 341 823 l 224 823 l 224 994 l 382 994 q 465 976 430 994 q 522 928 500 959 q 555 853 544 897 q 566 758 566 810 l 566 451 q 605 483 585 468 q 644 511 624 498 l 644 409 q 605 384 626 398 q 563 355 583 371 q 605 326 583 340 q 644 300 626 312 l 644 198 q 606 225 625 209 q 566 258 586 241 l 566 -3 q 541 -133 566 -79 q 472 -222 516 -188 q 366 -273 428 -257 q 230 -290 304 -290 q 169 -288 196 -290 q 120 -283 142 -286 q 78 -276 97 -280 q 41 -268 60 -273 l 41 -160 q 119 -179 72 -171 q 236 -188 165 -188 q 335 -176 295 -188 q 401 -143 375 -165 q 437 -86 426 -120 q 449 -7 449 -52 l 449 263 q 355 217 404 235 q 249 199 306 199 q 174 206 210 199 q 112 231 138 213 q 69 279 85 249 q 54 355 54 309 q 69 430 54 400 q 112 478 85 460 q 174 503 138 496 q 249 511 210 511 q 355 492 306 511 q 449 447 404 474 l 449 754 m 253 426 q 175 407 196 426 q 154 355 154 388 q 175 302 154 321 q 253 284 196 284 q 357 304 308 284 q 450 355 407 324 q 356 405 406 385 q 253 426 306 426 "},"π":{"x_min":33.578125,"x_max":785.09375,"ha":825,"o":"m 785 0 l 737 0 q 661 8 696 0 q 600 38 626 16 q 560 101 575 61 q 546 204 546 141 l 546 615 l 253 615 l 253 0 l 136 0 l 136 615 l 33 615 l 33 720 l 760 720 l 760 615 l 663 615 l 663 214 q 665 159 663 180 q 677 126 668 138 q 701 109 686 114 q 743 105 717 105 l 785 105 l 785 0 "},"մ":{"x_min":92,"x_max":786,"ha":744,"o":"m 548 0 l 548 60 q 504 28 526 42 q 455 5 482 14 q 399 -9 429 -4 q 331 -15 368 -15 q 154 46 216 -15 q 92 222 92 107 l 92 720 l 209 720 l 209 243 q 215 175 209 204 q 239 126 222 145 q 286 96 257 106 q 359 87 315 87 q 425 94 396 87 q 475 112 454 101 q 511 137 497 123 q 535 164 525 151 l 535 994 l 786 994 l 786 889 l 652 889 l 652 0 l 548 0 "},"9":{"x_min":70,"x_max":760,"ha":834,"o":"m 589 543 q 590 515 590 531 q 590 481 591 498 q 587 447 589 464 q 584 415 586 429 q 488 371 541 386 q 377 359 435 356 q 252 384 308 361 q 155 446 195 406 q 92 543 114 486 q 70 671 70 600 q 96 815 70 752 q 168 921 122 878 q 274 986 213 964 q 401 1009 334 1009 q 490 998 446 1009 q 573 965 534 988 q 647 906 613 943 q 706 815 681 869 q 745 689 731 761 q 760 525 760 617 q 730 277 760 379 q 648 109 700 174 q 524 14 596 44 q 367 -15 452 -15 q 267 -8 318 -15 q 177 8 217 -2 l 177 118 q 227 104 203 110 q 274 94 250 98 q 321 89 297 91 q 371 87 344 87 q 469 104 427 87 q 542 153 512 122 q 592 225 572 183 q 623 315 612 267 q 639 415 635 363 q 644 518 644 467 q 638 615 644 568 q 622 706 633 663 q 592 784 610 748 q 546 846 573 820 q 483 887 519 872 q 400 902 447 902 q 318 887 355 902 q 253 843 280 872 q 210 770 225 813 q 195 672 195 727 q 208 589 195 626 q 247 524 222 551 q 310 480 273 496 q 394 463 347 465 q 449 466 421 461 q 502 482 476 471 q 549 508 527 493 q 589 543 572 524 "},"ფ":{"x_min":61,"x_max":1208,"ha":1270,"o":"m 182 360 q 193 244 182 294 q 228 158 204 193 q 291 105 253 123 q 383 87 329 87 q 476 105 437 87 q 540 158 515 123 q 576 244 565 193 q 588 360 588 294 q 576 475 588 425 q 539 561 564 526 q 476 614 514 596 q 385 633 437 633 q 292 614 330 633 q 229 561 253 596 q 193 475 205 526 q 182 360 182 425 m 1208 12 q 1180 -120 1208 -63 q 1105 -215 1153 -177 q 989 -271 1056 -252 q 841 -290 921 -290 q 716 -283 771 -290 q 624 -268 662 -277 l 624 -160 q 663 -171 640 -166 q 715 -179 687 -175 q 777 -185 744 -183 q 847 -188 811 -188 q 957 -174 911 -188 q 1032 -134 1003 -160 q 1074 -71 1060 -107 q 1088 11 1088 -34 q 1070 111 1088 72 q 1025 172 1052 150 q 965 202 998 194 q 902 211 932 211 l 877 211 l 877 314 l 900 314 q 964 323 935 314 q 1015 353 993 333 q 1048 404 1036 374 q 1060 476 1060 435 q 1047 549 1060 519 q 1010 597 1034 578 q 952 624 986 616 q 877 633 918 633 q 809 624 839 633 q 755 602 778 616 q 715 567 732 587 q 686 522 698 546 q 693 494 690 508 q 700 461 697 480 q 706 418 704 443 q 709 359 709 394 q 691 213 709 281 q 634 94 673 145 q 533 14 595 43 q 383 -15 471 -15 q 233 14 294 -15 q 133 94 172 44 q 78 213 95 145 q 61 360 61 282 q 78 506 61 437 q 134 625 95 574 q 234 705 172 676 q 385 735 296 735 q 537 703 472 735 q 633 612 603 672 q 672 664 648 641 q 729 702 697 686 q 799 726 761 718 q 877 735 837 735 q 998 717 942 735 q 1095 666 1054 699 q 1158 585 1135 633 q 1180 476 1180 537 q 1170 392 1180 427 q 1144 333 1160 357 q 1106 292 1127 308 q 1064 265 1085 276 q 1118 237 1092 257 q 1164 184 1144 216 q 1196 108 1184 151 q 1208 12 1208 64 "},"l":{"x_min":92,"x_max":209,"ha":300,"o":"m 92 0 l 92 994 l 209 994 l 209 0 l 92 0 "},"Ъ":{"x_min":0,"x_max":929,"ha":997,"o":"m 379 577 q 474 599 425 591 q 576 608 523 608 q 713 588 648 608 q 825 529 777 568 q 901 434 873 490 q 929 305 929 378 q 905 182 929 238 q 834 85 881 126 q 715 22 786 44 q 550 0 645 0 l 199 0 l 199 877 l 0 877 l 0 994 l 325 994 l 325 119 l 560 119 q 667 132 623 119 q 739 170 711 145 q 780 230 767 195 q 793 309 793 265 q 775 390 793 356 q 728 447 758 425 q 657 481 698 470 q 568 493 616 493 q 520 489 545 493 q 471 480 495 486 q 423 468 446 475 q 379 452 400 461 l 379 577 "},"Ü":{"x_min":102,"x_max":851,"ha":952,"o":"m 851 343 q 822 190 851 257 q 743 78 793 124 q 624 8 692 32 q 476 -15 555 -15 q 328 8 397 -15 q 209 78 260 32 q 130 190 159 124 q 102 343 102 257 l 102 994 l 228 994 l 228 336 q 246 232 228 277 q 297 156 264 186 q 376 109 331 125 q 476 94 422 94 q 576 109 530 94 q 655 156 621 125 q 706 232 688 186 q 725 336 725 277 l 725 994 l 851 994 l 851 343 m 303 1134 l 303 1268 l 426 1268 l 426 1134 l 303 1134 m 525 1134 l 525 1268 l 648 1268 l 648 1134 l 525 1134 "},"à":{"x_min":54,"x_max":649,"ha":741,"o":"m 545 60 q 490 22 517 37 q 435 0 463 8 q 376 -11 406 -8 q 311 -15 345 -15 q 201 0 249 -15 q 120 43 153 15 q 70 111 87 71 q 54 199 54 151 q 75 299 54 255 q 134 372 96 342 q 225 419 173 403 q 339 435 277 435 l 532 435 l 532 496 q 520 553 532 527 q 486 596 509 578 q 426 623 462 614 q 339 633 389 633 q 285 631 310 633 q 239 627 261 630 q 197 620 217 624 q 155 610 176 616 l 155 715 q 197 723 176 719 q 240 729 218 726 q 286 733 262 732 q 339 735 310 735 q 479 718 421 735 q 576 669 538 701 q 631 595 613 638 q 649 499 649 551 l 649 0 l 545 0 l 545 60 m 532 333 l 339 333 q 263 322 295 333 q 212 294 232 312 q 184 253 193 276 q 175 205 175 230 q 186 151 175 173 q 219 114 198 128 q 270 93 241 100 q 333 87 299 87 q 450 104 403 87 q 532 164 497 121 l 532 333 m 494 798 l 362 798 l 236 994 l 387 994 l 494 798 "},"Ś":{"x_min":81,"x_max":767,"ha":849,"o":"m 444 1009 q 590 1002 529 1009 q 694 988 651 996 l 694 863 q 639 876 666 870 q 583 885 612 881 q 519 891 553 889 q 444 894 485 894 q 280 852 339 894 q 222 730 222 811 q 245 660 222 686 q 307 615 268 633 q 394 584 345 597 q 494 557 443 572 q 594 522 545 543 q 681 469 643 502 q 743 386 720 436 q 767 263 767 336 q 740 143 767 195 q 666 56 714 91 q 551 2 618 20 q 403 -15 484 -15 q 316 -11 360 -15 q 229 -2 271 -8 q 153 11 188 3 q 97 26 118 18 l 97 152 q 228 115 151 131 q 403 100 304 100 q 567 141 508 100 q 626 263 626 182 q 610 334 626 305 q 569 384 595 364 q 508 419 543 405 q 434 444 473 432 q 353 465 394 455 q 272 489 312 475 q 198 522 233 503 q 137 568 163 540 q 96 636 111 597 q 81 730 81 675 q 107 850 81 797 q 181 937 133 902 q 296 991 229 973 q 444 1009 363 1009 m 399 1268 l 550 1268 l 423 1072 l 291 1072 l 399 1268 "},"η":{"x_min":92,"x_max":652,"ha":743,"o":"m 196 720 l 196 659 q 239 690 217 676 q 288 714 261 705 q 344 729 314 724 q 412 735 375 735 q 589 673 527 735 q 652 497 652 612 l 652 -276 l 535 -276 l 535 476 q 528 544 535 515 q 504 593 521 574 q 457 623 486 613 q 384 633 428 633 q 318 625 346 633 q 268 607 289 618 q 232 582 246 596 q 209 555 217 568 l 209 0 l 92 0 l 92 720 l 196 720 "},"ó":{"x_min":61,"x_max":709,"ha":770,"o":"m 61 360 q 78 506 61 437 q 134 625 95 574 q 234 705 172 676 q 385 735 296 735 q 534 705 473 735 q 635 625 596 676 q 691 506 673 574 q 709 360 709 437 q 691 213 709 282 q 635 94 673 145 q 534 14 596 44 q 385 -15 473 -15 q 234 14 296 -15 q 134 94 172 44 q 78 213 95 145 q 61 360 61 282 m 182 360 q 193 244 182 294 q 229 158 205 193 q 292 105 253 123 q 385 87 330 87 q 477 105 439 87 q 540 158 516 123 q 576 244 565 193 q 588 360 588 294 q 576 475 588 425 q 540 561 565 526 q 477 614 516 596 q 385 633 439 633 q 292 614 330 633 q 229 561 253 596 q 193 475 205 526 q 182 360 182 425 m 363 994 l 514 994 l 387 798 l 255 798 l 363 994 "},"¦":{"x_min":102,"x_max":204,"ha":305,"o":"m 102 -290 l 102 199 l 204 199 l 204 -290 l 102 -290 m 102 516 l 102 1009 l 204 1009 l 204 516 l 102 516 "},"ֱ":{"x_min":26,"x_max":451,"ha":477,"o":"m 334 -156 l 334 -51 l 451 -51 l 451 -156 l 334 -156 m 334 -303 l 334 -198 l 451 -198 l 451 -303 l 334 -303 m 180 -156 l 180 -51 l 297 -51 l 297 -156 l 180 -156 m 104 -303 l 104 -198 l 221 -198 l 221 -303 l 104 -303 m 26 -156 l 26 -51 l 143 -51 l 143 -156 l 26 -156 "},"Ő":{"x_min":61,"x_max":936,"ha":997,"o":"m 61 497 q 84 696 61 603 q 159 859 107 789 q 294 968 210 928 q 498 1009 377 1009 q 702 968 619 1009 q 837 859 786 928 q 912 696 889 789 q 936 497 936 603 q 912 297 936 390 q 837 134 889 204 q 702 25 786 65 q 498 -15 619 -15 q 294 25 377 -15 q 159 134 210 65 q 84 297 107 204 q 61 497 61 390 m 191 497 q 208 323 191 398 q 262 197 225 248 q 357 120 299 146 q 498 94 416 94 q 638 120 580 94 q 734 197 696 146 q 788 323 771 248 q 806 497 806 398 q 788 670 806 595 q 734 796 771 745 q 638 873 696 847 q 498 900 580 900 q 357 873 416 900 q 262 796 299 847 q 208 670 225 745 q 191 497 191 595 m 360 1268 l 511 1268 l 384 1072 l 252 1072 l 360 1268 m 643 1268 l 794 1268 l 667 1072 l 535 1072 l 643 1268 "},"Ž":{"x_min":61,"x_max":796,"ha":857,"o":"m 61 0 l 61 120 q 108 215 75 159 q 185 337 141 271 q 283 475 229 403 q 395 618 337 547 q 511 756 453 689 q 622 877 569 822 l 69 877 l 69 994 l 787 994 l 787 876 q 666 752 730 821 q 541 608 603 683 q 421 459 479 534 q 317 319 363 384 q 239 200 271 253 q 198 119 207 148 l 796 119 l 796 0 l 61 0 m 446 1158 l 527 1268 l 658 1268 l 506 1083 l 376 1083 l 229 1268 l 362 1268 l 446 1158 "},"ბ":{"x_min":61,"x_max":709,"ha":770,"o":"m 99 994 l 257 994 q 340 976 305 994 q 397 928 375 959 q 430 853 419 897 q 441 758 441 810 l 441 731 q 564 689 513 722 q 647 607 614 657 q 694 494 679 558 q 709 360 709 431 q 691 213 709 282 q 635 94 673 145 q 534 14 596 44 q 385 -15 473 -15 q 234 14 296 -15 q 134 94 172 44 q 78 213 95 145 q 61 360 61 282 q 75 493 61 430 q 120 605 89 556 q 202 687 152 655 q 324 731 252 720 l 324 754 q 322 788 324 766 q 314 833 321 811 q 294 872 308 855 q 256 889 280 889 l 216 889 l 216 782 l 99 782 l 99 994 m 182 360 q 193 244 182 294 q 229 158 205 193 q 292 105 253 123 q 385 87 330 87 q 477 105 439 87 q 540 158 516 123 q 576 244 565 193 q 588 360 588 294 q 576 475 588 425 q 540 561 565 526 q 477 614 516 596 q 385 633 439 633 q 292 614 330 633 q 229 561 253 596 q 193 475 205 526 q 182 360 182 425 "},"е":{"x_min":62,"x_max":712,"ha":773,"o":"m 671 23 q 611 7 640 14 q 551 -4 581 0 q 486 -12 520 -9 q 414 -15 453 -15 q 254 10 320 -15 q 144 82 187 35 q 81 198 101 130 q 62 353 62 267 q 83 513 62 443 q 147 633 105 584 q 249 708 188 682 q 387 735 309 735 q 528 708 467 735 q 629 634 589 682 q 691 516 670 585 q 712 360 712 447 l 712 333 l 185 333 q 239 147 185 207 q 414 87 294 87 q 487 89 454 87 q 549 96 520 91 q 607 110 578 101 q 671 129 636 118 l 671 23 m 587 435 q 526 583 576 534 q 387 633 475 633 q 311 620 346 633 q 251 582 277 607 q 209 520 225 557 q 187 435 192 483 l 587 435 "},"Î":{"x_min":-40,"x_max":358.109375,"ha":330,"o":"m 102 0 l 102 994 l 228 994 l 228 0 l 102 0 m 95 1269 l 222 1269 l 358 1085 l 239 1085 l 158 1207 l 78 1085 l -40 1085 l 95 1269 "},"e":{"x_min":68,"x_max":718,"ha":786,"o":"m 677 23 q 617 7 646 14 q 557 -4 587 0 q 492 -12 526 -9 q 420 -15 459 -15 q 260 10 326 -15 q 150 82 193 35 q 87 198 107 130 q 68 353 68 267 q 89 513 68 443 q 153 633 111 584 q 255 708 194 682 q 393 735 315 735 q 534 708 473 735 q 635 634 595 682 q 697 516 676 585 q 718 360 718 447 l 718 333 l 191 333 q 245 147 191 207 q 420 87 300 87 q 493 89 460 87 q 555 96 526 91 q 613 110 584 101 q 677 129 642 118 l 677 23 m 593 435 q 532 583 582 534 q 393 633 481 633 q 317 620 352 633 q 257 582 283 607 q 215 520 231 557 q 193 435 198 483 l 593 435 "},"ό":{"x_min":61,"x_max":709,"ha":770,"o":"m 61 360 q 78 506 61 437 q 134 625 95 574 q 234 705 172 676 q 385 735 296 735 q 534 705 473 735 q 635 625 596 676 q 691 506 673 574 q 709 360 709 437 q 691 213 709 282 q 635 94 673 145 q 534 14 596 44 q 385 -15 473 -15 q 234 14 296 -15 q 134 94 172 44 q 78 213 95 145 q 61 360 61 282 m 182 360 q 193 244 182 294 q 229 158 205 193 q 292 105 253 123 q 385 87 330 87 q 477 105 439 87 q 540 158 516 123 q 576 244 565 193 q 588 360 588 294 q 576 475 588 425 q 540 561 565 526 q 477 614 516 596 q 385 633 439 633 q 292 614 330 633 q 229 561 253 596 q 193 475 205 526 q 182 360 182 425 m 363 994 l 514 994 l 387 798 l 255 798 l 363 994 "},"":{"x_min":44.546875,"x_max":662,"ha":688,"o":"m 44 608 l 44 720 l 662 720 l 662 608 q 524 393 589 503 q 409 172 459 284 q 325 -51 358 60 q 285 -274 292 -163 l 149 -274 q 192 -59 159 -170 q 277 162 226 50 q 395 387 329 275 q 539 608 462 500 l 44 608 "},"շ":{"x_min":6.578125,"x_max":503,"ha":560,"o":"m 503 448 q 486 349 503 398 q 443 255 470 301 q 383 167 416 209 q 313 86 349 124 q 244 13 278 48 q 184 -49 210 -20 q 143 -101 158 -78 q 129 -142 127 -125 q 139 -163 130 -156 q 162 -171 148 -171 l 468 -171 l 468 -276 l 124 -276 q 79 -267 99 -276 q 42 -246 58 -259 q 18 -213 27 -232 q 7 -174 9 -195 q 18 -106 4 -141 q 59 -35 33 -71 q 119 36 84 0 q 189 112 153 73 q 259 190 224 150 q 321 272 294 230 q 365 357 348 313 q 382 448 382 401 q 367 534 382 499 q 327 592 352 569 q 271 623 303 614 q 206 633 239 633 q 153 631 175 633 q 113 627 131 630 q 77 620 94 624 q 41 611 60 616 l 41 720 q 108 730 68 725 q 201 735 147 735 q 326 718 270 735 q 421 665 382 701 q 481 576 460 630 q 503 448 503 522 "},"₪":{"x_min":92,"x_max":995,"ha":1084,"o":"m 209 0 l 92 0 l 92 715 q 138 721 106 718 q 207 727 169 724 q 286 732 245 730 q 362 735 327 735 q 529 712 459 735 q 644 646 599 690 q 711 537 689 602 q 733 388 733 473 l 733 233 l 616 233 l 616 367 q 599 497 616 445 q 551 578 583 548 q 471 620 519 608 q 362 633 424 633 q 315 631 338 633 q 272 629 292 630 q 235 625 251 627 q 209 622 219 624 l 209 0 m 995 720 l 995 369 q 971 203 995 273 q 904 88 948 133 q 794 21 859 43 q 644 0 729 0 l 354 0 l 354 486 l 471 486 l 471 105 l 623 105 q 751 123 702 105 q 829 175 801 141 q 867 258 857 209 q 878 369 878 307 l 878 720 l 995 720 "},"ļ":{"x_min":79.859375,"x_max":222,"ha":300,"o":"m 92 0 l 92 994 l 209 994 l 209 0 l 92 0 m 88 -243 l 88 -104 l 222 -104 l 222 -243 q 195 -325 222 -288 q 112 -389 169 -362 l 79 -337 q 134 -298 114 -323 q 154 -243 154 -273 l 88 -243 "},"Ѓ":{"x_min":102,"x_max":712,"ha":712,"o":"m 102 994 l 712 994 l 712 877 l 228 877 l 228 0 l 102 0 l 102 994 m 334 1268 l 485 1268 l 358 1072 l 226 1072 l 334 1268 "},"ò":{"x_min":61,"x_max":709,"ha":770,"o":"m 61 360 q 78 506 61 437 q 134 625 95 574 q 234 705 172 676 q 385 735 296 735 q 534 705 473 735 q 635 625 596 676 q 691 506 673 574 q 709 360 709 437 q 691 213 709 282 q 635 94 673 145 q 534 14 596 44 q 385 -15 473 -15 q 234 14 296 -15 q 134 94 172 44 q 78 213 95 145 q 61 360 61 282 m 182 360 q 193 244 182 294 q 229 158 205 193 q 292 105 253 123 q 385 87 330 87 q 477 105 439 87 q 540 158 516 123 q 576 244 565 193 q 588 360 588 294 q 576 475 588 425 q 540 561 565 526 q 477 614 516 596 q 385 633 439 633 q 292 614 330 633 q 229 561 253 596 q 193 475 205 526 q 182 360 182 425 m 513 798 l 381 798 l 255 994 l 406 994 l 513 798 "},"և":{"x_min":92,"x_max":954,"ha":954,"o":"m 548 0 l 548 60 q 504 28 526 42 q 455 5 482 14 q 399 -9 429 -4 q 331 -15 368 -15 q 154 46 216 -15 q 92 222 92 107 l 92 994 l 209 994 l 209 243 q 215 175 209 204 q 239 126 222 145 q 286 96 257 106 q 359 87 315 87 q 425 94 396 87 q 475 112 454 101 q 511 137 497 123 q 535 164 525 151 l 535 720 l 652 720 l 652 105 l 954 105 l 954 0 l 548 0 "},"^":{"x_min":33.5,"x_max":589.5,"ha":624,"o":"m 153 467 l 33 467 l 263 1011 l 357 1011 l 589 467 l 471 467 l 310 872 l 153 467 "},"ქ":{"x_min":0,"x_max":502,"ha":593,"o":"m 502 -3 q 477 -133 502 -79 q 408 -222 452 -188 q 305 -273 364 -257 q 172 -290 245 -290 q 116 -288 140 -290 q 71 -283 92 -286 q 33 -276 50 -280 q 0 -268 16 -273 l 0 -160 q 70 -179 27 -171 q 178 -188 112 -188 q 274 -176 235 -188 q 338 -143 313 -165 q 373 -86 362 -120 q 385 -7 385 -53 l 385 195 q 381 252 385 229 q 364 289 377 275 q 327 311 352 304 q 259 318 302 318 q 205 316 230 318 q 159 312 181 315 q 117 305 138 309 q 75 295 96 301 l 75 400 q 117 408 96 404 q 160 414 138 411 q 206 418 182 417 q 259 420 231 420 q 329 415 298 420 q 385 401 360 410 l 385 994 l 502 994 l 502 -3 "},"к":{"x_min":92,"x_max":664.421875,"ha":692,"o":"m 209 0 l 92 0 l 92 720 l 209 720 l 209 435 q 310 459 264 435 q 393 522 356 483 q 457 612 430 561 q 504 720 485 663 l 625 720 q 592 633 612 677 q 543 548 571 589 q 480 469 515 506 q 406 404 446 433 q 561 228 493 328 q 664 0 628 128 l 545 0 q 497 115 523 63 q 441 209 471 167 q 376 287 410 252 q 304 351 343 322 q 257 340 281 344 q 209 335 234 335 l 209 0 "},"ש":{"x_min":92,"x_max":876,"ha":967,"o":"m 506 87 q 619 100 571 87 q 697 145 666 114 q 743 227 728 176 q 759 352 759 278 l 759 720 l 876 720 l 876 331 q 854 181 876 246 q 788 73 833 117 q 673 7 743 29 q 506 -15 604 -15 q 295 -5 400 -15 q 92 23 189 3 l 92 720 l 209 720 l 209 266 q 288 270 249 266 q 357 292 327 275 q 407 342 388 309 q 426 432 426 375 l 426 720 l 543 720 l 543 432 q 516 304 543 355 q 443 222 489 253 q 337 178 398 191 q 209 166 277 166 l 209 112 q 266 102 229 106 q 347 94 304 97 q 433 89 390 91 q 506 87 475 87 "},"՛":{"x_min":-55.828125,"x_max":241,"ha":251,"o":"m 90 1062 l 241 1062 l 28 798 l -55 798 l 90 1062 "},"ძ":{"x_min":61,"x_max":710,"ha":802,"o":"m 710 360 q 692 213 710 282 q 636 94 674 145 q 535 14 597 44 q 385 -15 474 -15 q 235 13 297 -15 q 134 91 173 41 q 78 208 96 141 q 61 353 61 275 q 76 495 61 428 q 129 612 92 562 q 224 691 166 662 q 368 721 283 721 q 495 700 439 721 q 593 636 550 680 l 593 813 q 576 886 593 864 q 515 908 559 908 q 465 901 495 908 q 404 885 435 895 l 404 990 q 464 1004 434 998 q 515 1010 494 1010 q 601 996 564 1010 q 661 956 637 982 q 698 895 686 931 q 710 813 710 858 l 710 360 m 593 490 q 563 539 582 515 q 518 580 544 562 q 459 608 492 597 q 390 619 427 619 q 293 602 333 619 q 228 551 253 585 q 192 469 203 518 q 182 353 182 419 q 193 238 182 288 q 229 155 205 188 q 292 104 253 121 q 385 87 330 87 q 543 155 493 87 q 593 353 593 223 l 593 490 "},"ֻ":{"x_min":16,"x_max":461,"ha":475,"o":"m 344 -303 l 344 -198 l 461 -198 l 461 -303 l 344 -303 m 180 -235 l 180 -130 l 297 -130 l 297 -235 l 180 -235 m 16 -167 l 16 -62 l 133 -62 l 133 -167 l 16 -167 "},"ū":{"x_min":92,"x_max":652,"ha":744,"o":"m 548 0 l 548 60 q 504 28 526 42 q 455 5 482 14 q 399 -9 429 -4 q 331 -15 368 -15 q 154 46 216 -15 q 92 222 92 107 l 92 720 l 209 720 l 209 243 q 215 175 209 204 q 239 126 222 145 q 286 96 257 106 q 359 87 315 87 q 425 94 396 87 q 475 112 454 101 q 511 137 497 123 q 535 164 525 151 l 535 720 l 652 720 l 652 0 l 548 0 m 160 839 l 160 939 l 583 939 l 583 839 l 160 839 "},"ˆ":{"x_min":7,"x_max":405.109375,"ha":412,"o":"m 142 995 l 269 995 l 405 811 l 286 811 l 205 933 l 125 811 l 7 811 l 142 995 "},"č":{"x_min":61,"x_max":583,"ha":604,"o":"m 182 360 q 197 225 182 278 q 242 142 213 173 q 315 99 272 111 q 412 87 358 87 q 507 95 466 87 q 583 114 548 103 l 583 11 q 505 -7 551 0 q 412 -15 460 -15 q 147 76 234 -15 q 61 360 61 168 q 83 516 61 447 q 149 634 105 586 q 256 709 192 683 q 405 735 321 735 q 499 728 456 735 q 583 708 542 721 l 583 605 q 502 625 546 617 q 405 633 458 633 q 314 618 356 633 q 243 570 273 603 q 198 486 214 538 q 182 360 182 433 m 335 884 l 416 994 l 547 994 l 395 809 l 265 809 l 118 994 l 251 994 l 335 884 "},"’":{"x_min":91.859375,"x_max":234,"ha":325,"o":"m 100 855 l 100 994 l 234 994 l 234 855 q 208 738 234 786 q 124 658 180 684 l 91 710 q 148 760 129 727 q 166 855 166 793 l 100 855 "},"կ":{"x_min":92,"x_max":652,"ha":744,"o":"m 652 -276 l 535 -276 l 535 50 q 447 2 494 19 q 331 -15 399 -15 q 154 46 216 -15 q 92 222 92 107 l 92 994 l 209 994 l 209 243 q 215 175 209 204 q 239 126 222 145 q 286 96 257 106 q 359 87 315 87 q 425 94 396 87 q 475 112 454 101 q 511 137 497 123 q 535 164 525 151 l 535 720 l 652 720 l 652 -276 "},"Ν":{"x_min":102,"x_max":868,"ha":969,"o":"m 102 0 l 102 994 l 236 994 q 310 927 269 968 q 396 833 351 886 q 486 720 440 781 q 575 594 532 659 q 656 464 619 530 q 722 338 694 399 q 733 309 726 330 q 744 262 740 288 q 742 309 742 288 q 742 341 742 331 l 742 994 l 868 994 l 868 0 l 744 0 q 668 185 712 93 q 576 362 625 277 q 477 524 528 448 q 379 662 426 600 q 293 769 332 724 q 228 838 253 814 l 228 0 l 102 0 "},"-":{"x_min":34,"x_max":368,"ha":402,"o":"m 34 298 l 34 421 l 368 421 l 368 298 l 34 298 "},"Q":{"x_min":61,"x_max":984,"ha":1018,"o":"m 61 497 q 84 696 61 603 q 159 859 107 789 q 294 968 210 928 q 498 1009 377 1009 q 702 968 619 1009 q 837 859 786 928 q 912 696 889 789 q 936 497 936 603 q 914 304 936 393 q 846 145 893 214 q 911 110 878 126 q 984 84 945 94 l 984 -40 q 923 -26 952 -36 q 866 -3 893 -17 q 813 25 839 9 q 761 58 786 41 q 647 4 712 23 q 498 -15 582 -15 q 294 25 377 -15 q 159 134 210 65 q 84 297 107 204 q 61 497 61 390 m 191 497 q 208 323 191 398 q 262 197 225 248 q 358 120 299 146 q 498 94 416 94 q 657 128 593 94 q 591 164 624 148 q 520 190 558 180 l 520 315 q 582 300 552 310 q 639 277 611 290 q 692 247 666 263 q 744 213 719 231 q 791 334 776 264 q 806 496 806 405 q 788 670 806 595 q 734 796 771 745 q 638 873 696 847 q 498 900 580 900 q 357 873 416 900 q 262 796 299 847 q 208 670 225 745 q 191 497 191 595 "},"ј":{"x_min":-104.015625,"x_max":209,"ha":300,"o":"m 92 852 l 92 994 l 209 994 l 209 852 l 92 852 m -104 -179 q -70 -185 -86 -182 q -36 -188 -54 -188 q 17 -181 -6 -188 q 58 -157 41 -175 q 83 -109 75 -140 q 92 -29 92 -78 l 92 720 l 209 720 l 209 -29 q 190 -158 209 -107 q 139 -238 171 -208 q 64 -278 107 -267 q -28 -289 21 -289 q -65 -287 -45 -289 q -104 -283 -85 -286 l -104 -179 "},"ě":{"x_min":62,"x_max":712,"ha":773,"o":"m 671 23 q 611 7 640 14 q 551 -4 581 0 q 486 -12 520 -9 q 414 -15 453 -15 q 254 10 320 -15 q 144 82 187 35 q 81 198 101 130 q 62 353 62 267 q 83 513 62 443 q 147 633 105 584 q 249 708 188 682 q 387 735 309 735 q 528 708 467 735 q 629 634 589 682 q 691 516 670 585 q 712 360 712 447 l 712 333 l 185 333 q 239 147 185 207 q 414 87 294 87 q 487 89 454 87 q 549 96 520 91 q 607 110 578 101 q 671 129 636 118 l 671 23 m 587 435 q 526 583 576 534 q 387 633 475 633 q 311 620 346 633 q 251 582 277 607 q 209 520 225 557 q 187 435 192 483 l 587 435 m 401 884 l 482 994 l 613 994 l 461 809 l 331 809 l 184 994 l 317 994 l 401 884 "},"œ":{"x_min":61,"x_max":1240,"ha":1301,"o":"m 1220 215 q 1182 123 1208 165 q 1117 49 1156 80 q 1029 1 1079 18 q 919 -16 979 -16 q 822 -4 866 -16 q 745 28 778 7 q 686 77 711 49 q 648 137 662 105 q 608 77 633 105 q 551 28 584 49 q 477 -4 519 7 q 385 -16 435 -16 q 249 9 310 -16 q 147 84 189 35 q 83 202 105 132 q 61 360 61 272 q 83 517 61 448 q 148 635 106 587 q 250 710 190 684 q 385 737 310 737 q 542 698 473 737 q 650 583 612 659 q 758 699 690 661 q 912 737 825 737 q 1044 710 984 737 q 1148 635 1105 684 q 1215 517 1191 586 q 1240 362 1240 448 l 1240 330 l 711 330 q 724 231 711 276 q 763 154 737 186 q 829 102 790 121 q 920 84 868 84 q 1029 119 985 84 q 1095 215 1074 154 l 1220 215 m 182 360 q 195 244 182 295 q 235 157 209 193 q 299 103 262 122 q 385 84 337 84 q 470 103 432 84 q 534 158 508 122 q 575 246 561 194 q 589 364 589 298 q 574 477 589 427 q 534 563 560 528 q 469 616 507 597 q 385 636 432 636 q 300 617 338 636 q 236 563 262 598 q 195 476 209 527 q 182 360 182 425 m 717 430 l 1110 430 q 1050 585 1101 534 q 913 636 999 636 q 835 621 871 636 q 773 578 799 605 q 732 512 746 550 q 717 430 717 474 "},"Ր":{"x_min":102,"x_max":851,"ha":884,"o":"m 851 601 l 725 601 l 725 657 q 706 761 725 716 q 655 837 688 807 q 576 884 621 868 q 476 900 530 900 q 376 884 422 900 q 297 837 331 868 q 246 761 264 807 q 228 657 228 716 l 228 0 l 102 0 l 102 650 q 130 802 102 736 q 209 915 159 869 q 328 984 260 960 q 476 1009 397 1009 q 624 984 555 1009 q 743 914 692 960 q 822 802 793 868 q 851 650 851 735 l 851 601 "},"#":{"x_min":68,"x_max":779,"ha":847,"o":"m 122 -17 l 178 272 l 68 272 l 68 373 l 198 373 l 245 619 l 68 619 l 68 720 l 265 720 l 321 1011 l 419 1011 l 363 720 l 568 720 l 624 1011 l 722 1011 l 666 720 l 779 720 l 779 619 l 647 619 l 599 373 l 779 373 l 779 272 l 579 272 l 522 -17 l 425 -17 l 481 272 l 276 272 l 220 -17 l 122 -17 m 296 373 l 501 373 l 549 619 l 343 619 l 296 373 "},"ո":{"x_min":92,"x_max":652,"ha":744,"o":"m 196 720 l 196 659 q 239 690 217 676 q 288 714 261 705 q 344 729 314 724 q 412 735 375 735 q 589 673 527 735 q 652 497 652 612 l 652 0 l 535 0 l 535 476 q 528 544 535 515 q 504 593 521 574 q 457 623 486 613 q 384 633 428 633 q 318 625 346 633 q 268 607 289 618 q 232 582 246 596 q 209 555 217 568 l 209 0 l 92 0 l 92 720 l 196 720 "},"Џ":{"x_min":102,"x_max":830,"ha":952,"o":"m 228 994 l 228 117 l 704 117 l 704 994 l 830 994 l 830 0 l 543 0 l 543 -157 l 417 -157 l 417 0 l 102 0 l 102 994 l 228 994 "},"Փ":{"x_min":47,"x_max":1110,"ha":1157,"o":"m 643 109 l 643 0 l 517 0 l 517 109 l 498 109 q 162 207 277 109 q 47 497 47 305 q 75 668 47 594 q 161 794 104 743 q 302 873 217 846 q 498 900 386 900 l 517 900 l 517 994 l 643 994 l 643 900 l 661 900 q 856 873 771 900 q 996 794 940 846 q 1081 668 1052 743 q 1110 497 1110 594 q 996 206 1110 304 q 661 109 883 109 l 643 109 m 643 795 l 643 214 l 661 214 q 817 234 756 214 q 915 291 879 254 q 965 380 951 328 q 980 497 980 432 q 965 617 980 562 q 915 711 951 671 q 817 772 879 750 q 661 795 756 795 l 643 795 m 517 214 l 517 795 l 498 795 q 342 772 403 795 q 244 711 280 750 q 194 617 208 671 q 180 497 180 562 q 194 380 180 432 q 244 291 208 328 q 342 234 280 254 q 498 214 403 214 l 517 214 "},"Å":{"x_min":0,"x_max":907,"ha":908,"o":"m 779 0 q 755 97 769 44 q 723 209 741 150 q 684 332 705 268 q 640 462 663 396 l 311 462 q 315 473 311 464 q 323 495 318 483 q 333 522 327 508 q 342 549 338 536 q 350 570 346 561 q 354 580 353 579 l 596 580 q 534 734 566 658 q 470 877 502 809 l 435 877 q 371 732 403 809 q 308 576 338 656 q 250 417 278 497 q 198 262 222 337 q 157 120 175 187 q 128 0 138 53 l 0 0 q 37 153 14 69 q 89 325 60 236 q 151 506 118 414 q 219 685 184 598 q 290 851 254 772 q 360 994 326 930 l 546 994 q 616 851 580 930 q 687 685 652 772 q 755 506 722 598 q 817 325 788 414 q 869 153 846 236 q 907 0 892 69 l 779 0 m 331 1181 q 367 1267 331 1231 q 453 1303 403 1303 q 539 1266 503 1303 q 575 1179 575 1230 q 539 1090 575 1126 q 453 1055 503 1055 q 366 1091 402 1055 q 331 1181 331 1127 m 381 1180 q 402 1126 381 1148 q 453 1105 423 1105 q 503 1126 482 1105 q 525 1179 525 1148 q 503 1231 525 1209 q 453 1253 482 1253 q 402 1231 423 1253 q 381 1180 381 1210 "},"ș":{"x_min":81,"x_max":584,"ha":645,"o":"m 346 735 q 451 727 407 735 q 530 708 495 719 l 530 605 q 442 625 485 618 q 347 633 399 633 q 281 628 309 633 q 233 611 252 623 q 205 580 214 599 q 198 530 196 560 q 216 484 199 502 q 261 455 233 467 q 322 435 288 444 q 393 416 357 427 q 463 389 429 405 q 524 348 497 374 q 567 284 551 322 q 584 189 584 246 q 564 100 584 138 q 510 37 545 62 q 425 -1 474 11 q 317 -15 377 -15 q 254 -12 286 -15 q 191 -5 221 -9 q 136 5 161 0 q 93 19 110 11 l 93 124 q 189 98 133 110 q 317 87 244 87 q 384 91 355 87 q 430 108 412 96 q 458 139 449 120 q 467 189 467 159 q 450 251 467 227 q 406 291 433 276 q 344 316 379 306 q 274 335 310 326 q 203 358 237 345 q 141 392 168 370 q 97 447 114 414 q 81 530 81 480 q 100 618 81 580 q 154 682 119 657 q 238 721 189 708 q 346 735 287 735 m 267 -243 l 267 -104 l 401 -104 l 401 -243 q 374 -325 401 -288 q 291 -389 348 -362 l 258 -337 q 313 -298 293 -323 q 333 -243 333 -273 l 267 -243 "},"ס":{"x_min":54,"x_max":702,"ha":757,"o":"m 60 603 l 60 715 q 122 722 85 718 q 200 729 158 726 q 288 734 242 732 q 378 735 333 736 q 534 702 472 732 q 634 622 596 672 q 686 505 671 572 q 702 360 702 437 q 684 213 702 282 q 628 94 666 145 q 527 14 589 44 q 378 -15 466 -15 q 227 14 289 -15 q 127 94 165 43 q 71 213 88 145 q 54 359 54 281 q 59 431 54 394 q 77 501 65 467 q 106 565 88 536 q 147 618 123 595 q 103 611 125 614 q 60 603 81 607 m 175 360 q 186 244 175 294 q 222 158 198 193 q 285 105 246 123 q 378 87 323 87 q 470 105 432 87 q 533 158 509 123 q 569 244 558 193 q 581 360 581 294 q 569 475 581 425 q 533 561 558 526 q 470 614 509 596 q 378 633 432 633 q 298 630 337 633 q 247 593 270 616 q 208 536 225 570 q 183 458 192 502 q 175 360 175 414 "},"վ":{"x_min":92,"x_max":785,"ha":744,"o":"m 785 -276 l 535 -276 l 535 50 q 447 2 494 19 q 331 -15 399 -15 q 154 46 216 -15 q 92 222 92 107 l 92 720 l 209 720 l 209 243 q 215 175 209 204 q 239 126 222 145 q 286 96 257 106 q 359 87 315 87 q 425 94 396 87 q 475 112 454 101 q 511 137 497 123 q 535 164 525 151 l 535 994 l 652 994 l 652 -171 l 785 -171 l 785 -276 "},"¸":{"x_min":7,"x_max":296,"ha":302,"o":"m 109 15 l 207 15 l 184 -58 q 269 -92 242 -64 q 296 -156 296 -120 q 284 -204 296 -181 q 249 -246 272 -227 q 190 -275 226 -264 q 104 -286 154 -286 l 7 -286 l 7 -200 l 78 -200 q 158 -186 134 -200 q 183 -149 183 -172 q 179 -133 183 -141 q 164 -118 176 -124 q 131 -108 153 -112 q 73 -104 110 -104 l 109 15 "},"=":{"x_min":88,"x_max":719,"ha":807,"o":"m 719 585 l 88 585 l 88 699 l 719 699 l 719 585 m 719 282 l 88 282 l 88 397 l 719 397 l 719 282 "},"ρ":{"x_min":92,"x_max":711.5,"ha":772,"o":"m 92 -276 l 92 423 q 111 546 92 489 q 168 645 130 603 q 262 711 206 687 q 393 735 318 735 q 469 727 431 735 q 543 701 507 719 q 609 655 579 684 q 662 585 640 627 q 698 487 685 543 q 711 360 711 431 q 698 232 711 288 q 663 135 685 177 q 609 65 640 94 q 544 18 579 36 q 471 -7 509 0 q 396 -15 434 -15 q 293 0 340 -15 q 209 37 246 13 l 209 -276 l 92 -276 m 209 153 q 245 124 226 137 q 284 104 263 112 q 330 91 305 95 q 383 87 354 87 q 464 99 426 87 q 529 142 501 112 q 574 226 557 173 q 590 360 590 279 q 574 491 590 439 q 529 575 557 544 q 464 620 501 607 q 383 633 426 633 q 316 619 347 633 q 260 579 284 606 q 222 510 236 552 q 209 412 209 469 l 209 153 "},"Ћ":{"x_min":7,"x_max":1020,"ha":1101,"o":"m 764 994 l 764 877 l 448 877 l 448 594 q 521 624 488 612 q 584 644 555 636 q 643 654 614 651 q 705 658 672 658 q 853 635 793 658 q 951 571 914 613 q 1004 468 988 529 q 1020 332 1020 408 l 1020 0 l 894 0 l 894 322 q 884 419 894 378 q 850 488 874 461 q 789 528 827 515 q 693 541 750 541 q 629 537 658 541 q 573 527 601 534 q 516 509 546 520 q 448 483 486 498 l 448 0 l 322 0 l 322 877 l 7 877 l 7 994 l 764 994 "},"ú":{"x_min":92,"x_max":652,"ha":744,"o":"m 548 0 l 548 60 q 504 28 526 42 q 455 5 482 14 q 399 -9 429 -4 q 331 -15 368 -15 q 154 46 216 -15 q 92 222 92 107 l 92 720 l 209 720 l 209 243 q 215 175 209 204 q 239 126 222 145 q 286 96 257 106 q 359 87 315 87 q 425 94 396 87 q 475 112 454 101 q 511 137 497 123 q 535 164 525 151 l 535 720 l 652 720 l 652 0 l 548 0 m 349 994 l 500 994 l 373 798 l 241 798 l 349 994 "},"˚":{"x_min":110,"x_max":354,"ha":463,"o":"m 110 907 q 146 993 110 957 q 232 1029 182 1029 q 318 992 282 1029 q 354 905 354 956 q 318 816 354 852 q 232 781 282 781 q 145 817 181 781 q 110 907 110 853 m 160 906 q 181 852 160 874 q 232 831 202 831 q 282 852 261 831 q 304 905 304 874 q 282 957 304 935 q 232 979 261 979 q 181 957 202 979 q 160 906 160 936 "},"գ":{"x_min":61,"x_max":806,"ha":811,"o":"m 564 -276 l 564 48 q 529 24 547 35 q 488 3 511 12 q 438 -9 466 -4 q 375 -15 410 -15 q 260 4 316 -15 q 159 67 203 23 q 88 179 115 110 q 61 347 61 248 q 74 475 61 419 q 113 575 88 532 q 172 648 138 618 q 247 698 207 678 q 334 726 288 717 q 429 735 380 735 q 489 732 456 735 q 554 723 521 729 q 619 709 587 718 q 681 688 652 700 l 681 105 l 806 105 l 806 0 l 681 0 l 681 -276 l 564 -276 m 564 608 q 504 626 538 620 q 426 633 471 633 q 320 616 365 633 q 243 566 274 600 q 197 478 213 532 q 182 351 182 424 q 196 227 182 277 q 239 145 211 176 q 305 99 266 113 q 393 86 344 86 q 454 94 426 86 q 503 115 482 102 q 540 145 525 128 q 564 178 555 161 l 564 608 "},"д":{"x_min":7,"x_max":680,"ha":707,"o":"m 167 720 l 601 720 l 601 105 l 680 105 l 680 -157 l 563 -157 l 563 0 l 124 0 l 124 -157 l 7 -157 l 7 105 l 86 105 q 122 179 107 132 q 147 300 137 227 q 162 478 157 374 q 167 720 167 581 m 484 615 l 280 615 q 272 436 277 515 q 257 295 267 357 q 235 186 248 233 q 205 105 223 139 l 484 105 l 484 615 "},"ს":{"x_min":92,"x_max":713,"ha":760,"o":"m 92 994 l 209 994 l 209 238 q 223 172 209 200 q 262 124 238 143 q 321 96 287 105 q 393 87 354 87 q 471 98 435 87 q 534 132 507 110 q 576 185 561 154 q 592 258 592 217 q 578 336 592 302 q 543 397 564 370 q 498 447 522 425 q 453 493 474 470 q 418 540 432 516 q 405 595 405 564 q 418 651 405 621 q 463 720 431 682 l 580 720 q 535 657 548 683 q 523 612 523 632 q 537 573 523 592 q 572 533 550 554 q 618 488 593 513 q 663 431 642 463 q 699 358 685 399 q 713 264 713 317 q 690 155 713 206 q 627 67 668 105 q 526 7 586 29 q 393 -15 467 -15 q 289 -2 334 -15 q 210 30 244 9 q 154 77 176 50 q 117 133 131 104 q 98 193 104 163 q 92 250 92 223 l 92 994 "},"Ջ":{"x_min":87,"x_max":873,"ha":960,"o":"m 742 564 q 723 702 742 641 q 665 806 705 763 q 560 871 625 849 q 403 894 495 894 q 324 891 368 894 q 222 879 280 889 q 216 819 218 843 q 213 777 214 795 q 213 746 213 760 q 213 717 213 732 q 222 642 213 674 q 254 585 232 610 q 310 541 276 561 q 392 503 343 522 q 503 465 440 485 q 645 421 566 446 q 584 326 619 359 q 454 367 517 348 q 336 408 392 387 q 235 454 281 429 q 156 515 189 480 q 105 596 123 549 q 87 706 87 643 q 88 780 87 747 q 93 844 90 813 q 100 905 96 875 q 109 971 104 936 q 188 988 151 981 q 261 1000 226 995 q 332 1006 297 1004 q 403 1009 367 1009 q 619 977 530 1009 q 765 888 708 945 q 847 753 821 831 q 873 584 873 675 q 853 441 873 510 q 797 311 834 372 q 705 202 760 251 q 578 119 650 152 l 865 119 l 865 0 l 95 0 l 95 225 l 221 225 l 221 119 l 329 119 q 424 146 375 127 q 518 194 472 165 q 605 260 564 222 q 676 345 645 298 q 724 446 706 391 q 742 564 742 501 "},"¯":{"x_min":-20.34375,"x_max":716.875,"ha":697,"o":"m -20 1051 l -20 1139 l 716 1139 l 716 1051 l -20 1051 "},"է":{"x_min":92,"x_max":638,"ha":638,"o":"m 638 615 l 209 615 l 209 105 l 575 105 l 575 0 l 92 0 l 92 994 l 209 994 l 209 720 l 638 720 l 638 615 "},"u":{"x_min":92,"x_max":652,"ha":744,"o":"m 548 0 l 548 60 q 504 28 526 42 q 455 5 482 14 q 399 -9 429 -4 q 331 -15 368 -15 q 154 46 216 -15 q 92 222 92 107 l 92 720 l 209 720 l 209 243 q 215 175 209 204 q 239 126 222 145 q 286 96 257 106 q 359 87 315 87 q 425 94 396 87 q 475 112 454 101 q 511 137 497 123 q 535 164 525 151 l 535 720 l 652 720 l 652 0 l 548 0 "},"נ":{"x_min":34,"x_max":286,"ha":377,"o":"m 34 722 q 74 732 51 730 q 118 735 97 735 q 200 722 167 735 q 251 687 232 710 q 278 632 270 665 q 286 560 286 600 l 286 0 l 34 0 l 34 105 l 169 105 l 169 559 q 154 616 169 600 q 103 633 139 633 q 66 629 82 633 q 34 618 49 625 l 34 722 "}}}
